<svg width="212" height="150" viewBox="0 0 212 150" fill="none" xmlns="http://www.w3.org/2000/svg">
<g clip-path="url(#clip0_218_32585)">
<path d="M166.518 9.34888H0.537354V10.0156H166.518V9.34888Z" fill="#00A4B9"/>
<path d="M6.19205 7.00222C7.29427 7.00222 8.1878 6.10673 8.1878 5.00209C8.1878 3.89744 7.29427 3.00195 6.19205 3.00195C5.08982 3.00195 4.19629 3.89744 4.19629 5.00209C4.19629 6.10673 5.08982 7.00222 6.19205 7.00222Z" fill="#00A4B9"/>
<path d="M11.9298 7.00222C13.0321 7.00222 13.9256 6.10673 13.9256 5.00209C13.9256 3.89744 13.0321 3.00195 11.9298 3.00195C10.8276 3.00195 9.93408 3.89744 9.93408 5.00209C9.93408 6.10673 10.8276 7.00222 11.9298 7.00222Z" fill="#00A4B9"/>
<path d="M17.6676 7.00222C18.7699 7.00222 19.6634 6.10673 19.6634 5.00209C19.6634 3.89744 18.7699 3.00195 17.6676 3.00195C16.5654 3.00195 15.6719 3.89744 15.6719 5.00209C15.6719 6.10673 16.5654 7.00222 17.6676 7.00222Z" fill="#00A4B9"/>
<path d="M130.571 48.0407H36.3666C36.0863 48.0407 35.8087 47.9854 35.5496 47.8779C35.2906 47.7703 35.0553 47.6127 34.857 47.414C34.6588 47.2154 34.5015 46.9795 34.3942 46.7199C34.2869 46.4603 34.2317 46.1821 34.2317 45.9011C34.2317 45.6201 34.2869 45.3419 34.3942 45.0823C34.5015 44.8227 34.6588 44.5868 34.857 44.3882C35.0553 44.1895 35.2906 44.0319 35.5496 43.9243C35.8087 43.8168 36.0863 43.7615 36.3666 43.7615H130.571C130.852 43.7615 131.129 43.8168 131.388 43.9243C131.647 44.0319 131.883 44.1895 132.081 44.3882C132.279 44.5868 132.436 44.8227 132.544 45.0823C132.651 45.3419 132.706 45.6201 132.706 45.9011C132.706 46.1821 132.651 46.4603 132.544 46.7199C132.436 46.9795 132.279 47.2154 132.081 47.414C131.883 47.6127 131.647 47.7703 131.388 47.8779C131.129 47.9854 130.852 48.0407 130.571 48.0407Z" fill="#CCCCCC"/>
<path d="M130.571 71.0417H36.3666C36.0863 71.0417 35.8087 70.9864 35.5496 70.8788C35.2906 70.7713 35.0553 70.6137 34.857 70.415C34.6588 70.2163 34.5015 69.9805 34.3942 69.7209C34.2869 69.4613 34.2317 69.1831 34.2317 68.9021C34.2317 68.6211 34.2869 68.3429 34.3942 68.0833C34.5015 67.8237 34.6588 67.5878 34.857 67.3891C35.0553 67.1904 35.2906 67.0328 35.5496 66.9253C35.8087 66.8178 36.0863 66.7625 36.3666 66.7625H130.571C130.852 66.7625 131.129 66.8178 131.388 66.9253C131.647 67.0328 131.883 67.1904 132.081 67.3891C132.279 67.5878 132.436 67.8237 132.544 68.0833C132.651 68.3429 132.706 68.6211 132.706 68.9021C132.706 69.1831 132.651 69.4613 132.544 69.7209C132.436 69.9805 132.279 70.2163 132.081 70.415C131.883 70.6137 131.647 70.7713 131.388 70.8788C131.129 70.9864 130.852 71.0417 130.571 71.0417Z" fill="#276B74"/>
<path d="M130.571 79.8676H36.3666C35.8004 79.8676 35.2574 79.6422 34.857 79.241C34.4566 78.8397 34.2317 78.2955 34.2317 77.728C34.2317 77.1605 34.4566 76.6163 34.857 76.2151C35.2574 75.8138 35.8004 75.5884 36.3666 75.5884H130.571C131.137 75.5884 131.68 75.8138 132.081 76.2151C132.481 76.6163 132.706 77.1605 132.706 77.728C132.706 78.2955 132.481 78.8397 132.081 79.241C131.68 79.6422 131.137 79.8676 130.571 79.8676Z" fill="#276B74"/>
<path d="M115.226 38.9472H51.7116C51.1454 38.9472 50.6024 38.7218 50.202 38.3205C49.8016 37.9193 49.5767 37.3751 49.5767 36.8076C49.5767 36.2401 49.8016 35.6959 50.202 35.2947C50.6024 34.8934 51.1454 34.668 51.7116 34.668H115.226C115.792 34.668 116.336 34.8934 116.736 35.2947C117.136 35.6959 117.361 36.2401 117.361 36.8076C117.361 37.3751 117.136 37.9193 116.736 38.3205C116.336 38.7218 115.792 38.9472 115.226 38.9472Z" fill="#CCCCCC"/>
<path d="M69.5781 62.2155H36.4864C36.2058 62.2159 35.9279 62.1608 35.6686 62.0534C35.4093 61.946 35.1736 61.7885 34.9751 61.5898C34.7766 61.391 34.6191 61.1551 34.5116 60.8953C34.4042 60.6355 34.3489 60.3571 34.3489 60.0759C34.3489 59.7947 34.4042 59.5163 34.5116 59.2565C34.6191 58.9968 34.7766 58.7608 34.9751 58.5621C35.1736 58.3633 35.4093 58.2058 35.6686 58.0984C35.9279 57.991 36.2058 57.9359 36.4864 57.9363H69.5781C70.1443 57.9363 70.6873 58.1617 71.0877 58.563C71.4881 58.9642 71.713 59.5084 71.713 60.0759C71.713 60.6434 71.4881 61.1876 71.0877 61.5889C70.6873 61.9901 70.1443 62.2155 69.5781 62.2155Z" fill="#276B74"/>
<path d="M130.691 62.2155H97.5992C97.3186 62.2159 97.0407 62.1608 96.7814 62.0534C96.5221 61.946 96.2864 61.7885 96.0879 61.5898C95.8894 61.391 95.7319 61.1551 95.6244 60.8953C95.517 60.6355 95.4617 60.3571 95.4617 60.0759C95.4617 59.7947 95.517 59.5163 95.6244 59.2565C95.7319 58.9968 95.8894 58.7608 96.0879 58.5621C96.2864 58.3633 96.5221 58.2058 96.7814 58.0984C97.0407 57.991 97.3186 57.9359 97.5992 57.9363H130.691C130.971 57.9359 131.249 57.991 131.509 58.0984C131.768 58.2058 132.004 58.3633 132.202 58.5621C132.401 58.7608 132.558 58.9968 132.666 59.2565C132.773 59.5163 132.828 59.7947 132.828 60.0759C132.828 60.3571 132.773 60.6355 132.666 60.8953C132.558 61.1551 132.401 61.391 132.202 61.5898C132.004 61.7885 131.768 61.946 131.509 62.0534C131.249 62.1608 130.971 62.2159 130.691 62.2155Z" fill="#276B74"/>
<path d="M164.522 0H2.53115C1.914 0.000940944 1.32244 0.247267 0.886332 0.6849C0.450224 1.12253 0.205214 1.71571 0.205078 2.33421V112.343C0.205856 112.961 0.451172 113.553 0.887228 113.99C1.32328 114.427 1.91448 114.673 2.53115 114.674H123.666C123.636 114.453 123.611 114.229 123.587 114.008H2.53115C2.09051 114.008 1.66802 113.832 1.35643 113.52C1.04484 113.208 0.869607 112.784 0.869202 112.343V2.33421C0.869489 1.89228 1.04459 1.46849 1.35611 1.15571C1.66764 0.842936 2.09019 0.66669 2.53115 0.665603H164.522C164.963 0.666065 165.387 0.842012 165.699 1.15484C166.011 1.46766 166.186 1.89181 166.187 2.33421V69.7565C166.407 69.7718 166.631 69.7902 166.851 69.8117V2.33421C166.851 1.71522 166.605 1.12167 166.169 0.683982C165.732 0.246297 165.14 0.000284466 164.522 0Z" fill="#00A4B9"/>
<path d="M123.666 114.674C123.635 114.453 123.611 114.229 123.586 114.008C123.58 113.975 123.577 113.944 123.574 113.91C123.485 113.104 123.421 112.289 123.381 111.466C123.213 112.174 123.061 112.886 122.925 113.6C122.935 113.705 122.944 113.806 122.956 113.91C122.959 113.944 122.962 113.975 122.968 114.008C122.993 114.229 123.017 114.453 123.048 114.674C123.133 115.358 123.238 116.033 123.36 116.705C123.363 116.677 123.366 116.652 123.369 116.625C123.455 115.978 123.553 115.333 123.669 114.689C123.667 114.685 123.666 114.679 123.666 114.674ZM166.851 69.1952C166.631 69.1737 166.407 69.1553 166.187 69.14C166.153 69.1369 166.122 69.1369 166.089 69.1339C165.109 69.0602 164.118 69.0234 163.12 69.0234C157.471 69.0252 151.885 70.2138 146.723 72.5127C141.561 74.8115 136.936 78.1695 133.149 82.3699C129.362 86.5703 126.495 91.5198 124.734 96.8991C122.973 102.278 122.357 107.968 122.925 113.6C122.935 113.705 122.944 113.806 122.956 113.91C122.959 113.944 122.962 113.975 122.968 114.008C122.993 114.229 123.017 114.453 123.048 114.674C123.133 115.358 123.238 116.033 123.36 116.705C124.576 123.364 127.432 129.614 131.669 134.888C135.905 140.161 141.389 144.291 147.621 146.902C148.258 147.166 148.9 147.417 149.552 147.647C149.981 147.804 150.409 147.948 150.844 148.086C151.156 148.187 151.471 148.282 151.787 148.374C152.234 148.506 152.686 148.632 153.143 148.749C158.737 150.187 164.574 150.4 170.258 149.375C175.942 148.349 181.338 146.108 186.08 142.804H186.084C191.461 139.083 195.857 134.11 198.894 128.311C201.931 122.512 203.518 116.061 203.52 109.512C203.52 88.4456 187.384 71.0877 166.851 69.1952ZM185.817 142.243C183.947 143.552 181.968 144.696 179.901 145.663C178.416 146.359 176.889 146.962 175.329 147.466C168.288 149.737 160.755 149.999 153.574 148.224C153.035 148.092 152.501 147.948 151.97 147.792C151.447 147.638 150.929 147.476 150.416 147.304C149.996 147.16 149.577 147.013 149.161 146.856C148.726 146.69 148.298 146.519 147.869 146.341C141.424 143.649 135.797 139.309 131.55 133.755C127.304 128.2 124.586 121.626 123.669 114.689C123.667 114.685 123.666 114.679 123.666 114.674C123.635 114.453 123.611 114.229 123.586 114.008C123.58 113.975 123.577 113.944 123.574 113.91C123.485 113.104 123.421 112.289 123.381 111.466C123.348 110.818 123.331 110.167 123.332 109.512C123.344 98.9398 127.54 88.8042 134.999 81.3287C142.458 73.8533 152.571 69.6485 163.12 69.6369C164.118 69.6369 165.109 69.6737 166.089 69.7473C166.122 69.7504 166.153 69.7534 166.187 69.7565C166.407 69.7719 166.631 69.7903 166.851 69.8117C187.048 71.7012 202.908 88.783 202.908 109.512C202.907 115.945 201.352 122.282 198.376 127.982C195.4 133.682 191.091 138.575 185.817 142.243ZM149.161 146.856C148.726 146.69 148.298 146.519 147.869 146.341C141.424 143.649 135.797 139.309 131.55 133.755C127.304 128.2 124.586 121.626 123.669 114.689C123.553 115.333 123.455 115.978 123.369 116.625C123.366 116.652 123.363 116.677 123.36 116.705C124.576 123.364 127.432 129.614 131.669 134.888C135.905 140.161 141.389 144.291 147.621 146.902C148.258 147.166 148.9 147.417 149.553 147.647C149.418 147.387 149.286 147.123 149.161 146.856ZM166.089 69.1339C165.109 69.0602 164.118 69.0234 163.12 69.0234C157.471 69.0252 151.885 70.2138 146.723 72.5127C141.561 74.8115 136.936 78.1695 133.149 82.3699C129.362 86.5703 126.495 91.5198 124.734 96.8991C122.973 102.278 122.357 107.968 122.925 113.6C122.935 113.705 122.944 113.806 122.956 113.91C122.959 113.944 122.962 113.975 122.968 114.008H123.586C123.58 113.975 123.577 113.944 123.574 113.91C123.485 113.104 123.421 112.289 123.381 111.466C123.348 110.818 123.331 110.167 123.332 109.512C123.344 98.9398 127.539 88.8042 134.999 81.3287C142.458 73.8533 152.571 69.6485 163.12 69.6369C164.118 69.6369 165.109 69.6737 166.089 69.7473C166.122 69.7504 166.153 69.7534 166.187 69.7565V69.14C166.153 69.1369 166.122 69.1369 166.089 69.1339H166.089Z" fill="#00A4B9"/>
<path d="M195.959 79.3867C208.367 79.5991 208.365 98.0975 195.958 98.308C183.55 98.0957 183.552 79.5973 195.959 79.3867Z" fill="#00A4B9"/>
<path d="M195.959 93.9989C195.783 93.9987 195.614 93.9286 195.49 93.8039C195.365 93.6793 195.295 93.5103 195.295 93.334V89.8088C195.295 89.7302 195.264 89.6549 195.209 89.5993C195.153 89.5438 195.078 89.5125 195 89.5124H191.482C191.306 89.5124 191.137 89.4424 191.013 89.3177C190.889 89.1929 190.819 89.0238 190.819 88.8475C190.819 88.6711 190.889 88.5019 191.013 88.3772C191.137 88.2525 191.306 88.1825 191.482 88.1825H195C195.078 88.1824 195.153 88.1512 195.209 88.0957C195.264 88.0401 195.295 87.9648 195.295 87.8863V84.3609C195.295 84.1846 195.365 84.0155 195.49 83.8908C195.614 83.7661 195.783 83.696 195.959 83.696C196.135 83.696 196.303 83.7661 196.428 83.8908C196.552 84.0155 196.622 84.1846 196.622 84.3609V87.8863C196.622 87.9648 196.653 88.0401 196.709 88.0957C196.764 88.1512 196.839 88.1824 196.918 88.1825H200.435C200.611 88.1825 200.78 88.2525 200.904 88.3772C201.029 88.5019 201.099 88.6711 201.099 88.8474C201.099 89.0238 201.029 89.1929 200.904 89.3176C200.78 89.4424 200.611 89.5124 200.435 89.5124H196.918C196.839 89.5125 196.764 89.5438 196.709 89.5993C196.653 89.6549 196.622 89.7302 196.622 89.8088V93.334C196.622 93.5103 196.552 93.6792 196.428 93.8039C196.303 93.9285 196.135 93.9987 195.959 93.9989Z" fill="white"/>
<mask id="mask0_218_32585" style="mask-type:luminance" maskUnits="userSpaceOnUse" x="151" y="113" width="24" height="11">
<path fill-rule="evenodd" clip-rule="evenodd" d="M151.917 113.082H174.891V123.784H151.917V113.082Z" fill="white"/>
</mask>
<g mask="url(#mask0_218_32585)">
<path fill-rule="evenodd" clip-rule="evenodd" d="M163.404 115.269C157.234 115.269 154.104 116.329 154.104 118.418C154.104 120.527 157.234 121.597 163.404 121.597C169.574 121.597 172.704 120.537 172.704 118.45C172.704 116.338 169.574 115.269 163.404 115.269ZM163.404 123.784C160.563 123.784 151.917 123.784 151.917 118.418C151.917 113.634 158.472 113.082 163.404 113.082C166.245 113.082 174.891 113.082 174.891 118.45C174.891 123.232 168.336 123.784 163.404 123.784Z" fill="#00A4B9"/>
</g>
<path fill-rule="evenodd" clip-rule="evenodd" d="M163.404 97.1042C160.336 97.1042 157.838 99.6024 157.838 102.672C157.832 104.158 158.404 105.551 159.446 106.602C160.49 107.652 161.882 108.234 163.363 108.24L163.404 109.334V108.24C166.474 108.24 168.972 105.742 168.972 102.672C168.972 99.6024 166.474 97.1042 163.404 97.1042ZM163.404 110.428H163.359C161.29 110.42 159.35 109.608 157.896 108.144C156.441 106.678 155.643 104.733 155.65 102.668C155.65 98.3963 159.128 94.9167 163.404 94.9167C167.681 94.9167 171.16 98.3963 171.16 102.672C171.16 106.948 167.681 110.428 163.404 110.428Z" fill="#00A4B9"/>
</g>
<defs>
<clipPath id="clip0_218_32585">
<rect width="211.589" height="150" fill="white" transform="translate(0.205078)"/>
</clipPath>
</defs>
</svg>
