<svg width="710" height="1024" viewBox="0 0 710 1024" fill="none" xmlns="http://www.w3.org/2000/svg">
<g clip-path="url(#clip0_1_2)">
<rect width="710" height="1024" fill="url(#paint0_linear_1_2)"/>
<path opacity="0.23" d="M686.499 1023.99C677.989 1020.82 668.745 1020.28 659.903 1019.22C624.194 1015 588.983 1005.27 552.645 1007.9C531.241 1009.45 509.967 1012.87 488.563 1014.62C479.07 1015.41 473.82 1008.88 470.276 1000.47C466.649 991.858 463.817 980.219 451.562 982.281C436.072 984.889 431.711 997.831 430.134 1011.77C429.909 1013.78 429.53 1015.79 429.222 1017.79C427.491 1016.6 425.524 1015.66 424.054 1014.2C401.038 991.549 403.053 960.237 434.733 946.774C482.709 926.401 509.197 888.096 535.615 847.575C546.281 831.208 561.048 817.46 582.358 827.64C604.366 838.153 600.254 859.913 596.201 877.749C585.344 925.535 598.808 973.025 629.409 986.038C657.012 997.772 687.056 999.455 715.725 1006.79C729.414 1010.3 742.439 1015.3 753.579 1023.98H807.493C791.706 1015.41 776.015 1006.64 759.861 998.826C733.633 986.145 704.821 982.53 676.709 976.202C634.007 966.59 614.571 923.319 623.08 875.699C634.268 813.158 678.795 779.368 724.069 744.655C763.736 714.243 799.102 680.679 798.391 625.249C797.94 590.31 782.687 561.321 758.545 537.025C722.184 500.427 726.818 460.19 745.331 417.334C763.748 374.692 777.366 331.184 760.525 284.014C753.828 265.265 738.622 256.032 724.104 245.354C698.813 226.747 698.102 208.839 725.799 194.155C759.754 176.14 775.28 149.284 782.166 112.579C790.758 66.7725 829.11 52.2305 873.886 73.765C905.364 88.9115 930.845 114.073 963.781 126.588C984.048 134.292 1004.12 134.197 1024.01 126.588V96.7099C964.801 125.024 923.426 88.4019 881.483 54.2453C856.026 33.5048 828.352 24.2723 795.025 31.6085C783.789 34.0855 763.547 37.6529 763.428 19.1761C763.274 0.865175 780.744 2.15701 794.385 0H722.172C724.069 31.2767 738.172 59.7682 743.221 90.3456C750.237 132.787 728.525 161.314 697.722 185.384C687.234 193.586 676.531 201.704 665.106 208.472C652.935 215.666 636.982 223.737 628.485 207.049C619.714 189.829 637.113 182.256 649.166 175.749C672.431 163.186 701.491 158.73 709.112 126.529C716.792 94.1026 704.916 64.3311 698.73 33.6826C696.478 22.542 695.02 11.2473 693.302 0H665.64C669.492 11.7213 673.426 23.4071 677.124 35.1759C686.902 66.3222 700.057 98.2033 674.185 127.536C656.858 147.163 631.459 158.54 616.1 180.371C595.051 210.273 573.161 238.717 537.594 252.915C529.345 256.198 517.624 259.517 518.276 270.409C518.987 282.213 530.767 287.096 540.154 292.228C569.001 308.038 601.759 303.238 632.431 309.496C648.135 312.707 664.454 316.832 670.203 334.218C674.588 347.48 666.244 358.348 656.265 365.116C636.603 378.449 616.159 390.834 595.146 401.927C544.349 428.736 499.301 461.494 474.009 515.217C467.23 529.605 461.802 545.463 470.916 560.941C475.906 569.427 485.174 572.627 494.999 571.323C513.061 568.918 527.615 558.618 542.477 549.137C573.327 529.475 603.383 505.855 641.024 503.603C681.225 501.197 711.067 529.25 743.138 548.343C770.314 564.521 786.823 589.658 781.68 622.712C772.198 683.607 734.297 725.384 684.863 757.905C669.231 768.192 651.169 777.662 632.313 767.683C614.926 758.486 617.38 740.104 620.745 724.72C627.951 691.808 615.791 672.229 587.371 654.285C550.88 631.258 550.168 611.904 579.881 585.889C601.427 567.021 626.47 547.347 656.241 552.574C701.906 560.598 725.645 596.188 726.249 645.622C726.332 651.986 724.922 660.496 733.242 663.305C735.873 664.193 741.005 661.716 743.197 659.204C751.908 649.189 755.345 636.863 756.222 623.815C758.676 587.418 733.277 571.051 706.528 556.864C685.574 545.747 666.588 526.702 640.443 531.016C605.895 536.716 582.263 564.521 551.555 578.541C524.782 590.76 520.942 607.637 539.561 630.594C547.952 640.952 558.334 650.208 569.285 657.865C611.774 687.636 616.763 708.46 588.817 746.539C574.334 766.26 555.549 783.955 545.7 805.727C523.099 855.658 491.846 892.434 438.182 911.87C380.902 932.623 364.511 985.327 398.336 1023.98H686.511L686.499 1023.99ZM520.373 537.582C512.871 544.977 500.142 555.442 491.882 544.645C480.006 529.131 495.757 516.509 505.345 506.175C546.174 462.169 598.061 432.35 646.333 397.862C665.414 384.232 683.168 367.794 688.798 343.771C693.965 321.738 675.88 314.615 660.769 306.343C656.265 303.878 648.597 303.131 649.391 297.051C649.675 294.835 659.157 292.571 664.478 292.488C693.432 292.038 711.944 309.507 711.944 344.636C709.373 378.449 682.694 405.672 651.37 427.147C603.88 459.704 561.179 497.333 520.361 537.582H520.373ZM600.989 496.492C599.531 496.942 597.966 497.049 596.461 497.321C596.995 495.71 597.22 493.884 598.12 492.521C617.486 463.39 649.415 449.595 676.164 429.731C716.152 400.043 740.033 343.154 722.978 309.555C710.214 284.394 688.656 273.964 657.178 274.023C641.308 273.834 622.819 280.411 604.046 285.768C596.082 288.044 585.392 292.82 580.924 283.528C576.574 274.474 586.612 269.046 593.7 265.265C649.083 235.754 733.941 243.588 751.387 315.575C761.757 358.372 742.356 394.188 716.377 425.998C686.392 462.714 645.326 482.661 600.977 496.516L600.989 496.492Z" fill="white"/>
<path opacity="0.23" d="M635.643 0H614.843C627.868 15.7865 637.978 32.9122 640.609 54.0438C643.88 80.3546 638.191 104.627 619.074 122.535C585.131 154.333 563.667 197.39 525.671 225.159C497.227 245.935 466.625 240.542 437.838 227.174C403.622 211.292 371.196 214.22 338.343 229.378C336.292 230.326 333.91 230.551 331.694 231.108C332.286 228.809 332.571 226.368 333.531 224.222C344.968 198.777 389.838 188.81 424.125 203.518C458.471 218.249 492.841 237.461 529.025 207.606C553.7 187.245 568.1 158.754 587.276 134.031C601.853 115.234 622.084 99.4003 623.151 73.3384C624.561 38.6958 605.978 16.1894 578.399 0H439.947C453.032 4.5155 466.057 9.19693 479.342 12.9895C504.515 20.1598 529.523 8.98359 554.672 11.2354C579.229 13.4398 597.385 26.5241 609.19 47.7742C616.431 60.8348 616.206 74.3813 607.412 87.276C603.963 92.3367 599.459 95.4537 593.593 94.5766C586.577 93.5218 583.709 87.6671 582.18 81.4331C571.786 39.1936 559.65 30.3048 517.754 41.9195C490.388 49.5046 470.11 35.2233 448.054 26.2397C400.126 6.71992 352.778 37.2855 352.565 88.7574C352.517 101.178 351.711 113.622 350.55 125.984C349.744 134.6 348.061 144.496 336.233 142.837C325.424 141.308 321.442 131.317 321.774 122.298C323.599 72.3902 333.175 14.4117 391.735 0H348.239C318.005 38.2455 305.075 82.1205 309.816 130.665C311.593 148.81 321.584 165.794 343 162.641C366.194 159.228 363.136 137.065 365.59 120.402C370.034 90.2271 365.732 56.1297 399.865 39.2173C422.407 28.053 443.918 35.7211 462.205 49.7416C477.979 61.8304 493.161 66.334 513.606 64.1889C558.784 59.4363 574.986 81.8953 564.035 129.433C554.032 172.845 518.797 210.178 487.71 209.515C464.504 209.017 447.461 192.685 427.207 184.59C387.717 168.792 355.895 185.894 325.946 209.68C280.447 245.816 231.725 274.912 172.134 280.103C166.599 280.589 160.022 279.76 158.765 273.644C157.355 266.794 164.194 264.886 169.254 263.096C197.047 253.271 226.166 247.12 252.121 232.27C290.995 210.024 295.345 176.116 288.791 135.548C281.04 87.7027 291.884 42.1921 315.919 0H293.045C274.628 45.9846 277.342 94.7307 275.043 142.861C273.703 170.89 267.647 197.805 247.274 218.711C205.141 261.946 141.818 260.133 95.027 215.654C88.6626 209.609 80.2953 197.39 70.9562 205.212C61.5104 213.117 70.9443 223.18 76.6924 231.132C80.6153 236.56 84.5027 242.095 89.0419 246.978C113.148 272.945 134.73 303.368 176.697 299.303C202.166 296.838 222.065 281.063 244.039 270.397C291.599 247.31 339.587 277.093 339.587 330.106C339.587 395.669 272.423 441.903 204.715 427.74C157.865 417.939 116.36 393.903 69.8658 384.161C43.6854 378.674 12.1717 396.57 5.64141 422.739C0.177772 444.652 15.4309 463.212 43.4839 470.785C83.282 481.523 120.378 496.622 146.594 531.514C174.149 568.195 183.998 569.451 222.942 542.334C255.298 519.816 288.554 509.564 327.569 523.798C363.243 536.811 378.07 527.247 378.401 489.333C378.84 440.67 401.263 409.417 445.684 392.173C483.893 377.347 503.899 341.282 494.299 302.242C489.179 281.419 472.492 273.265 452.996 277.709C435.61 281.68 441.986 297.241 444.427 308.642C451.052 339.587 448.729 367.237 420.321 387.326C402.342 400.031 385.335 413.743 376.813 435.171C370.319 451.503 363.397 467.763 351.071 480.658C323.86 509.114 287.096 504.338 252.951 507.775C180.17 515.099 120.022 480.658 59.6852 447.604C47.9283 441.168 33.884 431.947 43.2943 416.422C52.2186 401.702 67.7681 406.632 79.999 413.98C120.745 438.442 160.33 464.196 208.543 473.618C249.739 481.665 291.445 471.497 310.562 445.411C347.35 395.207 356.891 338.402 354.899 277.923C353.679 240.827 375.012 224.08 410.199 235.873C466.566 254.776 517.967 253.461 560.562 206.326C582.618 181.924 599.862 153.1 626.825 133.225C650.386 115.85 661.373 93.6759 656.786 63.9163C653.278 41.3151 643.903 20.8827 635.643 0Z" fill="white"/>
<path opacity="0.23" d="M707.429 941.832C756.447 958.756 797.016 991.467 843.498 1012.99C851.771 1016.82 860.173 1020.41 868.564 1023.99H903.195C901.417 1023.72 899.651 1023.4 897.968 1023.06C856.156 1014.84 823.03 992.095 793.816 961.601C746.978 912.701 757.147 805.395 812.47 766.735C843.202 745.26 873.08 722.481 902.401 699.097C911.041 692.212 919.076 678.357 908.931 669.836C898.419 661.006 894.01 676.555 887.752 682.967C876.339 694.653 865.945 707.915 852.79 717.183C801.97 752.952 756.186 791.979 743.612 857.472C741.396 869.039 736.347 881.057 721.639 877.134C710.249 874.1 709.586 862.485 711.648 852.482C722.907 797.751 759.292 760.916 800.678 727.506C824.286 708.448 852.991 693.835 864.274 663.033C873.578 637.634 860.351 612.924 859.166 587.727C858.194 566.892 862.2 543.852 848.606 526.228C838.473 513.097 820.766 505.689 811.119 492.344C785.211 456.505 794.065 416.09 803.795 377.809C814.509 335.665 824.073 294.563 813.975 250.664C804.541 209.657 805.11 168.556 823.966 129.516C827.249 122.725 832.357 116.408 840.914 118.221C849.744 120.094 850.893 127.94 850.858 135.643C850.704 167.323 841.199 198.197 844.458 230.374C847.516 260.584 867.687 282.818 890.692 277.354C930.656 267.849 974.768 288.673 989.001 326.894C1003.13 364.82 995.235 406.265 1003.83 445.352C1007.88 463.77 1010.6 482.721 1024 497.026V436.878C1016.57 416.671 1014.78 395.196 1014.34 374.088C1012.98 307.624 982.886 264.744 918.673 244.561C877.572 231.642 863.61 204.016 866.17 148.337C867.083 128.532 873.601 105.185 846.911 99.6735C822.248 94.5772 815.658 117.475 808.358 135.015C798.059 159.797 782.414 180.277 764.198 199.797C745.721 219.601 765.206 234.001 775.446 248.448C809.389 296.353 804.316 348.287 782.083 396.073C756.388 451.266 767.469 492.261 807.362 534.702C847.765 577.677 852.825 645.018 822.26 686.143C798.402 718.262 761.188 736.62 733.372 764.957C700.235 798.699 661.242 829.573 655.174 880.594C650.837 917.062 678.593 931.877 707.429 941.832Z" fill="white"/>
<path opacity="0.23" d="M631.009 341.057C630.487 338.414 625.593 335.416 622.25 334.764C594.245 329.265 565.101 330.236 538.091 318.693C528.48 314.58 523.632 321.62 522.862 330.248C519.117 372.132 500.569 402.046 458.993 416.398C434.721 424.777 410.591 436.985 404.878 465.038C400.884 484.652 402.413 505.464 402.034 525.742C401.56 551.65 388.061 563.976 363.101 559.164C341.021 554.897 319.392 546.246 297.229 544.823C249.573 541.766 220.56 574.062 193.953 607.152C181.343 622.819 183.524 640.467 199.488 654.155C210.036 663.198 221.319 659.904 231.345 652.745C243.304 644.2 253.413 631.862 266.509 626.316C334.538 597.445 400.588 611.264 461.28 645.741C515.324 676.437 527.105 718.214 502.489 759.434C479.71 797.585 440.54 808.583 402.188 821.454C350.905 838.663 305.928 862.698 292.05 921.874C284.56 953.79 268.489 980.646 232.862 986.205C200.661 991.23 180.265 969.861 160.093 948.813C143.038 931.011 127.216 910.958 103.098 902.105C60.9889 886.662 29.7241 907.735 0 932.967V969.719C8.81767 956.848 16.9242 943.408 30.1982 934.247C69.534 907.095 103.134 913.53 132.822 952.072C152.958 978.205 174.576 1003.19 200.412 1024H297.051C282.734 963.758 309.697 917.24 350.763 876.671C376.991 850.763 413.352 841.235 445.127 824.263C487.259 801.757 522.803 772.862 532.201 722.504C539.099 685.586 512.918 667.607 488.065 648.988C470.074 635.501 447.106 626.114 443.135 599.898C442.507 595.727 444.771 591.128 445.695 586.719C447.769 587.715 450.389 588.224 451.823 589.801C455.082 593.415 457.606 597.694 460.712 601.463C480.326 625.249 505.428 642.825 529.12 662.013C561.51 688.241 560.515 719.956 534.642 765.538C500.782 825.187 444.439 854.864 388.226 885.631C346.9 908.256 308.429 972.089 331.149 1023.99H363.219C334.313 963.805 366.467 900.446 425.856 880.274C451.989 871.397 480.765 866.953 498.661 842.029C519.508 813.016 530.743 778.018 555.786 751.517C567.65 738.966 580.319 725.562 578.257 706.291C575.543 680.834 553.238 670.534 536.681 656.147C506.044 629.516 468.783 607.472 455.935 566.607C438.62 511.532 467.941 469.47 502.607 431.023C535.377 394.686 581.646 379.065 622.203 354.686C627.157 351.712 632.241 347.409 630.985 341.069L631.009 341.057ZM464.528 460.795C447.769 491.123 441.832 524.178 436.771 558.003C430.774 598.097 401.003 616.787 361.513 600.562C309.164 579.063 265.621 585.001 226.711 626.162C222.314 630.819 213.141 637.622 209.337 630.867C202.759 619.205 212.963 609.332 220.252 600.918C257.384 558.003 301.116 550.939 353.098 573.22C373.068 581.777 400.92 593.7 413.115 560.776C419.349 543.958 418.709 524.593 421.186 506.376C422.241 484.581 420.866 461.731 438.442 444.902C445.885 437.779 455.912 430.869 465.5 437.068C474.91 443.148 468.664 453.316 464.528 460.795Z" fill="white"/>
<path opacity="0.23" d="M479.887 719.944C473.013 713.319 464.077 731.132 456.919 738.8C441.512 755.286 423.675 764.815 401.441 755.606C380.594 746.966 360.351 741.882 338.259 750.415C292.796 767.979 253.84 799.528 203.944 808.37C161.278 815.919 112.307 792.453 99.0327 751.221C88.6269 718.901 97.1009 684.401 89.0062 651.643C76.0523 599.27 51.7089 555.762 0.0117188 533.232V557.552C39.0868 576.728 56.8525 612.283 66.6776 651.809C79.9633 705.272 87.6196 760.145 70.2805 813.928C59.6377 846.923 31.6439 864.061 0.0235705 874.858V895.823C72.6508 841.614 129.895 859.427 183.69 921.435C212.098 954.181 241.692 954.3 257.644 914.122C281.502 854.011 318.467 810.337 382.336 792.038C412.913 783.28 447.295 782.711 470.465 756.044C479.544 745.591 490.838 730.445 479.923 719.932L479.887 719.944ZM364.558 780.34C322.58 802.396 289.964 837.703 249.372 861.608C234.889 870.141 218.901 874.336 199.95 874.443C172.644 873.4 146.333 862.947 122.262 846.769C117.118 843.308 109.984 838.117 114.144 830.224C119.655 819.795 129.871 820.956 138.57 824.524C203.375 851.119 254.29 820.435 304.707 785.52C321.703 773.751 339.314 761.899 361.904 763.772C366.692 764.163 371.029 766.355 371.006 770.219C370.982 773.692 367.747 778.657 364.558 780.34Z" fill="white"/>
<path opacity="0.23" d="M433.772 660.021C384.789 639.115 333.021 646.664 282.13 650.623C271.771 651.429 260.88 661.017 262.918 673.52C264.269 681.805 275.457 680.525 282.035 678.925C318.906 669.989 356.025 664.43 393.844 670.415C405.056 672.193 422.324 670.866 422.276 686.842C422.229 703.47 405.874 702.202 394.14 701.17C359.427 698.101 325.223 694.308 290.876 706.207C218.842 731.167 176.496 712.738 158.599 638.629C137.456 551.092 83.91 505.511 0.0117188 489.274V503.235C0.580601 503.33 1.14948 503.437 1.69466 503.614C72.402 526.144 128.864 609.675 132.455 695.494C133.604 722.93 138.76 750.355 165.189 765.478C195.423 782.781 223.748 769.709 249.265 753.496C296.53 723.464 342.419 694.984 402.591 719.564C418.899 726.225 439.935 718.51 448.753 699.464C456.338 683.061 448.931 666.481 433.784 660.021H433.772Z" fill="white"/>
<path opacity="0.23" d="M304.198 296.815C291.315 278.03 264.281 275.731 240.756 292.418C221.568 306.036 205.532 324.88 179.672 326.563C139.104 329.194 113.184 304.163 87.513 278.291C52.6097 243.115 42.4173 241.017 0 262.706V296.969C40.2247 276.999 70.1266 302.611 102.185 321.324C159.109 354.545 195.802 350.586 251.363 307.683C259.126 301.686 269.674 293.319 277.65 302.409C287.297 313.419 279.06 325.923 270.515 334.338C232.163 372.062 185.562 373.033 136.437 363.647C103.465 357.354 77.1309 335.144 44.9891 327.286C28.4915 323.244 14.0443 328.862 0 336.234V367.7C15.6917 354.924 33.1966 344.506 53.7712 350.823C86.6479 360.909 117.925 376.423 150.991 385.62C196.833 398.361 243.636 408.138 287.44 377.004C312.044 359.511 320.541 320.661 304.186 296.839L304.198 296.815Z" fill="white"/>
<path opacity="0.23" d="M209.017 0H165.888C157.616 15.5613 148.431 30.7433 141.794 46.9802C130.499 74.5828 139.068 96.6981 163.862 113.125C173.343 119.406 184.97 124.893 185.207 138.594C185.266 141.995 181.355 147.637 178.191 148.561C163.589 152.804 151.702 145.492 141.984 135.963C102.731 97.4566 96.3308 49.789 123.163 1.87257C123.495 1.26813 123.779 0.639992 124.04 0H104.603C85.1072 41.8128 94.553 109.474 125.865 143.074C141.32 159.654 159.583 173.011 183.607 162.914C204.193 154.262 205.307 134.114 204.454 115.4C202.688 76.7398 200.081 38.1388 209.017 0Z" fill="white"/>
<path opacity="0.23" d="M263.049 0H242.936C241.858 3.10515 240.756 6.2103 239.962 9.3747C228.892 53.2142 237.911 98.4047 230.954 142.564C226.202 172.727 203.198 201.325 175.749 206.137C150.86 210.498 129.693 200.092 116.159 179.53C80.319 125.024 63.1103 65.5281 72.4139 0H51.1994C50.4764 3.68588 49.5757 7.39547 49.8364 11.0102C54.6719 76.4198 74.3576 138.689 108.585 192.958C136.295 236.916 186.617 250.13 227.067 200.91C253.627 168.602 256.909 130.286 257.229 90.713C257.478 60.42 253.342 29.6648 263.049 0Z" fill="white"/>
<path opacity="0.23" d="M39.5729 662.891C34.5833 636.343 24.2842 611.597 0 596.201V632.195C20.4798 659.229 22.9449 691.311 23.4308 723.761C23.7745 746.185 17.1731 765.929 0 780.851V835.535C15.2413 829.775 25.4338 818.077 32.4263 803.997C55.1697 758.19 48.4735 710.25 39.5729 662.891Z" fill="white"/>
<path opacity="0.23" d="M55.3949 119.607C45.8424 79.7146 22.6368 42.9743 26.2634 0H10.9865C6.90955 29.7478 20.219 55.9164 29.3093 82.879C44.6217 128.283 34.69 167.725 0 197.367V228.288C37.5107 220.193 65.8837 163.376 55.3949 119.607Z" fill="white"/>
<path opacity="0.23" d="M34.7016 1023.99C41.2319 997.108 55.4777 976.758 86.6951 978.121C113.99 979.318 125.853 1005.24 143.263 1021.83C143.974 1022.51 144.638 1023.24 145.29 1023.99H163.47C155.482 1014.01 147.672 1003.88 139.139 994.406C121.515 974.827 107.566 948.848 77.6759 946.679C37.9016 943.787 20.9181 984.344 11.5671 1024H34.6898L34.7016 1023.99Z" fill="white"/>
<path opacity="0.23" d="M10.0621 95.513C8.39101 82.7843 7.00436 69.5815 0 58.2631V158.647C0.118517 158.529 0.237034 158.398 0.319996 158.256C11.9702 138.677 12.8828 117.119 10.0502 95.5249L10.0621 95.513Z" fill="white"/>
<path opacity="0.23" d="M112.236 1023.99C106.369 1014.66 98.7128 1006.85 87.2996 1006.42C75.5309 1005.99 68.6332 1013.86 64.5325 1023.99H112.236Z" fill="white"/>
<path opacity="0.23" d="M696.869 652.153C694.486 671.352 696.003 697.272 669.29 707.654C652.117 714.327 655.98 698.054 654.665 689.225C651.145 665.64 637.231 649.344 618.766 635.868C611.975 630.914 600.893 627.157 602.802 617.32C605.433 603.821 618.292 598.014 629.942 593.783C671.257 578.791 696.88 599.934 696.88 652.153H696.869Z" fill="white"/>
<path opacity="0.23" d="M420.108 330.651C420.913 351.557 414.786 368.102 392.327 373.992C378.449 377.631 375.83 367.687 376.055 358.111C376.683 330.094 378.176 302.076 380.049 274.106C380.511 267.232 382.597 258.711 391.509 258.272C404.286 257.644 407.308 269.022 410.721 277.91C417.192 294.764 420.309 312.47 420.096 330.651H420.108Z" fill="white"/>
<path opacity="0.23" d="M479.543 183.039C456.124 168.449 426.708 154.654 403.159 134.103C382.193 115.816 388.593 71.6565 409.654 62.9455C429.932 54.5664 442.898 70.7558 456.824 81.0075C472.918 92.8474 489.511 97.517 509.777 94.1155C538.15 89.3511 545.498 99.4369 536.597 131.045C529.261 157.06 514.02 176.603 479.531 183.039H479.543Z" fill="white"/>
<path opacity="0.23" d="M520.539 983.858C499.324 982.661 496.717 971.65 504.966 955.817C516.249 934.152 527.994 912.724 540.142 891.521C543.804 885.121 548.841 877.145 557.457 879.136C567.59 881.483 571.181 891.853 570.612 900.398C569.143 922.928 570.873 946.679 555.893 966.128C546.944 977.742 534.145 982.518 520.539 983.846V983.858Z" fill="white"/>
</g>
<defs>
<linearGradient id="paint0_linear_1_2" x1="0" y1="0" x2="958.975" y2="664.915" gradientUnits="userSpaceOnUse">
<stop stop-color="#03BFD7"/>
<stop offset="1" stop-color="#60C3AD"/>
</linearGradient>
<clipPath id="clip0_1_2">
<rect width="710" height="1024" fill="white"/>
</clipPath>
</defs>
</svg>
