<svg width="260" height="224" viewBox="0 0 260 224" fill="none" xmlns="http://www.w3.org/2000/svg">
<g filter="url(#filter0_d_0_35)">
<path fill-rule="evenodd" clip-rule="evenodd" d="M121.018 162.581C119.56 163.045 118.095 163.485 116.623 163.891C95.9142 169.627 74.0126 169.429 54.5398 159.553C54.4109 159.488 54.3034 159.431 54.1816 159.359L54.1458 159.337C54.0527 159.283 53.9774 159.236 53.8879 159.182C39.4409 150.027 27.1289 137.404 22.2141 120.591C19.574 111.558 19.3663 102.168 21.2111 92.9621C23.0667 83.7093 26.9104 74.9318 31.9075 66.9679C46.9599 42.9756 73.5756 24.3477 100.524 16.2974C126.56 8.51716 154.397 7.14545 180.157 16.751C203.674 25.5214 224.812 43.602 234.377 67.2524C239.403 79.677 241.004 92.4436 236.888 105.372C233.796 115.079 228.223 122.841 222.23 130.884C218.701 135.618 213.532 142.178 212.353 148.068C210.068 159.492 224.447 171.643 232.034 177.745L232.822 178.379C235.19 180.284 236.146 183.247 235.348 186.184C234.549 189.122 232.224 191.182 229.222 191.61L228.223 191.754C196.234 196.323 159.509 189.922 132.442 171.632C128.419 168.914 124.575 165.9 121.022 162.581H121.018ZM208.399 177.353C200.299 168.345 194.346 157.479 196.803 145.109C198.587 136.133 204.283 128.573 209.624 121.404C214.406 114.981 219.378 108.339 221.846 100.613C224.837 91.2519 223.415 82.1828 219.786 73.2145C211.898 53.7045 194.023 38.8064 174.676 31.5915C152.162 23.1992 127.724 24.6789 105.006 31.4654C81.7179 38.4248 58.2295 54.6693 45.2154 75.4106C41.2499 81.7328 38.1083 88.7389 36.636 96.0907C35.2963 102.776 35.393 109.574 37.3131 116.137C41.0636 128.972 51.0078 138.596 61.9586 145.598C76.9321 153.073 93.7398 153.289 109.709 149.357C104.891 142.095 101.588 134.009 100.356 125.314C98.0742 109.199 103.268 93.855 112.12 80.5519C120.728 65.9599 134.315 54.2841 150.829 49.9674C156.439 48.502 162.307 47.9368 168.081 48.5236C173.651 49.0925 179.082 50.7378 183.918 53.5965C192.046 58.4029 197.426 66.0211 199.855 75.1478C202.416 84.7786 199.719 94.9494 195.367 103.619C188.428 117.44 176.388 129.951 164.32 139.384C156.113 145.796 147.115 151.431 137.654 155.96C138.822 156.842 140.015 157.692 141.225 158.509C160.218 171.34 184.942 177.443 208.406 177.357L208.399 177.353ZM125.385 144.133C135.827 139.762 145.775 133.825 154.651 126.888C164.811 118.949 175.46 108.141 181.31 96.4868C183.76 91.6048 186.175 84.8038 184.663 79.2918C184.649 79.2342 184.634 79.1838 184.62 79.1333C183.295 74.0569 180.461 69.9058 175.937 67.2308C173.064 65.5314 169.797 64.599 166.494 64.2605C162.586 63.8609 158.588 64.2821 154.795 65.2758C142.271 68.5485 132.033 77.7328 125.568 88.7785C125.535 88.8361 125.507 88.8829 125.471 88.9369L125.457 88.9586C125.406 89.0378 125.367 89.1026 125.313 89.1782C118.607 99.205 114.212 110.856 115.942 123.082C116.927 130.045 119.797 136.439 123.877 142.128C124.364 142.808 124.869 143.478 125.388 144.133H125.385Z" fill="white"/>
</g>
<defs>
<filter id="filter0_d_0_35" x="0" y="0" width="259.231" height="223.173" filterUnits="userSpaceOnUse" color-interpolation-filters="sRGB">
<feFlood flood-opacity="0" result="BackgroundImageFix"/>
<feColorMatrix in="SourceAlpha" type="matrix" values="0 0 0 0 0 0 0 0 0 0 0 0 0 0 0 0 0 0 127 0" result="hardAlpha"/>
<feOffset dy="10"/>
<feGaussianBlur stdDeviation="10"/>
<feComposite in2="hardAlpha" operator="out"/>
<feColorMatrix type="matrix" values="0 0 0 0 0 0 0 0 0 0.701961 0 0 0 0 0.788235 0 0 0 0.1 0"/>
<feBlend mode="normal" in2="BackgroundImageFix" result="effect1_dropShadow_0_35"/>
<feBlend mode="normal" in="SourceGraphic" in2="effect1_dropShadow_0_35" result="shape"/>
</filter>
</defs>
</svg>
