<svg width="260" height="318" viewBox="0 0 260 318" fill="none" xmlns="http://www.w3.org/2000/svg">
<g filter="url(#filter0_d_0_33)">
<g filter="url(#filter1_d_0_33)">
<path fill-rule="evenodd" clip-rule="evenodd" d="M121.018 162.581C119.56 163.045 118.095 163.485 116.623 163.891C95.9142 169.627 74.0126 169.429 54.5398 159.553C54.4109 159.488 54.3034 159.431 54.1816 159.359L54.1458 159.337C54.0527 159.283 53.9774 159.236 53.8879 159.182C39.4409 150.027 27.1289 137.404 22.2141 120.591C19.574 111.558 19.3663 102.168 21.2111 92.9621C23.0667 83.7093 26.9104 74.9318 31.9075 66.9679C46.9599 42.9756 73.5756 24.3477 100.524 16.2974C126.56 8.51716 154.397 7.14545 180.157 16.751C203.674 25.5214 224.812 43.602 234.377 67.2524C239.403 79.677 241.004 92.4436 236.888 105.372C233.796 115.079 228.223 122.841 222.23 130.884C218.701 135.618 213.532 142.178 212.353 148.068C210.068 159.492 224.447 171.643 232.034 177.745L232.822 178.379C235.19 180.284 236.146 183.247 235.348 186.184C234.549 189.122 232.224 191.182 229.222 191.61L228.223 191.754C196.234 196.323 159.509 189.922 132.442 171.632C128.419 168.914 124.575 165.9 121.022 162.581H121.018ZM208.399 177.353C200.299 168.345 194.346 157.479 196.803 145.109C198.587 136.133 204.283 128.573 209.624 121.404C214.406 114.981 219.378 108.339 221.846 100.613C224.837 91.2519 223.415 82.1828 219.786 73.2145C211.898 53.7045 194.023 38.8064 174.676 31.5915C152.162 23.1992 127.724 24.6789 105.006 31.4654C81.7179 38.4248 58.2295 54.6693 45.2154 75.4106C41.2499 81.7328 38.1083 88.7389 36.636 96.0907C35.2963 102.776 35.393 109.574 37.3131 116.137C41.0636 128.972 51.0078 138.596 61.9586 145.598C76.9321 153.073 93.7398 153.289 109.709 149.357C104.891 142.095 101.588 134.009 100.356 125.314C98.0742 109.199 103.268 93.855 112.12 80.5519C120.728 65.9599 134.315 54.2841 150.829 49.9674C156.439 48.502 162.307 47.9368 168.081 48.5236C173.651 49.0925 179.082 50.7378 183.918 53.5965C192.046 58.4029 197.426 66.0211 199.855 75.1478C202.416 84.7786 199.719 94.9494 195.367 103.619C188.428 117.44 176.388 129.951 164.32 139.384C156.113 145.796 147.115 151.431 137.654 155.96C138.822 156.842 140.015 157.692 141.225 158.509C160.218 171.34 184.942 177.443 208.406 177.357L208.399 177.353ZM125.385 144.133C135.827 139.762 145.775 133.825 154.651 126.888C164.811 118.949 175.46 108.141 181.31 96.4868C183.76 91.6048 186.175 84.8038 184.663 79.2918C184.649 79.2342 184.634 79.1838 184.62 79.1333C183.295 74.0569 180.461 69.9058 175.937 67.2308C173.064 65.5314 169.797 64.599 166.494 64.2605C162.586 63.8609 158.588 64.2821 154.795 65.2758C142.271 68.5485 132.033 77.7328 125.568 88.7785C125.535 88.8361 125.507 88.8829 125.471 88.9369L125.457 88.9586C125.406 89.0378 125.367 89.1026 125.313 89.1782C118.607 99.205 114.212 110.856 115.942 123.082C116.927 130.045 119.797 136.439 123.877 142.128C124.364 142.808 124.869 143.478 125.388 144.133H125.385Z" fill="white"/>
</g>
<path d="M44.686 216.651H51.8006V247.367H44.686V216.651ZM30.7203 247.367H23.6058V216.651H30.7203V247.367ZM45.213 234.774H30.1933V228.762H45.213V234.774Z" fill="white"/>
<path d="M70.3168 247.718C67.6232 247.718 65.2517 247.192 63.2022 246.139C61.182 245.086 59.6156 243.652 58.5031 241.838C57.3905 239.995 56.8342 237.904 56.8342 235.563C56.8342 233.194 57.3759 231.102 58.4592 229.288C59.5717 227.445 61.0796 226.012 62.9826 224.988C64.8857 223.935 67.0376 223.408 69.4384 223.408C71.7514 223.408 73.8302 223.906 75.6747 224.9C77.5485 225.866 79.027 227.27 80.1103 229.113C81.1936 230.927 81.7352 233.106 81.7352 235.651C81.7352 235.914 81.7206 236.222 81.6913 236.573C81.662 236.894 81.6328 237.202 81.6035 237.494H62.4117V233.501H78.0023L75.3673 234.686C75.3673 233.457 75.1184 232.389 74.6207 231.482C74.1229 230.576 73.4349 229.873 72.5566 229.376C71.6782 228.85 70.6535 228.586 69.4824 228.586C68.3112 228.586 67.2719 228.85 66.3642 229.376C65.4859 229.873 64.7979 230.59 64.3001 231.526C63.8024 232.433 63.5535 233.516 63.5535 234.774V235.827C63.5535 237.114 63.8317 238.255 64.388 239.249C64.9735 240.215 65.7787 240.961 66.8034 241.487C67.8574 241.985 69.0871 242.233 70.4925 242.233C71.7514 242.233 72.8493 242.043 73.7862 241.663C74.7524 241.283 75.6308 240.712 76.4213 239.951L80.0664 243.901C78.9831 245.129 77.6217 246.08 75.9821 246.753C74.3425 247.397 72.4541 247.718 70.3168 247.718Z" fill="white"/>
<path d="M100.146 247.367V242.76L99.7066 241.751V233.501C99.7066 232.038 99.2528 230.897 98.3452 230.078C97.4668 229.259 96.1054 228.85 94.2609 228.85C93.0019 228.85 91.7576 229.054 90.5279 229.464C89.3275 229.844 88.3028 230.371 87.4537 231.044L84.9944 226.261C86.2826 225.354 87.8344 224.652 89.6496 224.154C91.4648 223.657 93.3093 223.408 95.1831 223.408C98.7843 223.408 101.58 224.257 103.571 225.953C105.562 227.65 106.558 230.298 106.558 233.896V247.367H100.146ZM92.9434 247.718C91.0989 247.718 89.5178 247.411 88.2003 246.797C86.8828 246.153 85.8727 245.29 85.17 244.208C84.4674 243.126 84.116 241.911 84.116 240.566C84.116 239.162 84.4527 237.933 85.1261 236.88C85.8288 235.827 86.9267 235.008 88.4199 234.422C89.9131 233.808 91.8601 233.501 94.2609 233.501H100.541V237.494H95.0075C93.3972 237.494 92.2846 237.757 91.6698 238.284C91.0842 238.811 90.7914 239.469 90.7914 240.259C90.7914 241.136 91.1281 241.838 91.8015 242.365C92.5042 242.862 93.4557 243.111 94.6561 243.111C95.798 243.111 96.8227 242.848 97.7303 242.321C98.638 241.765 99.2967 240.961 99.7066 239.908L100.761 243.067C100.263 244.588 99.3553 245.744 98.0378 246.534C96.7202 247.323 95.0221 247.718 92.9434 247.718Z" fill="white"/>
<path d="M112.758 247.367V214.808H119.609V247.367H112.758Z" fill="white"/>
<path d="M137.388 247.718C134.606 247.718 132.44 247.016 130.888 245.612C129.336 244.179 128.561 242.058 128.561 239.249V218.538H135.412V239.162C135.412 240.156 135.675 240.931 136.202 241.487C136.729 242.014 137.446 242.277 138.354 242.277C139.437 242.277 140.36 241.985 141.121 241.4L142.965 246.226C142.263 246.724 141.414 247.104 140.418 247.367C139.452 247.601 138.442 247.718 137.388 247.718ZM124.915 229.552V224.286H141.296V229.552H124.915Z" fill="white"/>
<path d="M161.172 223.408C163.046 223.408 164.715 223.789 166.179 224.549C167.672 225.281 168.843 226.422 169.692 227.972C170.541 229.493 170.966 231.453 170.966 233.852V247.367H164.115V234.905C164.115 233.004 163.69 231.599 162.841 230.693C162.021 229.786 160.85 229.332 159.328 229.332C158.244 229.332 157.263 229.566 156.385 230.034C155.536 230.473 154.863 231.161 154.365 232.097C153.896 233.033 153.662 234.232 153.662 235.695V247.367H146.811V214.808H153.662V230.298L152.125 228.323C152.974 226.743 154.189 225.529 155.77 224.681C157.351 223.833 159.152 223.408 161.172 223.408Z" fill="white"/>
<path d="M179.733 256.231C178.504 256.231 177.288 256.041 176.088 255.661C174.888 255.281 173.907 254.754 173.146 254.081L175.649 249.21C176.176 249.678 176.776 250.044 177.45 250.307C178.152 250.571 178.84 250.702 179.514 250.702C180.48 250.702 181.241 250.468 181.797 250C182.383 249.561 182.91 248.815 183.378 247.762L184.608 244.866L185.135 244.12L193.611 223.759H200.199L189.527 248.815C188.766 250.717 187.887 252.209 186.892 253.291C185.926 254.374 184.842 255.134 183.642 255.573C182.471 256.012 181.168 256.231 179.733 256.231ZM183.774 248.289L173.233 223.759H180.304L188.473 243.506L183.774 248.289Z" fill="white"/>
<path d="M23.6058 301.487V270.77H29.4907L42.578 292.448H39.4599L52.3276 270.77H58.1686L58.2564 301.487H51.581L51.5371 280.995H52.7668L42.4901 298.24H39.2842L28.788 280.995H30.2812V301.487H23.6058Z" fill="white"/>
<path d="M65.067 301.487V277.879H71.918V301.487H65.067ZM68.4925 274.588C67.2336 274.588 66.2088 274.222 65.4183 273.491C64.6278 272.76 64.2325 271.853 64.2325 270.77C64.2325 269.688 64.6278 268.781 65.4183 268.05C66.2088 267.319 67.2336 266.953 68.4925 266.953C69.7515 266.953 70.7762 267.304 71.5667 268.006C72.3572 268.679 72.7525 269.556 72.7525 270.639C72.7525 271.78 72.3572 272.73 71.5667 273.491C70.8055 274.222 69.7807 274.588 68.4925 274.588Z" fill="white"/>
<path d="M92.6373 277.528C94.5111 277.528 96.18 277.908 97.6439 278.669C99.1371 279.4 100.308 280.541 101.157 282.092C102.006 283.613 102.431 285.573 102.431 287.972V301.487H95.5798V289.025C95.5798 287.123 95.1552 285.719 94.3062 284.812C93.4864 283.905 92.3153 283.452 90.7928 283.452C89.7095 283.452 88.7287 283.686 87.8504 284.154C87.0013 284.593 86.3279 285.28 85.8302 286.217C85.3617 287.153 85.1275 288.352 85.1275 289.815V301.487H78.2764V277.879H84.8201V284.417L83.5904 282.443C84.4395 280.863 85.6545 279.649 87.2355 278.801C88.8165 277.952 90.6171 277.528 92.6373 277.528Z" fill="white"/>
<path d="M118.957 301.838C116.732 301.838 114.727 301.341 112.941 300.346C111.155 299.322 109.735 297.903 108.681 296.09C107.656 294.276 107.144 292.14 107.144 289.683C107.144 287.197 107.656 285.046 108.681 283.233C109.735 281.419 111.155 280.015 112.941 279.02C114.727 278.025 116.732 277.528 118.957 277.528C120.948 277.528 122.69 277.967 124.184 278.845C125.677 279.722 126.833 281.053 127.653 282.838C128.473 284.622 128.883 286.904 128.883 289.683C128.883 292.433 128.487 294.715 127.697 296.529C126.906 298.313 125.765 299.644 124.271 300.522C122.807 301.399 121.036 301.838 118.957 301.838ZM120.143 296.221C121.256 296.221 122.266 295.958 123.173 295.432C124.081 294.905 124.798 294.159 125.325 293.194C125.882 292.199 126.16 291.029 126.16 289.683C126.16 288.308 125.882 287.138 125.325 286.173C124.798 285.207 124.081 284.461 123.173 283.935C122.266 283.408 121.256 283.145 120.143 283.145C119.001 283.145 117.977 283.408 117.069 283.935C116.161 284.461 115.429 285.207 114.873 286.173C114.346 287.138 114.083 288.308 114.083 289.683C114.083 291.029 114.346 292.199 114.873 293.194C115.429 294.159 116.161 294.905 117.069 295.432C117.977 295.958 119.001 296.221 120.143 296.221ZM126.335 301.487V296.66L126.467 289.639L126.028 282.662V268.927H132.879V301.487H126.335Z" fill="white"/>
<path d="M152.141 301.487V270.77H158.025L171.113 292.448H167.995L180.862 270.77H186.703L186.791 301.487H180.116L180.072 280.995H181.302L171.025 298.24H167.819L157.323 280.995H158.816V301.487H152.141Z" fill="white"/>
<path d="M208.094 301.487V296.88L207.655 295.87V287.621C207.655 286.158 207.201 285.017 206.294 284.198C205.415 283.379 204.054 282.969 202.21 282.969C200.951 282.969 199.706 283.174 198.477 283.584C197.276 283.964 196.251 284.491 195.402 285.163L192.943 280.38C194.231 279.474 195.783 278.771 197.598 278.274C199.413 277.777 201.258 277.528 203.132 277.528C206.733 277.528 209.529 278.376 211.52 280.073C213.511 281.77 214.506 284.417 214.506 288.016V301.487H208.094ZM200.892 301.838C199.048 301.838 197.466 301.531 196.149 300.917C194.831 300.273 193.821 299.41 193.119 298.328C192.416 297.245 192.065 296.031 192.065 294.686C192.065 293.281 192.401 292.053 193.075 291C193.777 289.946 194.875 289.127 196.369 288.542C197.862 287.928 199.809 287.621 202.21 287.621H208.49V291.614H202.956C201.346 291.614 200.233 291.877 199.618 292.404C199.033 292.93 198.74 293.589 198.74 294.378C198.74 295.256 199.077 295.958 199.75 296.485C200.453 296.982 201.404 297.231 202.605 297.231C203.747 297.231 204.771 296.967 205.679 296.441C206.587 295.885 207.245 295.08 207.655 294.027L208.709 297.187C208.212 298.708 207.304 299.864 205.986 300.653C204.669 301.443 202.971 301.838 200.892 301.838Z" fill="white"/>
<path d="M234.673 301.838C232.682 301.838 230.94 301.399 229.446 300.522C227.953 299.644 226.782 298.313 225.933 296.529C225.113 294.715 224.703 292.433 224.703 289.683C224.703 286.904 225.099 284.622 225.889 282.838C226.68 281.053 227.821 279.722 229.315 278.845C230.808 277.967 232.594 277.528 234.673 277.528C236.898 277.528 238.889 278.04 240.645 279.064C242.431 280.059 243.837 281.463 244.861 283.277C245.915 285.09 246.442 287.226 246.442 289.683C246.442 292.17 245.915 294.32 244.861 296.134C243.837 297.947 242.431 299.352 240.645 300.346C238.889 301.341 236.898 301.838 234.673 301.838ZM220.707 310V277.879H227.251V282.706L227.119 289.727L227.558 296.704V310H220.707ZM233.487 296.221C234.629 296.221 235.639 295.958 236.517 295.432C237.425 294.905 238.142 294.159 238.669 293.194C239.225 292.199 239.503 291.029 239.503 289.683C239.503 288.308 239.225 287.138 238.669 286.173C238.142 285.207 237.425 284.461 236.517 283.935C235.639 283.408 234.629 283.145 233.487 283.145C232.345 283.145 231.32 283.408 230.413 283.935C229.505 284.461 228.788 285.207 228.261 286.173C227.734 287.138 227.47 288.308 227.47 289.683C227.47 291.029 227.734 292.199 228.261 293.194C228.788 294.159 229.505 294.905 230.413 295.432C231.32 295.958 232.345 296.221 233.487 296.221Z" fill="white"/>
</g>
<defs>
<filter id="filter0_d_0_33" x="16" y="10" width="234.442" height="308" filterUnits="userSpaceOnUse" color-interpolation-filters="sRGB">
<feFlood flood-opacity="0" result="BackgroundImageFix"/>
<feColorMatrix in="SourceAlpha" type="matrix" values="0 0 0 0 0 0 0 0 0 0 0 0 0 0 0 0 0 0 127 0" result="hardAlpha"/>
<feOffset dy="4"/>
<feGaussianBlur stdDeviation="2"/>
<feComposite in2="hardAlpha" operator="out"/>
<feColorMatrix type="matrix" values="0 0 0 0 0 0 0 0 0 0 0 0 0 0 0 0 0 0 0.25 0"/>
<feBlend mode="normal" in2="BackgroundImageFix" result="effect1_dropShadow_0_33"/>
<feBlend mode="normal" in="SourceGraphic" in2="effect1_dropShadow_0_33" result="shape"/>
</filter>
<filter id="filter1_d_0_33" x="0" y="0" width="259.231" height="223.173" filterUnits="userSpaceOnUse" color-interpolation-filters="sRGB">
<feFlood flood-opacity="0" result="BackgroundImageFix"/>
<feColorMatrix in="SourceAlpha" type="matrix" values="0 0 0 0 0 0 0 0 0 0 0 0 0 0 0 0 0 0 127 0" result="hardAlpha"/>
<feOffset dy="10"/>
<feGaussianBlur stdDeviation="10"/>
<feComposite in2="hardAlpha" operator="out"/>
<feColorMatrix type="matrix" values="0 0 0 0 0 0 0 0 0 0.701961 0 0 0 0 0.788235 0 0 0 0.1 0"/>
<feBlend mode="normal" in2="BackgroundImageFix" result="effect1_dropShadow_0_33"/>
<feBlend mode="normal" in="SourceGraphic" in2="effect1_dropShadow_0_33" result="shape"/>
</filter>
</defs>
</svg>
