<svg width="224" height="96" viewBox="0 0 224 96" fill="none" xmlns="http://www.w3.org/2000/svg">
<path d="M21.6859 2.65061H28.8005V33.3673H21.6859V2.65061ZM7.72029 33.3673H0.605713V2.65061H7.72029V33.3673ZM22.2129 20.7734H7.19328V14.7617H22.2129V20.7734Z" fill="white"/>
<path d="M47.3167 33.7183C44.6231 33.7183 42.2516 33.1917 40.2021 32.1386C38.182 31.0854 36.6156 29.652 35.503 27.8383C34.3904 25.9953 33.8342 23.9036 33.8342 21.5633C33.8342 19.1937 34.3758 17.1021 35.4591 15.2883C36.5717 13.4453 38.0795 12.0119 39.9826 10.988C41.8856 9.93485 44.0376 9.40828 46.4384 9.40828C48.7514 9.40828 50.8301 9.90559 52.6746 10.9002C54.5484 11.8656 56.027 13.2698 57.1102 15.1128C58.1935 16.9265 58.7352 19.106 58.7352 21.651C58.7352 21.9143 58.7205 22.2215 58.6913 22.5725C58.662 22.8943 58.6327 23.2015 58.6034 23.494H39.4116V19.5009H55.0022L52.3672 20.6857C52.3672 19.457 52.1183 18.3892 51.6206 17.4824C51.1229 16.5755 50.4348 15.8734 49.5565 15.3761C48.6782 14.8495 47.6534 14.5862 46.4823 14.5862C45.3112 14.5862 44.2718 14.8495 43.3642 15.3761C42.4858 15.8734 41.7978 16.5901 41.3001 17.5262C40.8023 18.4331 40.5535 19.5155 40.5535 20.7734V21.8266C40.5535 23.1137 40.8316 24.2546 41.3879 25.2493C41.9735 26.2147 42.7786 26.9606 43.8034 27.4872C44.8574 27.9845 46.087 28.2332 47.4924 28.2332C48.7514 28.2332 49.8493 28.043 50.7862 27.6627C51.7524 27.2824 52.6307 26.712 53.4212 25.9514L57.0663 29.9007C55.983 31.1293 54.6216 32.0801 52.982 32.7529C51.3425 33.3965 49.454 33.7183 47.3167 33.7183Z" fill="white"/>
<path d="M77.1457 33.3673V28.7598L76.7066 27.7505V19.5009C76.7066 18.0382 76.2527 16.8973 75.3451 16.0782C74.4668 15.2591 73.1053 14.8495 71.2608 14.8495C70.0019 14.8495 68.7575 15.0543 67.5279 15.4638C66.3275 15.8441 65.3027 16.3707 64.4537 17.0436L61.9943 12.2605C63.2825 11.3537 64.8343 10.6516 66.6495 10.1542C68.4648 9.65693 70.3093 9.40828 72.1831 9.40828C75.7843 9.40828 78.5803 10.2566 80.5713 11.9534C82.5622 13.6501 83.5576 16.2976 83.5576 19.8958V33.3673H77.1457ZM69.9433 33.7183C68.0988 33.7183 66.5178 33.4111 65.2003 32.7968C63.8827 32.1532 62.8727 31.2902 62.17 30.2078C61.4673 29.1254 61.116 27.9114 61.116 26.5657C61.116 25.1615 61.4527 23.9329 62.1261 22.8797C62.8287 21.8266 63.9267 21.0075 65.4198 20.4224C66.913 19.8081 68.86 19.5009 71.2608 19.5009H77.541V23.494H72.0074C70.3971 23.494 69.2846 23.7573 68.6697 24.2839C68.0842 24.8105 67.7914 25.4687 67.7914 26.2585C67.7914 27.1362 68.1281 27.8383 68.8015 28.3648C69.5041 28.8621 70.4557 29.1108 71.6561 29.1108C72.7979 29.1108 73.8227 28.8475 74.7303 28.3209C75.6379 27.7651 76.2967 26.9606 76.7066 25.9075L77.7606 29.0669C77.2628 30.5881 76.3552 31.7437 75.0377 32.5335C73.7202 33.3234 72.0221 33.7183 69.9433 33.7183Z" fill="white"/>
<path d="M89.7582 33.3673V0.807617H96.6092V33.3673H89.7582Z" fill="white"/>
<path d="M114.388 33.7183C111.606 33.7183 109.44 33.0162 107.888 31.612C106.336 30.1786 105.56 28.0577 105.56 25.2493V4.5375H112.412V25.1615C112.412 26.1562 112.675 26.9314 113.202 27.4872C113.729 28.0138 114.446 28.2771 115.354 28.2771C116.437 28.2771 117.36 27.9845 118.121 27.3994L119.965 32.2263C119.263 32.7237 118.414 33.104 117.418 33.3673C116.452 33.6013 115.442 33.7183 114.388 33.7183ZM101.915 15.5516V10.2859H118.296V15.5516H101.915Z" fill="white"/>
<path d="M138.172 9.40828C140.046 9.40828 141.715 9.78858 143.179 10.5492C144.672 11.2805 145.843 12.4214 146.692 13.9719C147.541 15.4931 147.966 17.4531 147.966 19.8519V33.3673H141.114V20.9051C141.114 19.0036 140.69 17.5994 139.841 16.6925C139.021 15.7856 137.85 15.3322 136.327 15.3322C135.244 15.3322 134.263 15.5662 133.385 16.0343C132.536 16.4731 131.863 17.1606 131.365 18.0967C130.896 19.0328 130.662 20.2322 130.662 21.6949V33.3673H123.811V0.807617H130.662V16.2976L129.125 14.3229C129.974 12.7432 131.189 11.5292 132.77 10.6808C134.351 9.83246 136.152 9.40828 138.172 9.40828Z" fill="white"/>
<path d="M156.733 42.2312C155.503 42.2312 154.288 42.041 153.088 41.6607C151.888 41.2804 150.907 40.7539 150.146 40.081L152.649 35.2102C153.176 35.6783 153.776 36.044 154.449 36.3073C155.152 36.5706 155.84 36.7022 156.514 36.7022C157.48 36.7022 158.241 36.4682 158.797 36.0001C159.383 35.5613 159.91 34.8153 160.378 33.7622L161.608 30.866L162.135 30.1201L170.611 9.75932H177.199L166.527 34.8153C165.765 36.7168 164.887 38.2088 163.892 39.2912C162.925 40.3736 161.842 41.1342 160.642 41.573C159.471 42.0118 158.168 42.2312 156.733 42.2312ZM160.774 34.2887L150.233 9.75932H157.304L165.473 29.5057L160.774 34.2887Z" fill="white"/>
<path d="M0.605713 87.487V56.7704H6.49061L19.5779 78.4476H16.4598L29.3275 56.7704H35.1685L35.2563 87.487H28.5809L28.537 66.9946H29.7667L19.4901 84.2398H16.2841L5.78793 66.9946H7.28112V87.487H0.605713Z" fill="white"/>
<path d="M42.0669 87.487V63.8791H48.918V87.487H42.0669ZM45.4925 60.588C44.2335 60.588 43.2088 60.2224 42.4183 59.491C41.6277 58.7597 41.2325 57.8528 41.2325 56.7704C41.2325 55.688 41.6277 54.7811 42.4183 54.0498C43.2088 53.3184 44.2335 52.9528 45.4925 52.9528C46.7514 52.9528 47.7761 53.3038 48.5666 54.0059C49.3572 54.6787 49.7524 55.5564 49.7524 56.6388C49.7524 57.7797 49.3572 58.7304 48.5666 59.491C47.8054 60.2224 46.7807 60.588 45.4925 60.588Z" fill="white"/>
<path d="M69.6373 63.5281C71.5111 63.5281 73.1799 63.9084 74.6438 64.669C76.137 65.4003 77.3081 66.5412 78.1572 68.0917C79.0063 69.6129 79.4308 71.5729 79.4308 73.9717V87.487H72.5797V75.0249C72.5797 73.1234 72.1552 71.7192 71.3061 70.8123C70.4863 69.9054 69.3152 69.452 67.7927 69.452C66.7095 69.452 65.7286 69.686 64.8503 70.1541C64.0012 70.5929 63.3278 71.2803 62.8301 72.2165C62.3617 73.1526 62.1274 74.352 62.1274 75.8147V87.487H55.2764V63.8791H61.82V70.4174L60.5903 68.4427C61.4394 66.863 62.6544 65.649 64.2355 64.8006C65.8165 63.9522 67.6171 63.5281 69.6373 63.5281Z" fill="white"/>
<path d="M95.9573 87.8381C93.7322 87.8381 91.7267 87.3408 89.9407 86.3461C88.1547 85.3222 86.7347 83.9034 85.6807 82.0897C84.656 80.2759 84.1436 78.1404 84.1436 75.6831C84.1436 73.1965 84.656 71.0463 85.6807 69.2326C86.7347 67.4188 88.1547 66.0146 89.9407 65.02C91.7267 64.0254 93.7322 63.5281 95.9573 63.5281C97.9483 63.5281 99.6903 63.9669 101.183 64.8445C102.677 65.7221 103.833 67.0532 104.653 68.8376C105.473 70.6221 105.883 72.9039 105.883 75.6831C105.883 78.4329 105.487 80.7147 104.697 82.5285C103.906 84.313 102.765 85.644 101.271 86.5217C99.8074 87.3993 98.0361 87.8381 95.9573 87.8381ZM97.1431 82.2213C98.2557 82.2213 99.2658 81.958 100.173 81.4315C101.081 80.9049 101.798 80.1589 102.325 79.1935C102.882 78.1989 103.16 77.0287 103.16 75.6831C103.16 74.3081 102.882 73.138 102.325 72.1726C101.798 71.2072 101.081 70.4612 100.173 69.9347C99.2658 69.4081 98.2557 69.1448 97.1431 69.1448C96.0013 69.1448 94.9765 69.4081 94.0689 69.9347C93.1613 70.4612 92.4293 71.2072 91.8731 72.1726C91.346 73.138 91.0825 74.3081 91.0825 75.6831C91.0825 77.0287 91.346 78.1989 91.8731 79.1935C92.4293 80.1589 93.1613 80.9049 94.0689 81.4315C94.9765 81.958 96.0013 82.2213 97.1431 82.2213ZM103.335 87.487V82.6601L103.467 75.6392L103.028 68.6621V54.9274H109.879V87.487H103.335Z" fill="white"/>
<path d="M129.141 87.487V56.7704H135.025L148.113 78.4476H144.995L157.862 56.7704H163.703L163.791 87.487H157.116L157.072 66.9946H158.301L148.025 84.2398H144.819L134.323 66.9946H135.816V87.487H129.141Z" fill="white"/>
<path d="M185.094 87.487V82.8795L184.655 81.8703V73.6207C184.655 72.158 184.201 71.0171 183.294 70.198C182.415 69.3788 181.054 68.9693 179.209 68.9693C177.951 68.9693 176.706 69.1741 175.477 69.5836C174.276 69.9639 173.251 70.4905 172.402 71.1633L169.943 66.3803C171.231 65.4734 172.783 64.7713 174.598 64.274C176.413 63.7767 178.258 63.5281 180.132 63.5281C183.733 63.5281 186.529 64.3764 188.52 66.0731C190.511 67.7699 191.506 70.4174 191.506 74.0156V87.487H185.094ZM177.892 87.8381C176.047 87.8381 174.466 87.5309 173.149 86.9166C171.831 86.273 170.821 85.41 170.119 84.3276C169.416 83.2452 169.065 82.0312 169.065 80.6855C169.065 79.2813 169.401 78.0526 170.075 76.9995C170.777 75.9464 171.875 75.1272 173.368 74.5422C174.862 73.9278 176.809 73.6207 179.209 73.6207H185.49V77.6138H179.956C178.346 77.6138 177.233 77.8771 176.618 78.4037C176.033 78.9303 175.74 79.5885 175.74 80.3783C175.74 81.2559 176.077 81.958 176.75 82.4846C177.453 82.9819 178.404 83.2306 179.605 83.2306C180.747 83.2306 181.771 82.9673 182.679 82.4407C183.587 81.8849 184.245 81.0804 184.655 80.0273L185.709 83.1867C185.211 84.7079 184.304 85.8634 182.986 86.6533C181.669 87.4432 179.971 87.8381 177.892 87.8381Z" fill="white"/>
<path d="M211.672 87.8381C209.682 87.8381 207.939 87.3993 206.446 86.5217C204.953 85.644 203.782 84.313 202.933 82.5285C202.113 80.7147 201.703 78.4329 201.703 75.6831C201.703 72.9039 202.099 70.6221 202.889 68.8376C203.68 67.0532 204.821 65.7221 206.315 64.8445C207.808 63.9669 209.594 63.5281 211.672 63.5281C213.898 63.5281 215.888 64.04 217.645 65.0639C219.431 66.0585 220.837 67.4627 221.861 69.2765C222.915 71.0902 223.442 73.2257 223.442 75.6831C223.442 78.1697 222.915 80.3198 221.861 82.1336C220.837 83.9473 219.431 85.3515 217.645 86.3461C215.888 87.3408 213.898 87.8381 211.672 87.8381ZM197.707 95.9999V63.8791H204.25V68.706L204.119 75.727L204.558 82.704V95.9999H197.707ZM210.487 82.2213C211.629 82.2213 212.639 81.958 213.517 81.4315C214.425 80.9049 215.142 80.1589 215.669 79.1935C216.225 78.1989 216.503 77.0287 216.503 75.6831C216.503 74.3081 216.225 73.138 215.669 72.1726C215.142 71.2072 214.425 70.4612 213.517 69.9347C212.639 69.4081 211.629 69.1448 210.487 69.1448C209.345 69.1448 208.32 69.4081 207.413 69.9347C206.505 70.4612 205.788 71.2072 205.261 72.1726C204.734 73.138 204.47 74.3081 204.47 75.6831C204.47 77.0287 204.734 78.1989 205.261 79.1935C205.788 80.1589 206.505 80.9049 207.413 81.4315C208.32 81.958 209.345 82.2213 210.487 82.2213Z" fill="white"/>
</svg>
