<svg width="72" height="984" viewBox="0 0 72 984" fill="none" xmlns="http://www.w3.org/2000/svg">
<rect width="72" height="984" rx="15" fill="url(#paint0_linear_1_3401)"/>
<g clip-path="url(#clip0_1_3401)">
<path opacity="0.23" d="M513.813 0H493.826C506.342 15.1698 516.057 31.6266 518.585 51.9327C521.728 77.2157 516.262 100.54 497.892 117.748C465.274 148.304 444.649 189.68 408.137 216.364C380.804 236.328 351.398 231.146 323.735 218.3C290.855 203.039 259.696 205.852 228.126 220.418C226.156 221.329 223.867 221.545 221.737 222.081C222.307 219.871 222.58 217.525 223.502 215.464C234.493 191.012 277.61 181.434 310.558 195.568C343.563 209.724 376.59 228.185 411.36 199.497C435.071 179.931 448.909 152.552 467.336 128.795C481.344 110.733 500.784 95.5175 501.809 70.4736C503.165 37.1843 485.307 15.557 458.805 0H325.762C338.335 4.33911 350.851 8.83767 363.618 12.4821C387.808 19.3723 411.838 8.63267 436.005 10.7965C459.603 12.9148 477.05 25.488 488.393 45.9081C495.352 58.4585 495.136 71.4758 486.685 83.8668C483.371 88.7298 479.043 91.725 473.406 90.8822C466.664 89.8686 463.908 84.2426 462.438 78.2521C452.45 37.6626 440.788 29.121 400.529 40.282C374.232 47.5708 354.746 33.8474 333.552 25.2147C287.496 6.45742 241.998 35.829 241.793 85.2904C241.747 97.2258 240.973 109.184 239.857 121.062C239.082 129.342 237.465 138.852 226.099 137.257C215.712 135.788 211.886 126.187 212.205 117.521C213.959 69.5625 223.161 13.8487 279.433 0H237.636C208.583 36.7515 196.158 78.9127 200.714 125.561C202.422 142.997 212.023 159.317 232.602 156.288C254.89 153.008 251.951 131.711 254.309 115.698C258.58 86.7026 254.446 53.9371 287.245 37.6854C308.907 26.9572 329.577 34.3257 347.15 47.7986C362.308 59.4151 376.897 63.7428 396.543 61.6815C439.957 57.1146 455.525 78.6963 445.002 124.377C435.39 166.094 401.531 201.968 371.659 201.33C349.359 200.852 332.982 185.158 313.519 177.38C275.572 162.199 244.993 178.633 216.214 201.49C172.492 236.214 125.673 264.173 68.4104 269.162C63.0918 269.629 56.7711 268.832 55.5639 262.955C54.2086 256.372 60.7799 254.539 65.6429 252.819C92.3495 243.378 120.332 237.467 145.273 223.197C182.628 201.82 186.808 169.237 180.51 130.253C173.062 84.2768 183.482 40.544 206.579 0H184.598C166.9 44.1884 169.508 91.0303 167.299 137.28C166.012 164.214 160.192 190.078 140.615 210.168C100.128 251.714 39.2779 249.972 -5.68486 207.23C-11.8006 201.421 -19.8411 189.68 -28.8154 197.196C-37.8922 204.793 -28.8268 214.462 -23.3033 222.103C-19.5336 227.32 -15.7981 232.638 -11.4362 237.33C11.7285 262.283 32.4675 291.518 72.795 287.612C97.2694 285.243 116.391 270.084 137.506 259.834C183.209 237.649 229.322 266.269 229.322 317.211C229.322 380.213 164.782 424.641 99.718 411.031C54.6983 401.613 14.8149 378.517 -29.8632 369.155C-55.0209 363.882 -85.3036 381.079 -91.5788 406.225C-96.829 427.283 -82.1717 445.118 -55.2145 452.395C-16.9711 462.714 18.6757 477.223 43.8676 510.751C70.3464 546 79.8105 547.207 117.234 521.149C148.325 499.511 180.282 489.659 217.774 503.337C252.054 515.842 266.301 506.651 266.62 470.219C267.042 423.457 288.589 393.424 331.274 376.854C367.991 362.606 387.216 327.951 377.991 290.436C373.071 270.426 357.035 262.59 338.301 266.861C321.594 270.676 327.721 285.63 330.067 296.586C336.433 326.322 334.201 352.892 306.902 372.196C289.625 384.405 273.283 397.581 265.094 418.172C258.853 433.866 252.202 449.491 240.358 461.882C214.209 489.227 178.881 484.637 146.07 487.94C76.1319 494.978 18.334 461.882 -39.6461 430.119C-50.9438 423.935 -64.4394 415.074 -55.3968 400.155C-46.821 386.01 -31.879 390.748 -20.1258 397.809C19.0287 421.315 57.0672 446.063 103.397 455.117C142.984 462.85 183.061 453.079 201.431 428.012C236.782 379.769 245.95 325.183 244.036 267.066C242.863 231.419 263.363 215.327 297.176 226.659C351.341 244.824 400.734 243.56 441.665 198.267C462.86 174.817 479.43 147.12 505.34 128.021C527.981 111.325 538.538 90.0167 534.131 61.4195C530.759 39.7012 521.751 20.067 513.813 0Z" fill="white"/>
<path opacity="0.23" d="M509.36 327.734C508.859 325.195 504.155 322.313 500.944 321.687C474.032 316.402 446.027 317.336 420.072 306.244C410.836 302.292 406.178 309.057 405.438 317.348C401.839 357.596 384.015 386.341 344.064 400.133C320.739 408.184 297.552 419.915 292.063 446.872C288.225 465.72 289.694 485.719 289.329 505.205C288.874 530.101 275.902 541.945 251.917 537.322C230.7 533.222 209.916 524.908 188.619 523.541C142.824 520.603 114.945 551.637 89.3769 583.435C77.2593 598.49 79.3549 615.448 94.6955 628.602C104.832 637.292 115.674 634.126 125.308 627.247C136.8 619.036 146.514 607.18 159.099 601.85C224.47 574.107 287.94 587.386 346.262 620.516C398.194 650.013 409.515 690.159 385.86 729.769C363.971 766.429 326.331 776.998 289.477 789.366C240.198 805.902 196.978 828.999 183.642 885.863C176.444 916.533 161.001 942.34 126.766 947.681C95.823 952.51 76.2229 931.976 56.8393 911.75C40.4509 894.644 25.2469 875.374 2.07077 866.866C-38.3935 852.027 -68.437 872.276 -97 896.523V931.839C-88.5268 919.471 -80.7369 906.556 -67.9815 897.753C-30.1822 871.661 2.10493 877.845 30.6338 914.881C49.9833 939.994 70.7563 964.001 95.5838 984H188.448C174.69 926.111 200.6 881.41 240.062 842.426C265.265 817.53 300.206 808.374 330.739 792.065C371.226 770.438 405.381 742.672 414.412 694.281C421.04 658.805 395.882 641.529 372 623.637C354.712 610.676 332.641 601.657 328.825 576.465C328.222 572.456 330.397 568.037 331.285 563.8C333.278 564.757 335.795 565.247 337.173 566.761C340.305 570.235 342.731 574.346 345.715 577.968C364.563 600.825 388.685 617.715 411.451 636.153C442.576 661.356 441.62 691.833 416.758 735.634C384.22 792.953 330.078 821.471 276.061 851.036C236.349 872.777 199.381 934.117 221.213 983.988H252.031C224.254 926.156 255.152 865.272 312.221 845.888C337.333 837.358 364.985 833.087 382.182 809.137C402.215 781.257 413.011 747.626 437.076 722.161C448.476 710.1 460.65 697.22 458.669 678.701C456.061 654.238 434.627 644.342 418.717 630.516C389.277 604.925 353.471 583.742 341.125 544.474C324.486 491.55 352.662 451.131 385.974 414.186C417.464 379.268 461.926 364.258 500.898 340.831C505.659 337.973 510.544 333.839 509.337 327.746L509.36 327.734ZM349.382 442.795C333.279 471.939 327.573 503.702 322.71 536.205C316.947 574.734 288.338 592.694 250.391 577.102C200.087 556.443 158.245 562.149 120.855 601.702C116.63 606.178 107.815 612.715 104.16 606.223C97.8388 595.017 107.645 585.53 114.649 577.444C150.33 536.205 192.354 529.418 242.305 550.829C261.495 559.051 288.259 570.508 299.978 538.87C305.968 522.71 305.353 504.101 307.734 486.596C308.747 465.652 307.426 443.695 324.316 427.523C331.468 420.678 341.103 414.038 350.316 419.995C359.359 425.837 353.357 435.609 349.382 442.795Z" fill="white"/>
<path opacity="0.23" d="M364.142 691.821C357.536 685.455 348.949 702.572 342.07 709.941C327.265 725.783 310.125 734.939 288.76 726.09C268.727 717.788 249.275 712.902 228.046 721.102C184.359 737.98 146.924 768.297 98.9775 776.793C57.978 784.048 10.9197 761.498 -1.83572 721.876C-11.835 690.819 -3.69208 657.667 -11.4706 626.188C-23.9185 575.861 -47.311 534.053 -96.9887 512.403V535.773C-59.44 554.2 -42.3683 588.366 -32.927 626.347C-20.1602 677.722 -12.8031 730.452 -29.4648 782.134C-39.6919 813.84 -66.5922 830.309 -96.9774 840.684V860.83C-27.1871 808.738 27.8206 825.856 79.5142 885.442C106.813 916.909 135.251 917.023 150.58 878.415C173.506 820.651 209.027 778.683 270.401 761.099C299.784 752.683 332.823 752.136 355.088 726.512C363.812 716.467 374.665 701.912 364.176 691.81L364.142 691.821ZM253.318 749.858C212.979 771.053 181.637 804.98 142.631 827.951C128.714 836.151 113.35 840.183 95.1395 840.285C68.8998 839.283 43.6168 829.238 20.4862 813.692C15.5435 810.367 8.68749 805.379 12.6849 797.794C17.9807 787.772 27.7978 788.888 36.1572 792.316C98.4309 817.872 147.357 788.387 195.805 754.835C212.136 743.526 229.06 732.138 250.767 733.937C255.368 734.313 259.536 736.42 259.513 740.132C259.491 743.469 256.381 748.241 253.318 749.858Z" fill="white"/>
<path opacity="0.23" d="M319.828 634.239C272.758 614.15 223.012 621.404 174.109 625.208C164.155 625.983 153.689 635.196 155.648 647.211C156.946 655.172 167.697 653.942 174.018 652.404C209.448 643.817 245.118 638.476 281.459 644.227C292.233 645.936 308.827 644.66 308.781 660.012C308.736 675.991 293.019 674.772 281.744 673.781C248.387 670.831 215.519 667.187 182.514 678.621C113.293 702.606 72.6012 684.897 55.4042 613.683C35.0866 529.565 -16.3678 485.764 -96.9887 470.162V483.578C-96.4421 483.669 -95.8954 483.771 -95.3715 483.942C-27.4262 505.592 26.8298 585.86 30.2806 668.326C31.3853 694.691 36.3394 721.044 61.7363 735.577C90.789 752.204 118.008 739.642 142.528 724.063C187.946 695.203 232.044 667.836 289.864 691.457C305.535 697.857 325.75 690.443 334.224 672.141C341.512 656.379 334.394 640.446 319.84 634.239H319.828Z" fill="white"/>
<path opacity="0.23" d="M195.315 285.221C182.936 267.17 156.958 264.96 134.351 280.996C115.913 294.081 100.504 312.189 75.6535 313.807C36.6698 316.335 11.7626 292.282 -12.9055 267.42C-46.4453 233.618 -56.2397 231.603 -97 252.444V285.369C-58.3466 266.179 -29.6127 290.79 1.19383 308.773C55.894 340.695 91.1536 336.892 144.544 295.664C152.004 289.902 162.14 281.861 169.804 290.596C179.075 301.176 171.16 313.192 162.948 321.278C126.094 357.528 81.3137 358.462 34.1073 349.442C2.42381 343.395 -22.882 322.052 -53.7683 314.501C-69.6214 310.618 -83.5043 316.016 -97 323.1V353.337C-81.9213 341.06 -65.1001 331.049 -45.3292 337.119C-13.7368 346.811 16.3181 361.719 48.0927 370.557C92.1444 382.8 137.119 392.195 179.211 362.277C202.854 345.467 211.02 308.135 195.304 285.244L195.315 285.221Z" fill="white"/>
<path opacity="0.23" d="M103.852 0H62.4084C54.4591 14.9534 45.6328 29.5424 39.2551 45.145C28.4016 71.6694 36.6357 92.9208 60.4609 108.706C69.5719 114.742 80.7443 120.015 80.9721 133.18C81.029 136.449 77.2707 141.87 74.2299 142.758C60.199 146.835 48.7761 139.808 39.4373 130.652C1.71775 93.6497 -4.43218 47.8441 21.352 1.79942C21.6708 1.2186 21.9442 0.614993 22.1947 0H3.51717C-15.2173 40.1795 -6.1405 105.198 23.9486 137.485C38.7995 153.418 56.3496 166.253 79.4346 156.55C99.2169 148.236 100.287 128.875 99.4674 110.892C97.7705 73.7422 95.265 36.649 103.852 0Z" fill="white"/>
<path opacity="0.23" d="M155.773 0H136.447C135.41 2.98385 134.351 5.96771 133.588 9.0085C122.951 51.1355 131.618 94.5608 124.933 136.995C120.366 165.98 98.2603 193.461 71.8839 198.085C47.9675 202.276 27.6272 192.276 14.6213 172.517C-19.8183 120.14 -36.3548 62.9684 -27.4146 0H-47.8005C-48.4952 3.5419 -49.3608 7.10658 -49.1102 10.5802C-44.4636 73.4347 -25.5469 133.271 7.34385 185.42C33.9708 227.661 82.3274 240.36 121.197 193.062C146.719 162.016 149.874 125.197 150.182 87.1695C150.421 58.0599 146.446 28.506 155.773 0Z" fill="white"/>
<path opacity="0.23" d="M-63.6541 983.988C-57.3789 958.158 -43.6896 938.604 -13.6916 939.913C12.5367 941.064 23.9368 965.971 40.6669 981.915C41.3502 982.564 41.988 983.27 42.6143 983.988H60.0847C52.4087 974.399 44.9035 964.661 36.7036 955.562C19.7685 936.747 6.36394 911.783 -22.3585 909.699C-60.5791 906.92 -76.8992 945.893 -85.8849 983.999H-63.6655L-63.6541 983.988Z" fill="white"/>
<path opacity="0.23" d="M10.8516 983.989C5.21419 975.026 -2.14293 967.521 -13.1103 967.111C-24.4193 966.69 -31.0476 974.252 -34.9881 983.989H10.8516Z" fill="white"/>
</g>
<path d="M56.0717 67.0369L45.6239 64.3793" stroke="url(#paint1_linear_1_3401)" stroke-width="0.3"/>
<defs>
<linearGradient id="paint0_linear_1_3401" x1="0" y1="0" x2="143.233" y2="10.4805" gradientUnits="userSpaceOnUse">
<stop stop-color="#03BFD7"/>
<stop offset="1" stop-color="#60C3AD"/>
</linearGradient>
<linearGradient id="paint1_linear_1_3401" x1="53.9649" y1="66.5304" x2="51.9979" y2="58.6246" gradientUnits="userSpaceOnUse">
<stop offset="0.380208" stop-color="#BABABA" stop-opacity="0"/>
<stop offset="1" stop-color="#E6E6E6"/>
</linearGradient>
<clipPath id="clip0_1_3401">
<rect width="72" height="984" fill="white"/>
</clipPath>
</defs>
</svg>
