<svg width="400" height="220" viewBox="0 0 400 220" fill="none" xmlns="http://www.w3.org/2000/svg">
<g clip-path="url(#clip0_716_50224)">
<path d="M15.8798 210.115C26.7985 217.981 40.9483 218.376 54.6257 217.409C56.5355 217.275 58.4319 217.117 60.3107 216.946C60.322 216.943 60.3369 216.944 60.3485 216.941C60.4387 216.933 60.5292 216.924 60.6156 216.919C61.0034 216.883 61.3913 216.846 61.7755 216.81L61.6847 216.983L61.3999 217.52C61.5023 217.34 61.6046 217.164 61.7069 216.985C61.737 216.931 61.7708 216.877 61.8007 216.823C65.3439 210.657 68.8581 204.265 69.7545 197.224C70.6811 189.916 68.0771 181.641 61.6453 178.049C60.8018 177.58 59.9085 177.206 58.9821 176.934C58.5974 176.817 58.2075 176.722 57.8132 176.638C55.4011 176.103 52.8897 176.219 50.5375 176.976C48.1853 177.733 46.0771 179.102 44.4296 180.944C42.7822 182.785 41.6549 185.033 41.1638 187.454C40.6727 189.876 40.8355 192.385 41.6354 194.722C36.1824 189.131 37.1996 180.06 39.0806 172.479C40.9653 164.898 43.2468 156.463 39.4136 149.654C37.2828 145.864 33.5356 143.512 29.3304 142.565C29.2014 142.537 29.0726 142.509 28.9433 142.485C23.9329 141.47 18.7241 142.383 14.3572 145.041C6.31645 150.108 2.18661 159.715 0.846236 169.126C-1.31335 184.27 3.46585 201.171 15.8798 210.115Z" fill="#F1F1F1"/>
<path d="M19.4053 185.839C19.7222 189.179 20.5247 192.455 21.7872 195.564C22.9507 198.315 24.519 200.877 26.4401 203.164C30.3644 207.885 35.5535 211.434 41.1889 213.799C45.4979 215.564 50.0127 216.777 54.6259 217.409C56.5357 217.275 58.4321 217.117 60.3109 216.946C60.3222 216.943 60.3371 216.944 60.3487 216.941C60.4389 216.933 60.5294 216.924 60.6158 216.919C61.0036 216.883 61.3915 216.846 61.7757 216.81L61.6849 216.983L61.4001 217.52C61.5025 217.34 61.6048 217.164 61.7071 216.984C61.7372 216.931 61.771 216.877 61.8009 216.823C58.3424 213.377 55.7602 209.152 54.2706 204.503C52.7811 199.854 52.4276 194.915 53.2398 190.101C54.0897 185.321 56.0574 180.809 58.9823 176.934C58.5976 176.817 58.2077 176.722 57.8134 176.638C56.7019 178.158 55.7268 179.773 54.8997 181.465C51.9318 187.497 50.985 194.324 52.1993 200.936C53.3282 206.919 56.1408 212.456 60.3068 216.897C59.942 216.871 59.5737 216.842 59.2133 216.809C52.3859 216.23 45.5725 214.763 39.3801 211.756C34.0869 209.249 29.4915 205.478 25.9987 200.777C22.2483 195.604 20.5957 189.383 20.3118 183.059C20.0108 176.29 20.8892 169.401 22.4341 162.818C24.0117 156.069 26.4092 149.538 29.5732 143.371C29.6439 143.231 29.6582 143.07 29.613 142.92C29.5679 142.769 29.4668 142.642 29.3306 142.565C29.2171 142.488 29.078 142.46 28.9435 142.485C28.8777 142.503 28.8167 142.535 28.765 142.579C28.7133 142.623 28.6722 142.679 28.6449 142.741C28.2546 143.503 27.8715 144.265 27.503 145.036C24.4341 151.456 22.1746 158.233 20.7766 165.211C19.4194 171.942 18.695 178.984 19.4053 185.839Z" fill="white"/>
<path d="M157.856 219.301H0.413235C0.303638 219.301 0.19853 219.257 0.121033 219.18C0.0435368 219.102 0 218.997 0 218.888C0 218.778 0.0435368 218.673 0.121033 218.595C0.19853 218.518 0.303638 218.474 0.413235 218.474H157.856C157.965 218.474 158.07 218.518 158.148 218.595C158.225 218.673 158.269 218.778 158.269 218.888C158.269 218.997 158.225 219.102 158.148 219.18C158.07 219.257 157.965 219.301 157.856 219.301Z" fill="#CBCBCB"/>
<path d="M110.594 108.334L103.475 73.4502L100.348 47.6853L93.4199 52.1673L94.377 80.5602L105.435 109.978C105.08 110.655 104.934 111.422 105.015 112.182C105.097 112.943 105.403 113.661 105.895 114.247C106.386 114.833 107.04 115.259 107.775 115.472C108.509 115.685 109.29 115.675 110.018 115.442C110.747 115.21 111.39 114.767 111.865 114.168C112.341 113.57 112.628 112.843 112.69 112.081C112.752 111.319 112.585 110.556 112.212 109.889C111.839 109.221 111.276 108.68 110.594 108.334Z" fill="#FFB7B7"/>
<path d="M44.0107 111.031L45.9813 75.4831L45.3286 49.5374L54.4878 52.9642L56.0169 81.1945L49.3543 111.908C49.8043 112.526 50.0604 113.264 50.09 114.028C50.1196 114.792 49.9213 115.547 49.5204 116.198C49.1195 116.849 48.534 117.366 47.8385 117.683C47.143 118.001 46.3688 118.104 45.6143 117.98C44.8599 117.857 44.1593 117.511 43.6016 116.988C43.0439 116.465 42.6544 115.788 42.4825 115.043C42.3106 114.298 42.3641 113.519 42.6362 112.805C42.9083 112.09 43.3868 111.473 44.0107 111.031Z" fill="#FFB7B7"/>
<path d="M63.1942 214.382L67.8741 214.381L70.1006 196.329L63.1934 196.33L63.1942 214.382Z" fill="#FFB7B7"/>
<path d="M62 212.854L71.2168 212.853C72.7746 212.853 74.2689 213.472 75.3704 214.574C76.4719 215.675 77.0908 217.169 77.0909 218.727V218.918L62.0003 218.918L62 212.854Z" fill="#2F2E41"/>
<path d="M80.9209 212.311L85.5458 213.026L90.5063 195.527L83.6805 194.471L80.9209 212.311Z" fill="#FFB7B7"/>
<path d="M79.9739 210.618L89.0824 212.027C90.6219 212.265 92.004 213.105 92.9241 214.362C93.8442 215.619 94.2274 217.19 93.9893 218.73L93.9601 218.918L79.0469 216.611L79.9739 210.618Z" fill="#2F2E41"/>
<path d="M61.8188 208.992L61.7945 208.861L44.8518 117.257C43.5068 109.903 44.5796 102.311 47.9096 95.6178L58.1643 75.1084L88.7636 79.2539L92.3748 105.366L105.244 155.178L105.231 155.218L88.7431 207.592L77.937 208.303L87.5092 161.552L69.9821 121.742L71.2184 208.279L61.8188 208.992Z" fill="#2F2E41"/>
<path d="M89.4766 82.5957L89.2747 82.2792C89.2384 82.2222 85.5215 76.6223 75.407 80.3612C65.0818 84.1788 57.0813 76.8054 57.0016 76.7306L56.962 76.6932L54.6237 55.8516L51.8633 38.9322L60.6503 37.3906L64.9704 34.7988L82.149 34.4929L86.6696 38.0484L94.0914 38.8572L94.7709 54.2738L94.7678 54.2906L89.4766 82.5957Z" fill="#00A4B9"/>
<path d="M91.9385 55.765V42.5642L94.0255 38.7553L94.1104 38.7527C95.7534 38.814 97.3063 39.5195 98.4331 40.7167C100.532 42.8496 101.483 46.4033 101.26 51.2788L101.256 51.368L91.9385 55.765Z" fill="#00A4B9"/>
<path d="M55.5604 54.3301L44.9229 53.0535L44.9146 52.931C44.5517 47.6264 45.4776 43.6887 47.6665 41.2277C49.6532 38.9941 51.9295 38.8588 52.0255 38.8542L52.0869 38.8513L54.9665 41.4691L55.5604 54.3301Z" fill="#00A4B9"/>
<path d="M86.3539 29.1737H58.3622C57.7864 29.1731 57.2344 28.9441 56.8272 28.5369C56.4201 28.1298 56.1911 27.5778 56.1904 27.002V16.8671C56.1904 12.5791 57.8938 8.46685 60.9258 5.43484C63.9578 2.40283 68.0701 0.699463 72.358 0.699463C76.6459 0.699463 80.7582 2.40283 83.7902 5.43484C86.8223 8.46685 88.5256 12.5791 88.5256 16.8671V27.002C88.525 27.5778 88.296 28.1298 87.8888 28.5369C87.4817 28.9441 86.9297 29.1731 86.3539 29.1737Z" fill="#2F2E41"/>
<path d="M83.4084 22.9062C86.5485 17.1619 84.4374 9.9597 78.6931 6.8196C72.9488 3.6795 65.7466 5.7906 62.6065 11.5349C59.4664 17.2791 61.5776 24.4813 67.3218 27.6214C73.0661 30.7615 80.2683 28.6504 83.4084 22.9062Z" fill="#FFB7B7"/>
<path d="M84.2752 17.591H68.6256C68.3316 17.5906 68.0478 17.483 67.8275 17.2884C67.6071 17.0938 67.4652 16.8255 67.4284 16.5338L67.2257 14.913C67.2063 14.7572 67.1367 14.6119 67.0274 14.4991C66.9181 14.3863 66.7752 14.312 66.62 14.2876C66.4649 14.2632 66.306 14.2899 66.1673 14.3637C66.0287 14.4375 65.9178 14.5544 65.8514 14.6967L64.8255 16.8949C64.7279 17.1025 64.5734 17.2782 64.3798 17.4015C64.1863 17.5247 63.9617 17.5904 63.7322 17.591H61.3551C61.1869 17.591 61.0206 17.5559 60.8668 17.4879C60.713 17.4199 60.5752 17.3205 60.4621 17.196C60.349 17.0716 60.2631 16.9249 60.2101 16.7653C60.157 16.6057 60.1379 16.4368 60.154 16.2695L61.0913 6.47906C61.1113 6.2696 61.1854 6.06894 61.3063 5.8967C61.4271 5.72445 61.5906 5.58652 61.7808 5.4964C68.9478 2.15061 76.2156 2.15485 83.3826 5.50912C83.5644 5.59457 83.7221 5.724 83.8413 5.88571C83.9605 6.04741 84.0375 6.23628 84.0653 6.43523L85.4694 16.2129C85.4941 16.3841 85.4816 16.5586 85.4329 16.7245C85.3842 16.8905 85.3003 17.044 85.1871 17.1747C85.0738 17.3054 84.9337 17.4103 84.7764 17.4821C84.6191 17.5539 84.4481 17.591 84.2752 17.591Z" fill="#2F2E41"/>
<path d="M110.631 110.562L110.047 109.977L135.445 84.5786H184.665L209.498 59.2329H258.082L282.593 34.5305H396.694V35.357H282.937L258.426 60.0593H209.845L185.012 85.4051H135.788L110.631 110.562Z" fill="#3F3D56"/>
<path d="M210.325 75.0818C218.769 75.0818 225.615 68.2364 225.615 59.7921C225.615 51.3479 218.769 44.5024 210.325 44.5024C201.881 44.5024 195.035 51.3479 195.035 59.7921C195.035 68.2364 201.881 75.0818 210.325 75.0818Z" fill="white"/>
<path d="M283.054 39.1304C285.336 39.1304 287.187 37.2803 287.187 34.9981C287.187 32.7158 285.336 30.8657 283.054 30.8657C280.772 30.8657 278.922 32.7158 278.922 34.9981C278.922 37.2803 280.772 39.1304 283.054 39.1304Z" fill="#CBCBCB"/>
<path d="M395.868 39.1304C398.15 39.1304 400 37.2803 400 34.9981C400 32.7158 398.15 30.8657 395.868 30.8657C393.585 30.8657 391.735 32.7158 391.735 34.9981C391.735 37.2803 393.585 39.1304 395.868 39.1304Z" fill="#CBCBCB"/>
<path d="M339.668 39.1304C341.95 39.1304 343.8 37.2803 343.8 34.9981C343.8 32.7158 341.95 30.8657 339.668 30.8657C337.385 30.8657 335.535 32.7158 335.535 34.9981C335.535 37.2803 337.385 39.1304 339.668 39.1304Z" fill="#CBCBCB"/>
<path d="M210.325 75.495C207.219 75.495 204.183 74.574 201.601 72.8486C199.019 71.1231 197.006 68.6706 195.817 65.8013C194.629 62.932 194.318 59.7746 194.924 56.7286C195.53 53.6825 197.025 50.8845 199.221 48.6884C201.417 46.4923 204.215 44.9967 207.262 44.3908C210.308 43.7849 213.465 44.0959 216.334 45.2844C219.204 46.4729 221.656 48.4856 223.382 51.068C225.107 53.6503 226.028 56.6863 226.028 59.792C226.023 63.9553 224.367 67.9466 221.423 70.8905C218.48 73.8343 214.488 75.4903 210.325 75.495ZM210.325 44.9156C207.383 44.9156 204.507 45.7881 202.06 47.4227C199.614 49.0574 197.707 51.3807 196.581 54.0991C195.455 56.8174 195.16 59.8085 195.734 62.6943C196.308 65.58 197.725 68.2308 199.806 70.3113C201.886 72.3918 204.537 73.8086 207.423 74.3827C210.308 74.9567 213.3 74.6621 216.018 73.5361C218.736 72.4101 221.06 70.5034 222.694 68.057C224.329 65.6105 225.201 62.7343 225.201 59.792C225.197 55.8479 223.628 52.0666 220.839 49.2777C218.05 46.4888 214.269 44.92 210.325 44.9156Z" fill="#3F3D56"/>
<path d="M210.325 70.7165C216.358 70.7165 221.249 65.8255 221.249 59.7921C221.249 53.7587 216.358 48.8677 210.325 48.8677C204.291 48.8677 199.4 53.7587 199.4 59.7921C199.4 65.8255 204.291 70.7165 210.325 70.7165Z" fill="#00A4B9"/>
<path d="M209.284 64.4038L206.015 60.1996L207.916 58.7206L209.464 60.7112L214.694 55.1899L216.443 56.847L209.284 64.4038Z" fill="white"/>
<path d="M135.117 100.289C143.561 100.289 150.407 93.4437 150.407 84.9994C150.407 76.5551 143.561 69.7097 135.117 69.7097C126.673 69.7097 119.827 76.5551 119.827 84.9994C119.827 93.4437 126.673 100.289 135.117 100.289Z" fill="white"/>
<path d="M135.116 100.702C132.01 100.702 128.974 99.7813 126.392 98.0558C123.81 96.3304 121.797 93.8779 120.608 91.0086C119.42 88.1392 119.109 84.9819 119.715 81.9358C120.321 78.8898 121.816 76.0918 124.012 73.8957C126.208 71.6996 129.006 70.204 132.053 69.5981C135.099 68.9922 138.256 69.3032 141.125 70.4917C143.995 71.6802 146.447 73.6929 148.173 76.2752C149.898 78.8576 150.819 81.8936 150.819 84.9993C150.814 89.1625 149.158 93.1539 146.214 96.0978C143.271 99.0416 139.279 100.698 135.116 100.702ZM135.116 70.1229C132.174 70.1229 129.298 70.9954 126.851 72.63C124.405 74.2646 122.498 76.588 121.372 79.3063C120.246 82.0247 119.951 85.0158 120.525 87.9016C121.099 90.7873 122.516 93.4381 124.597 95.5186C126.677 97.5991 129.328 99.0159 132.214 99.5899C135.1 100.164 138.091 99.8693 140.809 98.7434C143.527 97.6174 145.851 95.7107 147.485 93.2642C149.12 90.8178 149.992 87.9416 149.992 84.9993C149.988 81.0552 148.419 77.2739 145.63 74.485C142.841 71.6961 139.06 70.1273 135.116 70.1229Z" fill="#3F3D56"/>
<path d="M135.117 95.9238C141.15 95.9238 146.041 91.0327 146.041 84.9994C146.041 78.966 141.15 74.075 135.117 74.075C129.083 74.075 124.192 78.966 124.192 84.9994C124.192 91.0327 129.083 95.9238 135.117 95.9238Z" fill="#00A4B9"/>
<path d="M134.075 89.6111L130.806 85.4069L132.707 83.9279L134.255 85.9184L139.485 80.3972L141.234 82.0543L134.075 89.6111Z" fill="white"/>
</g>
<defs>
<clipPath id="clip0_716_50224">
<rect width="400" height="218.601" fill="white" transform="translate(0 0.699463)"/>
</clipPath>
</defs>
</svg>
