<svg width="400" height="301" viewBox="0 0 400 301" fill="none" xmlns="http://www.w3.org/2000/svg">
<g clip-path="url(#clip0_716_50158)">
<path d="M376.43 272.751C376.188 281.801 374.672 290.771 371.927 299.398C371.866 299.598 371.798 299.796 371.733 299.996H354.928C354.945 299.816 354.964 299.616 354.981 299.398C356.102 286.517 349.701 209.052 341.977 195.645C342.653 196.733 377.733 231.822 376.43 272.751Z" fill="#F0F0F0"/>
<path d="M375.17 299.398C375.029 299.599 374.883 299.799 374.733 299.996H362.126C362.222 299.826 362.332 299.625 362.461 299.398C364.543 295.64 370.708 284.402 376.43 272.752C382.576 260.232 388.22 247.237 387.745 242.534C387.892 243.594 392.147 275.931 375.17 299.398Z" fill="#F0F0F0"/>
<path d="M317.249 244.615H0V0.395508H317.249V244.615Z" fill="white"/>
<path d="M317.249 244.615H0V0.395508H317.249V244.615ZM4.68734 239.927H312.562V5.08284H4.68734V239.927Z" fill="#E5E5E5"/>
<path d="M83.0291 184.49H59.0095C58.3591 184.489 57.7355 184.231 57.2756 183.771C56.8157 183.311 56.5569 182.687 56.5562 182.037V148.926C56.5569 148.275 56.8157 147.652 57.2756 147.192C57.7355 146.732 58.3591 146.473 59.0095 146.473H83.0291C83.6795 146.473 84.3031 146.732 84.763 147.192C85.223 147.652 85.4817 148.275 85.4825 148.926V182.037C85.4817 182.687 85.223 183.311 84.763 183.771C84.3031 184.231 83.6795 184.489 83.0291 184.49Z" fill="#E6E6E6"/>
<path d="M126.832 184.49H102.812C102.162 184.489 101.538 184.231 101.078 183.771C100.618 183.311 100.36 182.687 100.359 182.037V117.52C100.36 116.87 100.618 116.246 101.078 115.786C101.538 115.326 102.162 115.068 102.812 115.067H126.832C127.482 115.068 128.106 115.326 128.566 115.786C129.026 116.246 129.284 116.87 129.285 117.52V182.037C129.284 182.687 129.026 183.311 128.566 183.771C128.106 184.231 127.482 184.489 126.832 184.49Z" fill="#E6E6E6"/>
<path d="M170.635 184.49H146.615C145.965 184.489 145.341 184.231 144.881 183.771C144.421 183.311 144.162 182.687 144.162 182.037V148.926C144.162 148.275 144.421 147.652 144.881 147.192C145.341 146.732 145.965 146.473 146.615 146.473H170.635C171.285 146.473 171.909 146.732 172.369 147.192C172.828 147.652 173.087 148.275 173.088 148.926V182.037C173.087 182.687 172.828 183.311 172.369 183.771C171.909 184.231 171.285 184.489 170.635 184.49Z" fill="#E6E6E6"/>
<path d="M214.437 184.49H190.418C189.782 184.504 189.167 184.265 188.707 183.826C188.247 183.387 187.98 182.784 187.964 182.148V105.012C187.98 104.376 188.247 103.773 188.707 103.334C189.167 102.895 189.782 102.656 190.418 102.67H214.437C215.073 102.656 215.688 102.895 216.148 103.334C216.608 103.773 216.875 104.376 216.891 105.012V182.148C216.875 182.784 216.608 183.387 216.148 183.826C215.688 184.265 215.073 184.504 214.437 184.49Z" fill="#E6E6E6"/>
<path d="M258.24 184.49H234.22C233.57 184.489 232.946 184.231 232.487 183.771C232.027 183.311 231.768 182.687 231.767 182.037V82.8084C231.768 82.158 232.027 81.5344 232.487 81.0745C232.946 80.6146 233.57 80.3559 234.22 80.3552H258.24C258.89 80.3559 259.514 80.6146 259.974 81.0745C260.434 81.5344 260.693 82.158 260.693 82.8084V182.037C260.693 182.687 260.434 183.311 259.974 183.771C259.514 184.231 258.89 184.489 258.24 184.49Z" fill="#F2F2F2"/>
<path d="M71.0193 136.555C73.758 136.555 75.9781 134.335 75.9781 131.596C75.9781 128.858 73.758 126.637 71.0193 126.637C68.2807 126.637 66.0605 128.858 66.0605 131.596C66.0605 134.335 68.2807 136.555 71.0193 136.555Z" fill="#3F3D56"/>
<path d="M114.822 104.323C117.561 104.323 119.781 102.103 119.781 99.3641C119.781 96.6254 117.561 94.4053 114.822 94.4053C112.083 94.4053 109.863 96.6254 109.863 99.3641C109.863 102.103 112.083 104.323 114.822 104.323Z" fill="#3F3D56"/>
<path d="M158.625 136.555C161.363 136.555 163.584 134.335 163.584 131.596C163.584 128.858 161.363 126.637 158.625 126.637C155.886 126.637 153.666 128.858 153.666 131.596C153.666 134.335 155.886 136.555 158.625 136.555Z" fill="#3F3D56"/>
<path d="M202.428 88.62C205.166 88.62 207.386 86.3999 207.386 83.6612C207.386 80.9225 205.166 78.7024 202.428 78.7024C199.689 78.7024 197.469 80.9225 197.469 83.6612C197.469 86.3999 199.689 88.62 202.428 88.62Z" fill="#3F3D56"/>
<path d="M246.23 70.4376C248.969 70.4376 251.189 68.2175 251.189 65.4788C251.189 62.7401 248.969 60.52 246.23 60.52C243.492 60.52 241.271 62.7401 241.271 65.4788C241.271 68.2175 243.492 70.4376 246.23 70.4376Z" fill="#3F3D56"/>
<path d="M158.73 132.707L114.822 99.8203L71.5151 132.258L70.5239 130.935L114.822 97.7547L158.52 130.485L201.944 82.965L202.119 82.8944L245.921 65.2456L246.539 66.7791L202.911 84.3572L158.73 132.707Z" fill="#3F3D56"/>
<path d="M307.503 292.507L300.042 292.506L296.492 263.728L307.504 263.729L307.503 292.507Z" fill="#FFB6B6"/>
<path d="M309.405 299.739L285.348 299.738V299.434C285.348 296.951 286.334 294.569 288.09 292.813C289.847 291.057 292.228 290.07 294.712 290.07H294.712L309.406 290.071L309.405 299.739Z" fill="#2F2E41"/>
<path d="M280.838 170.699L285.074 238.189L299.296 285.694L310.314 286.492L304.781 228.596L307.207 190.147C307.207 190.147 318.708 181.574 312.349 171.254L280.838 170.699Z" fill="#2F2E41"/>
<path d="M312.372 292.507L304.911 292.506L301.361 263.728L312.373 263.729L312.372 292.507Z" fill="#FFB6B6"/>
<path d="M314.275 299.739L290.217 299.738V299.434C290.217 296.951 291.204 294.569 292.96 292.813C294.716 291.057 297.097 290.07 299.581 290.07H299.581L314.275 290.071L314.275 299.739Z" fill="#2F2E41"/>
<path d="M285.707 170.699L289.943 238.189L304.165 285.694L315.183 286.492L309.65 228.596L312.076 190.147C312.076 190.147 323.577 181.574 317.218 171.254L285.707 170.699Z" fill="#2F2E41"/>
<path d="M308.669 181.15C295.963 181.15 281.009 173.385 280.142 172.929L279.901 172.802L309.062 98.4087L323.504 91.586C324.616 91.0606 325.849 90.8416 327.073 90.9515C328.298 91.0613 329.472 91.4961 330.473 92.211C331.473 92.9258 332.265 93.8948 332.767 95.0179C333.268 96.141 333.46 97.3775 333.324 98.5998L327.593 150.014L321.611 176.642L321.547 176.705C318.245 179.967 313.628 181.15 308.669 181.15Z" fill="#3F3D56"/>
<path d="M262.071 131.903C262.826 131.424 263.678 131.116 264.565 131.002C265.453 130.887 266.354 130.969 267.207 131.24C268.059 131.512 268.841 131.967 269.499 132.574C270.156 133.181 270.673 133.925 271.012 134.753L292.727 133.566L287.029 143.326L267.282 142.956C265.853 143.434 264.299 143.37 262.914 142.778C261.529 142.186 260.409 141.107 259.767 139.744C259.124 138.382 259.004 136.831 259.429 135.386C259.854 133.94 260.794 132.701 262.071 131.903Z" fill="#FFB6B6"/>
<path d="M304.925 147.181L283.163 146.625L283.444 132.23L293.734 128.955L310.613 105.281C311.458 104.095 312.533 103.091 313.773 102.328C315.012 101.565 316.393 101.058 317.832 100.838C319.271 100.618 320.739 100.688 322.151 101.045C323.562 101.402 324.888 102.038 326.049 102.916C327.21 103.794 328.184 104.896 328.911 106.157C329.639 107.418 330.107 108.812 330.287 110.257C330.467 111.701 330.355 113.167 329.959 114.568C329.562 115.969 328.889 117.276 327.979 118.412L304.925 147.181Z" fill="#3F3D56"/>
<path d="M317.524 88.8447C325.51 88.8447 331.984 82.3708 331.984 74.3848C331.984 66.3987 325.51 59.9248 317.524 59.9248C309.538 59.9248 303.064 66.3987 303.064 74.3848C303.064 82.3708 309.538 88.8447 317.524 88.8447Z" fill="#FFB6B6"/>
<path d="M299.231 62.3348C300.69 60.8386 302.587 59.8435 304.647 59.4927C306.656 59.0606 308.859 58.9268 310.465 57.667C312.291 56.2125 313.094 53.4495 315.334 52.8348C316.308 52.639 317.318 52.7192 318.249 53.0661C321.828 54.1456 325.005 56.2638 327.378 59.152C327.937 59.9796 328.65 60.6923 329.478 61.2516C329.972 61.4611 330.456 61.6968 330.926 61.9575C331.442 62.3644 331.847 62.8937 332.107 63.4972C333.721 66.757 334.093 70.4933 333.153 74.0075C332.593 76.0828 331.583 78.0059 330.987 80.0933C330.39 82.1808 327.632 86.1517 326.987 85.1658C326.342 84.1799 325.514 83.2609 325.161 82.1229C324.473 79.8843 325.094 77.6316 323.343 76.0767C322.26 75.1151 320.3 74.47 319.564 75.7115C319.272 76.1923 319.29 76.8009 319.04 77.2999C318.547 78.2736 317.123 78.4684 316.18 77.9085C315.271 77.2808 314.632 76.3333 314.391 75.2551C312.973 70.4594 310.557 67.4409 305.426 69.4918C303.515 70.2586 301.264 70.7759 299.426 69.4613C297.004 67.733 297.496 64.3067 299.231 62.3348Z" fill="#2F2E41"/>
<path d="M266.76 192.402H242.74C242.09 192.401 241.466 192.142 241.007 191.682C240.547 191.222 240.288 190.599 240.287 189.949V90.72C240.288 90.0696 240.547 89.446 241.007 88.9861C241.466 88.5263 242.09 88.2676 242.74 88.2668H266.76C267.411 88.2676 268.034 88.5263 268.494 88.9861C268.954 89.446 269.213 90.0696 269.213 90.72V189.949C269.213 190.599 268.954 191.222 268.494 191.682C268.034 192.142 267.411 192.401 266.76 192.402Z" fill="#00A4B9"/>
<path d="M261.462 140.423C262.218 139.944 263.07 139.636 263.957 139.522C264.844 139.408 265.746 139.489 266.598 139.761C267.451 140.032 268.233 140.488 268.89 141.095C269.548 141.701 270.064 142.445 270.403 143.273L292.119 142.087L286.421 151.846L266.673 151.477C265.244 151.954 263.69 151.89 262.305 151.298C260.92 150.706 259.8 149.627 259.158 148.264C258.516 146.902 258.396 145.351 258.82 143.906C259.245 142.461 260.185 141.221 261.462 140.423Z" fill="#FFB6B6"/>
<path d="M304.317 155.701L282.555 155.145L282.836 140.75L293.126 137.475L310.005 113.801C310.85 112.615 311.924 111.611 313.164 110.848C314.404 110.085 315.784 109.578 317.223 109.358C318.662 109.138 320.131 109.208 321.542 109.565C322.954 109.922 324.279 110.558 325.441 111.436C326.602 112.314 327.575 113.416 328.303 114.677C329.031 115.938 329.499 117.332 329.679 118.777C329.859 120.221 329.747 121.687 329.35 123.088C328.954 124.489 328.281 125.796 327.37 126.932L304.317 155.701Z" fill="#3F3D56"/>
<path d="M399.391 300.604H167.521C167.441 300.605 167.362 300.589 167.288 300.559C167.213 300.528 167.146 300.483 167.09 300.427C167.033 300.37 166.988 300.303 166.957 300.229C166.926 300.155 166.911 300.076 166.911 299.996C166.911 299.916 166.926 299.836 166.957 299.762C166.988 299.689 167.033 299.621 167.09 299.565C167.146 299.508 167.213 299.464 167.288 299.433C167.362 299.403 167.441 299.387 167.521 299.387H399.391C399.471 299.387 399.551 299.403 399.625 299.433C399.699 299.464 399.766 299.508 399.823 299.565C399.88 299.621 399.925 299.689 399.955 299.762C399.986 299.836 400.002 299.916 400.002 299.996C400.002 300.076 399.986 300.155 399.955 300.229C399.925 300.303 399.88 300.37 399.823 300.427C399.766 300.483 399.699 300.528 399.625 300.559C399.551 300.589 399.471 300.605 399.391 300.604Z" fill="#CACACA"/>
</g>
<defs>
<clipPath id="clip0_716_50158">
<rect width="400" height="300.209" fill="white" transform="translate(0 0.395508)"/>
</clipPath>
</defs>
</svg>
