<svg width="400" height="357" viewBox="0 0 400 357" fill="none" xmlns="http://www.w3.org/2000/svg">
<g clip-path="url(#clip0_716_50089)">
<path d="M81.7567 332.536C81.6874 340.435 81.1088 348.321 80.0245 356.146C79.9866 356.42 79.9452 356.695 79.9071 356.97L5.93355 356.557C5.71636 356.284 5.50257 356.008 5.29544 355.728C4.60482 354.803 3.9575 353.852 3.36333 352.868C0.507312 348.128 -0.800202 342.577 0.510056 338.748L0.533535 338.689C0.816368 337.85 1.26205 337.076 1.84499 336.41C4.83234 333.047 10.8725 333.608 16.3538 336.322C11.4374 330.94 7.5227 324.15 7.22526 318.088C6.9336 312.176 10.0251 307.952 13.3782 304.363C13.4882 304.245 13.5982 304.129 13.7083 304.014C13.7617 303.954 13.8183 303.898 13.8715 303.839C16.4876 301.104 19.5376 298.407 23.9522 298.734C28.7939 299.092 34.1619 303.147 37.9257 307.873C41.6896 312.596 44.1907 317.96 46.7259 323.196C49.2644 328.428 52.0108 333.794 56.0842 338.267C50.567 331.288 46.1187 323.348 44.4755 315.626C42.8324 307.904 44.2785 300.487 49.1956 296.85C50.6883 295.78 52.4157 295.083 54.2331 294.818C54.4452 294.782 54.6607 294.754 54.8796 294.729C59.4314 294.211 64.8662 295.785 69.4902 299.548C74.5825 303.691 78.113 309.834 79.8697 315.665C81.6262 321.496 81.8134 327.109 81.7567 332.536Z" fill="#F2F2F2"/>
<path d="M33.3587 356.71L31.9442 356.702C31.4951 356.421 31.0438 356.144 30.5904 355.87C30.3098 355.692 30.0258 355.522 29.7418 355.348C25.0498 352.482 20.3285 349.734 15.5779 347.102C10.8315 344.468 6.06134 341.955 1.2673 339.564C1.14023 339.509 1.03657 339.411 0.974314 339.287C0.912058 339.163 0.895148 339.021 0.926531 338.886C0.93167 338.869 0.939626 338.852 0.950104 338.837C1.01697 338.711 1.16643 338.659 1.38455 338.766C1.97257 339.061 2.564 339.356 3.15198 339.657C7.95912 342.09 12.7456 344.643 17.5115 347.318C22.2741 349.992 27.0095 352.784 31.7179 355.694C31.8169 355.754 31.916 355.817 32.015 355.877C32.464 356.155 32.9097 356.432 33.3587 356.71Z" fill="white"/>
<path d="M51.5971 356.812L50.7224 356.807C50.5251 356.531 50.3312 356.255 50.134 355.979C45.4989 349.479 40.8647 342.979 36.2316 336.479C28.6443 325.838 21.0592 315.197 13.4764 304.556C13.4315 304.499 13.3981 304.433 13.378 304.363C13.3132 304.128 13.4863 303.989 13.7081 304.014C13.8016 304.027 13.8912 304.06 13.9709 304.111C14.0506 304.162 14.1185 304.229 14.1702 304.308C18.4241 310.275 22.6769 316.241 26.9286 322.204C34.4764 332.792 42.0231 343.379 49.5688 353.964C50.0488 354.636 50.5287 355.312 51.0087 355.983C51.2059 356.26 51.4032 356.536 51.5971 356.812Z" fill="white"/>
<path d="M71.0838 351.732C71.0392 353.207 70.9416 354.657 70.8142 356.094C70.7896 356.369 70.7648 356.644 70.7401 356.919L69.8223 356.914C69.8504 356.639 69.8785 356.364 69.9031 356.089C70.0971 354.013 70.2347 351.913 70.2533 349.757C70.2778 343.777 69.695 337.81 68.5141 331.949C67.2588 325.637 65.4565 319.447 63.1275 313.448C60.683 307.121 57.7359 301 54.3142 295.143C54.2497 295.048 54.2211 294.932 54.2332 294.818C54.2711 294.556 54.6193 294.479 54.8797 294.729C54.9311 294.778 54.9754 294.834 55.0112 294.895C55.4346 295.623 55.8502 296.353 56.2581 297.085C59.5535 302.974 62.3742 309.117 64.6934 315.454C66.9024 321.473 68.5827 327.673 69.7152 333.983C70.776 339.837 71.2346 345.785 71.0838 351.732Z" fill="white"/>
<path d="M269.829 11.6963C269.829 9.38894 270.513 7.13338 271.795 5.21487C273.077 3.29637 274.899 1.80107 277.031 0.918076C279.163 0.0350832 281.508 -0.195947 283.771 0.254199C286.034 0.704345 288.113 1.81545 289.745 3.44701C291.376 5.07856 292.487 7.15729 292.937 9.42032C293.388 11.6834 293.157 14.0291 292.274 16.1608C291.391 18.2925 289.895 20.1145 287.977 21.3965C286.058 22.6784 283.803 23.3626 281.495 23.3626C278.402 23.3591 275.437 22.1288 273.25 19.9417C271.063 17.7546 269.833 14.7893 269.829 11.6963ZM291.934 11.6963C291.934 9.63182 291.321 7.61368 290.174 5.89712C289.028 4.18056 287.397 2.84267 285.49 2.05262C283.583 1.26257 281.484 1.05586 279.459 1.45863C277.434 1.86139 275.574 2.85554 274.114 4.31535C272.655 5.77517 271.66 7.63508 271.258 9.6599C270.855 11.6847 271.062 13.7835 271.852 15.6908C272.642 17.5982 273.98 19.2284 275.696 20.3754C277.413 21.5224 279.431 22.1346 281.495 22.1346C284.263 22.1314 286.916 21.0307 288.873 19.0738C290.83 17.1169 291.931 14.4637 291.934 11.6963Z" fill="#CCCCCC"/>
<path d="M281.495 18.4505C285.226 18.4505 288.25 15.4265 288.25 11.6963C288.25 7.96608 285.226 4.94214 281.495 4.94214C277.765 4.94214 274.741 7.96608 274.741 11.6963C274.741 15.4265 277.765 18.4505 281.495 18.4505Z" fill="#00A4B9"/>
<path d="M242.198 22.7486C248.302 22.7486 253.251 17.8003 253.251 11.6963C253.251 5.59231 248.302 0.644043 242.198 0.644043C236.094 0.644043 231.146 5.59231 231.146 11.6963C231.146 17.8003 236.094 22.7486 242.198 22.7486Z" fill="#CCCCCC"/>
<path d="M202.901 22.7486C209.005 22.7486 213.954 17.8003 213.954 11.6963C213.954 5.59231 209.005 0.644043 202.901 0.644043C196.797 0.644043 191.849 5.59231 191.849 11.6963C191.849 17.8003 196.797 22.7486 202.901 22.7486Z" fill="#CCCCCC"/>
<path d="M389.562 212.479H107.729C104.962 212.476 102.309 211.375 100.352 209.418C98.3949 207.461 97.2941 204.808 97.291 202.041V54.0632C97.2941 51.2958 98.3949 48.6426 100.352 46.6857C102.309 44.7289 104.962 43.6281 107.729 43.625H389.562C392.329 43.6281 394.982 44.7289 396.939 46.6857C398.896 48.6426 399.997 51.2958 400 54.0632V202.041C399.997 204.808 398.896 207.461 396.939 209.418C394.982 211.375 392.329 212.476 389.562 212.479ZM107.729 44.853C105.287 44.8558 102.946 45.827 101.22 47.5537C99.493 49.2803 98.5218 51.6214 98.519 54.0632V202.041C98.5218 204.483 99.493 206.824 101.22 208.55C102.946 210.277 105.287 211.248 107.729 211.251H389.562C392.004 211.248 394.345 210.277 396.071 208.55C397.798 206.824 398.769 204.483 398.772 202.041V54.0632C398.769 51.6214 397.798 49.2803 396.071 47.5537C394.345 45.827 392.004 44.8558 389.562 44.853H107.729Z" fill="#3F3D56"/>
<path d="M203.515 173.182H131.062C128.294 173.179 125.641 172.078 123.684 170.121C121.727 168.164 120.627 165.511 120.624 162.744V90.2901C120.627 87.5226 121.727 84.8694 123.684 82.9125C125.641 80.9557 128.294 79.8549 131.062 79.8518H203.515C206.283 79.8549 208.936 80.9557 210.893 82.9125C212.85 84.8694 213.951 87.5226 213.954 90.2901V162.744C213.951 165.511 212.85 168.164 210.893 170.121C208.936 172.078 206.283 173.179 203.515 173.182ZM131.062 81.0798C128.62 81.0826 126.279 82.0538 124.552 83.7805C122.826 85.5072 121.854 87.8482 121.852 90.2901V162.744C121.854 165.186 122.826 167.527 124.552 169.253C126.279 170.98 128.62 171.951 131.062 171.954H203.515C205.957 171.951 208.298 170.98 210.025 169.253C211.752 167.527 212.723 165.186 212.726 162.744V90.2901C212.723 87.8482 211.752 85.5072 210.025 83.7805C208.298 82.0538 205.957 81.0826 203.515 81.0798H131.062Z" fill="#CCCCCC"/>
<path d="M382.186 119.149H242.805C241.502 119.149 240.253 118.631 239.332 117.71C238.411 116.789 237.893 115.539 237.893 114.237C237.893 112.934 238.411 111.684 239.332 110.763C240.253 109.842 241.502 109.324 242.805 109.324H382.186C383.489 109.324 384.739 109.842 385.66 110.763C386.581 111.684 387.099 112.934 387.099 114.237C387.099 115.539 386.581 116.789 385.66 117.71C384.739 118.631 383.489 119.149 382.186 119.149Z" fill="#CCCCCC"/>
<path d="M311.575 98.2722H242.805C241.502 98.2722 240.253 97.7547 239.332 96.8335C238.411 95.9123 237.893 94.6629 237.893 93.3601C237.893 92.0573 238.411 90.8079 239.332 89.8867C240.253 88.9655 241.502 88.448 242.805 88.448H311.575C312.878 88.448 314.127 88.9655 315.048 89.8867C315.969 90.8079 316.487 92.0573 316.487 93.3601C316.487 94.6629 315.969 95.9123 315.048 96.8335C314.127 97.7547 312.878 98.2722 311.575 98.2722Z" fill="#CCCCCC"/>
<path d="M382.186 160.288H242.805C241.502 160.288 240.253 159.77 239.332 158.849C238.411 157.928 237.893 156.679 237.893 155.376C237.893 154.073 238.411 152.824 239.332 151.902C240.253 150.981 241.502 150.464 242.805 150.464H382.186C383.489 150.464 384.739 150.981 385.66 151.902C386.581 152.824 387.099 154.073 387.099 155.376C387.099 156.679 386.581 157.928 385.66 158.849C384.739 159.77 383.489 160.288 382.186 160.288Z" fill="#CCCCCC"/>
<path d="M311.575 139.411H242.805C241.502 139.411 240.253 138.894 239.332 137.972C238.411 137.051 237.893 135.802 237.893 134.499C237.893 133.196 238.411 131.947 239.332 131.026C240.253 130.104 241.502 129.587 242.805 129.587H311.575C312.878 129.587 314.127 130.104 315.048 131.026C315.969 131.947 316.487 133.196 316.487 134.499C316.487 135.802 315.969 137.051 315.048 137.972C314.127 138.894 312.878 139.411 311.575 139.411Z" fill="#CCCCCC"/>
<path d="M210.616 170.143C210.535 170.143 210.454 170.127 210.379 170.096C210.304 170.064 210.236 170.018 210.179 169.96L124.452 83.0782C124.396 83.0209 124.351 82.9529 124.321 82.8782C124.29 82.8035 124.275 82.7235 124.275 82.6429C124.276 82.5623 124.292 82.4826 124.324 82.4083C124.355 82.334 124.401 82.2667 124.458 82.2101C124.516 82.1535 124.584 82.1087 124.658 82.0783C124.733 82.048 124.813 82.0327 124.893 82.0332C124.974 82.0338 125.054 82.0502 125.128 82.0815C125.202 82.1129 125.27 82.1586 125.326 82.216L211.053 169.098C211.138 169.184 211.196 169.294 211.219 169.413C211.242 169.531 211.23 169.655 211.183 169.766C211.136 169.878 211.057 169.973 210.957 170.04C210.856 170.107 210.737 170.143 210.616 170.143Z" fill="#CCCCCC"/>
<path d="M123.961 170.143C123.84 170.143 123.722 170.107 123.621 170.04C123.52 169.973 123.441 169.878 123.395 169.766C123.348 169.654 123.335 169.531 123.358 169.413C123.381 169.294 123.439 169.184 123.524 169.098L209.248 82.216C209.305 82.1584 209.372 82.1126 209.447 82.0811C209.521 82.0496 209.601 82.0331 209.681 82.0325C209.762 82.0319 209.842 82.0472 209.917 82.0775C209.992 82.1079 210.06 82.1526 210.117 82.2093C210.175 82.266 210.221 82.3334 210.252 82.4078C210.283 82.4822 210.3 82.562 210.3 82.6427C210.301 82.7234 210.285 82.8034 210.255 82.8781C210.224 82.9529 210.179 83.0209 210.123 83.0783L124.398 169.96C124.341 170.018 124.273 170.065 124.198 170.096C124.123 170.127 124.043 170.143 123.961 170.143Z" fill="#CCCCCC"/>
<path d="M377.895 194.365H338.598C336.074 194.365 333.653 193.363 331.869 191.578C330.084 189.793 329.081 187.372 329.081 184.848C329.081 182.324 330.084 179.903 331.869 178.119C333.653 176.334 336.074 175.331 338.598 175.331H377.895C380.419 175.331 382.84 176.334 384.625 178.119C386.41 179.903 387.412 182.324 387.412 184.848C387.412 187.372 386.41 189.793 384.625 191.578C382.84 193.363 380.419 194.365 377.895 194.365Z" fill="#00A4B9"/>
<path d="M5.13062 356.91H189.949C190.112 356.91 190.268 356.845 190.383 356.73C190.498 356.615 190.563 356.459 190.563 356.296C190.563 356.133 190.498 355.977 190.383 355.862C190.268 355.747 190.112 355.682 189.949 355.682H5.13062C4.96777 355.682 4.81158 355.747 4.69643 355.862C4.58128 355.977 4.5166 356.133 4.5166 356.296C4.5166 356.459 4.58128 356.615 4.69643 356.73C4.81158 356.845 4.96777 356.91 5.13062 356.91Z" fill="#3F3D56"/>
<path d="M120.521 349.879L128.049 349.878L131.63 320.843L120.52 320.843L120.521 349.879Z" fill="#A0616A"/>
<path d="M142.567 356.868L118.908 356.869L118.908 347.728L133.426 347.727C135.85 347.727 138.175 348.69 139.889 350.404C141.604 352.118 142.567 354.443 142.567 356.868Z" fill="#2F2E41"/>
<path d="M65.9014 341.352L72.7482 344.479L88.0704 319.556L77.9643 314.941L65.9014 341.352Z" fill="#A0616A"/>
<path d="M83.0498 356.869L61.5299 347.039L65.3275 338.725L78.533 344.756C80.7381 345.764 82.4528 347.606 83.2999 349.877C84.147 352.149 84.057 354.664 83.0498 356.869Z" fill="#2F2E41"/>
<path d="M87.8232 251.978C87.102 251.435 86.5086 250.741 86.0847 249.944C85.6608 249.147 85.4169 248.267 85.37 247.366C85.3231 246.464 85.4744 245.563 85.8133 244.727C86.1521 243.89 86.6703 243.138 87.3313 242.523L78.4824 222.445L89.7242 224.35L96.4038 243.125C97.3628 244.304 97.8561 245.793 97.7902 247.312C97.7242 248.83 97.1036 250.271 96.0459 251.363C94.9883 252.454 93.567 253.119 92.0515 253.233C90.536 253.346 89.0316 252.9 87.8232 251.978Z" fill="#A0616A"/>
<path d="M118.256 339.774L111.034 276.7C110.975 276.192 110.738 275.722 110.365 275.374C109.991 275.025 109.506 274.821 108.996 274.798C108.485 274.775 107.984 274.934 107.58 275.248C107.177 275.561 106.898 276.008 106.794 276.508L103.214 293.758C103.164 294.002 103.08 294.238 102.966 294.46L82.0081 335.211C81.6994 335.811 81.1821 336.277 80.5536 336.522C79.9251 336.767 79.2287 336.773 78.5958 336.54L71.3084 333.855C70.9647 333.728 70.6495 333.535 70.3813 333.285C70.1131 333.036 69.8972 332.735 69.7462 332.401C69.5951 332.068 69.512 331.707 69.5016 331.341C69.4912 330.975 69.5537 330.61 69.6855 330.269L86.746 286.027C86.8364 285.793 86.885 285.545 86.8896 285.294L87.7612 239.099C87.7742 238.422 88.0354 237.773 88.4952 237.275C88.955 236.778 89.5814 236.467 90.2555 236.401L135.53 231.984C135.93 231.945 136.334 231.994 136.714 232.127C137.094 232.261 137.44 232.475 137.728 232.756C138.016 233.037 138.239 233.378 138.382 233.754C138.524 234.13 138.583 234.533 138.554 234.934L130.948 339.66C130.895 340.355 130.582 341.005 130.071 341.48C129.561 341.955 128.89 342.22 128.192 342.223H121.001C120.323 342.223 119.668 341.973 119.161 341.522C118.655 341.07 118.333 340.448 118.256 339.774Z" fill="#2F2E41"/>
<path d="M117.42 153.049C125.749 153.049 132.501 146.297 132.501 137.969C132.501 129.64 125.749 122.888 117.42 122.888C109.091 122.888 102.339 129.64 102.339 137.969C102.339 146.297 109.091 153.049 117.42 153.049Z" fill="#A0616A"/>
<path d="M130.49 161.288C130.077 161.091 129.667 160.901 129.26 160.719C124.308 158.491 118.852 157.624 113.453 158.207C108.054 158.79 102.909 160.802 98.5468 164.035C90.5148 170.018 86.6434 179.025 87.9252 188.747C90.6273 209.239 87.5336 237.035 87.2124 239.804C112.004 251.204 133.754 236.871 135.684 235.539L130.49 161.288Z" fill="#00A4B9"/>
<path d="M86.5365 239.54C86.0848 239.468 85.658 239.285 85.2947 239.007C84.9313 238.73 84.6428 238.366 84.4552 237.949L71.8005 209.91C71.3263 208.861 71.1169 207.711 71.1907 206.562C71.2646 205.414 71.6194 204.301 72.2239 203.321L87.7642 178.105C88.2533 177.197 89.0061 176.458 89.9235 175.986C90.8409 175.515 91.8797 175.332 92.9029 175.463C93.9261 175.594 94.8857 176.032 95.655 176.719C96.4243 177.406 96.9673 178.31 97.2123 179.312C97.4902 180.454 97.3667 181.656 96.8626 182.717L85.3669 206.858L92.9223 232.43C93.056 232.887 93.0698 233.371 92.9624 233.835C92.8551 234.299 92.6302 234.728 92.3094 235.08L89.0105 238.679C88.7524 238.961 88.4383 239.187 88.0882 239.341C87.738 239.496 87.3596 239.575 86.9769 239.575C86.8294 239.575 86.6821 239.563 86.5365 239.54Z" fill="#00A4B9"/>
<path opacity="0.2" d="M121.764 233.681L119.424 186.893L120.031 186.813L130.548 236.305H124.523C123.814 236.306 123.132 236.033 122.619 235.545C122.105 235.056 121.799 234.389 121.764 233.681Z" fill="black"/>
<path d="M130.098 248.61C129.505 247.929 129.069 247.127 128.82 246.259C128.571 245.391 128.515 244.48 128.656 243.588C128.797 242.697 129.132 241.847 129.638 241.099C130.143 240.351 130.806 239.723 131.58 239.259L127.093 217.781L137.694 221.978L140.33 241.731C141.023 243.083 141.197 244.643 140.817 246.114C140.437 247.586 139.531 248.867 138.27 249.715C137.008 250.563 135.48 250.919 133.974 250.715C132.468 250.511 131.089 249.762 130.098 248.61Z" fill="#A0616A"/>
<path d="M127.98 234.013L119.12 174.949L119.112 174.894L120.824 167.016C121.253 165.042 122.387 163.292 124.013 162.094C125.639 160.896 127.645 160.331 129.657 160.505C131.67 160.68 133.549 161.581 134.945 163.041C136.341 164.501 137.156 166.419 137.24 168.437L139.898 232.775C139.925 233.474 139.687 234.156 139.232 234.687C138.776 235.217 138.137 235.556 137.443 235.635L131.017 236.349C130.914 236.361 130.81 236.367 130.706 236.367C130.044 236.367 129.405 236.129 128.905 235.697C128.404 235.265 128.076 234.667 127.98 234.013Z" fill="#00A4B9"/>
<path d="M111.222 151.665C109.17 151.647 107.166 151.049 105.441 149.94C103.715 148.83 102.339 147.255 101.472 145.396C100.074 142.439 99.2969 140.083 99.1628 138.394C98.8022 133.855 101.367 126.722 104.763 122.818C108.49 118.535 114.387 117.937 120.091 117.36C121.649 117.202 123.26 117.038 124.786 116.801C126.094 116.598 127.723 116.345 129.107 116.859C129.507 117.005 129.873 117.232 130.183 117.525C130.492 117.818 130.739 118.171 130.907 118.562C130.962 118.699 131.044 118.824 131.148 118.929C131.253 119.033 131.377 119.116 131.515 119.17C131.633 119.216 131.76 119.236 131.887 119.23C132.014 119.224 132.138 119.192 132.252 119.135C132.484 119.017 132.74 118.956 132.999 118.956C133.259 118.956 133.515 119.017 133.747 119.135C133.951 119.238 134.129 119.387 134.264 119.572C134.4 119.756 134.49 119.97 134.527 120.196C134.551 120.351 134.599 120.502 134.669 120.642C134.789 120.86 134.953 121.051 135.152 121.201C135.35 121.351 135.578 121.457 135.82 121.513C136.19 121.596 136.518 121.811 136.74 122.118C136.963 122.425 137.066 122.802 137.029 123.18C136.938 123.955 136.898 124.79 136.861 125.599C136.718 128.641 136.572 131.787 133.513 131.736C132.731 131.704 131.956 131.567 131.21 131.33C130.102 131.022 129.227 130.778 128.048 131.513C126.236 132.642 125.94 135.004 125.679 137.088L125.633 137.452C125.328 139.835 124.069 142.703 121.522 142.943C120.714 142.969 119.909 142.83 119.156 142.533C118.382 142.19 117.524 142.087 116.691 142.237C115.292 142.636 114.619 144.306 114.677 145.75C114.714 146.341 114.79 146.93 114.903 147.511C115.109 148.432 115.175 149.379 115.099 150.319C115.026 150.891 114.369 151.268 113.031 151.505C112.433 151.611 111.828 151.665 111.222 151.665Z" fill="#2F2E41"/>
</g>
<defs>
<clipPath id="clip0_716_50089">
<rect width="400" height="356.94" fill="white" transform="translate(0 0.0300293)"/>
</clipPath>
</defs>
</svg>
