<svg width="241" height="63" viewBox="0 0 241 63" fill="none" xmlns="http://www.w3.org/2000/svg">
<path d="M17.6349 0.0739746C18.588 0.21979 19.2849 0.694623 19.541 1.61812C19.8499 2.73603 19.3903 3.59971 18.3808 4.24653C18.441 4.51199 18.4523 4.78118 18.5578 5.00925C19.541 7.25256 20.4978 9.5183 21.5601 11.7242C22.095 12.8309 22.7844 13.8778 23.5001 14.8836C24.1481 15.7921 24.4908 15.822 25.361 15.1266C25.911 14.6854 26.3857 14.1507 26.8339 13.6049C28.3332 11.7766 29.4972 9.74637 30.5482 7.64888C30.6085 7.53298 30.6612 7.40586 30.6913 7.27873C30.7139 7.19648 30.6951 7.10301 30.6951 6.95345C30.5934 6.81886 30.4502 6.65061 30.3222 6.47114C29.8965 5.87667 29.8814 5.21863 30.2883 4.61667C30.6913 4.0222 31.2715 3.80908 31.9683 3.89134C32.5296 3.95864 33.0909 4.62415 33.1549 5.25602C33.2416 6.18325 32.9139 6.71791 31.9081 7.19648C31.8403 7.3909 31.731 7.63019 31.6745 7.88069C31.0906 10.3745 30.5444 12.8721 29.9266 15.3546C29.7561 16.0466 29.4508 17.096 29.1621 18.0727C28.9618 18.7504 28.1375 19.0146 27.5476 18.6256C24.5999 16.6819 21.1086 15.6126 17.5068 15.6126C13.8884 15.6126 10.7243 16.5638 7.92132 18.3174C7.35606 18.6711 6.58953 18.4365 6.35644 17.8118C5.73566 16.1481 5.03567 14.3283 4.73669 13.1562C4.34869 11.6644 4.13398 10.1277 3.84015 8.6135C3.80625 8.43778 3.75728 8.26953 3.73844 8.0938C3.6744 7.54419 3.38058 7.17405 2.91724 6.88242C2.06966 6.34776 1.89261 5.59625 2.36725 4.71388C2.67615 4.13436 3.15079 3.82404 3.83262 3.8876C4.48054 3.94742 4.90621 4.30635 5.12847 4.87839C5.34695 5.4467 5.30928 6.00753 4.93635 6.51601C4.7932 6.71043 4.65759 6.90859 4.48431 7.15909C4.87607 7.87695 5.23394 8.53873 5.59934 9.18929C6.688 11.1484 7.8407 13.0627 9.42284 14.6742C9.67147 14.9209 9.94269 15.164 10.2365 15.3546C10.8392 15.7397 11.2649 15.6837 11.6793 15.0967C12.3159 14.1993 12.9902 13.2983 13.4761 12.3187C14.4706 10.3222 15.3446 8.26953 16.2675 6.2356C16.5462 5.61495 16.8062 4.98308 17.0849 4.32131C16.9493 4.22036 16.8401 4.11193 16.712 4.04089C15.8946 3.55858 15.5216 2.80707 15.6459 1.92097C15.7665 1.02364 16.3767 0.432904 17.2657 0.167446L17.6424 0.0739746H17.6349Z" fill="white"/>
<path d="M8.06563 11.1143C8.53923 10.2629 8.96944 9.45258 9.43581 8.66838C9.7178 8.19413 9.73588 7.79083 9.37435 7.34645C9.02367 6.91701 9.00921 6.41288 9.26589 5.92742C9.51173 5.46811 9.90218 5.23285 10.4228 5.25152C11.2434 5.27766 11.8219 6.16642 11.5073 7.01036C11.3772 7.36512 11.1097 7.6676 10.8711 8.04476C11.3664 8.92605 11.887 9.85215 12.4076 10.782C12.5052 10.9538 12.6425 11.1181 12.6751 11.301C12.7185 11.5214 12.7618 11.8313 12.6498 11.9807C12.1328 12.6753 11.5652 13.3325 10.806 13.7657C10.7698 13.7843 10.7228 13.7769 10.5999 13.7918C9.49004 13.2503 8.76699 12.2346 8.06201 11.1069L8.06563 11.1143Z" fill="white"/>
<path d="M27.2117 11.1143C26.7381 10.2629 26.3079 9.45258 25.8415 8.66838C25.5595 8.19413 25.5415 7.79083 25.903 7.34645C26.2537 6.91701 26.2681 6.41288 26.0115 5.92742C25.7656 5.46811 25.3752 5.23285 24.8546 5.25152C24.0339 5.27766 23.4555 6.16642 23.77 7.01036C23.9001 7.36512 24.1677 7.6676 24.4063 8.04476C23.911 8.92605 23.3904 9.85215 22.8698 10.782C22.7722 10.9538 22.6348 11.1181 22.6023 11.301C22.5589 11.5214 22.5155 11.8313 22.6276 11.9807C23.1446 12.6753 23.7121 13.3325 24.4713 13.7657C24.5075 13.7843 24.5545 13.7769 24.6774 13.7918C25.7873 13.2503 26.5104 12.2346 27.2153 11.1069L27.2117 11.1143Z" fill="white"/>
<path fill-rule="evenodd" clip-rule="evenodd" d="M17.5071 17.4155C22.6671 17.4155 27.2907 19.6518 30.4525 23.2275H30.4562C33.108 26.2367 34.721 30.1876 34.721 34.4988C34.721 42.7384 21.6169 57.2852 18.2777 60.8572C18.1306 61.0167 18.0025 61.1521 17.8958 61.2648C17.8244 61.3403 17.7625 61.4056 17.711 61.4613C17.6027 61.5819 17.4169 61.5803 17.3068 61.4613C16.9027 61.041 15.9356 60.0017 14.6362 58.5534C9.74056 53.0416 0.296875 41.4927 0.296875 34.4988C0.296875 30.4428 1.72476 26.7132 4.1159 23.7753C7.26632 19.8994 12.0939 17.4155 17.5071 17.4155ZM28.2498 33.8511C28.2498 39.7834 23.4407 44.5924 17.5084 44.5924C11.5761 44.5924 6.76707 39.7834 6.76707 33.8511C6.76707 27.9188 11.5761 23.1097 17.5084 23.1097C23.4407 23.1097 28.2498 27.9188 28.2498 33.8511Z" fill="white"/>
<path d="M18.8083 26.9921H12.7207V41.2923H16.6678V37.3426H18.8083C21.847 37.3426 24.1065 35.1581 24.1065 32.1583C24.1065 29.1585 21.847 26.9921 18.8083 26.9921ZM18.3373 33.9028H16.6678V30.4319H18.3373C19.3726 30.4319 20.0559 31.1488 20.0559 32.1686C20.0559 33.1884 19.3726 33.9054 18.3373 33.9054V33.9028Z" fill="white"/>
<path d="M219.44 57.0089C220.091 57.2414 220.753 57.4332 221.428 57.5844C222.102 57.7471 222.753 57.875 223.381 57.968C224.02 58.0726 224.63 58.1424 225.211 58.1772C225.793 58.2237 226.31 58.247 226.763 58.247C228.135 58.247 229.327 58.0784 230.338 57.7413C231.361 57.4158 232.21 56.974 232.884 56.416C233.57 55.858 234.081 55.207 234.419 54.463C234.756 53.7306 234.924 52.9517 234.924 52.1264V51.237C234.483 51.5393 233.965 51.8299 233.372 52.1089C232.779 52.3879 232.128 52.6321 231.419 52.8413C230.71 53.0506 229.955 53.2191 229.152 53.347C228.362 53.4749 227.542 53.5388 226.694 53.5388C225.008 53.5388 223.45 53.2889 222.02 52.789C220.591 52.2775 219.352 51.5684 218.306 50.6616C217.26 49.7432 216.44 48.6446 215.847 47.3659C215.266 46.0871 214.976 44.6689 214.976 43.1111C214.976 41.5184 215.284 40.0769 215.9 38.7865C216.516 37.4845 217.365 36.3743 218.446 35.456C219.538 34.5376 220.829 33.8284 222.317 33.3286C223.805 32.8287 225.421 32.5787 227.165 32.5787C227.909 32.5787 228.647 32.6252 229.379 32.7182C230.111 32.8112 230.809 32.9391 231.472 33.1019C232.146 33.2646 232.774 33.4622 233.355 33.6947C233.948 33.9156 234.471 34.1598 234.924 34.4271V32.9449H240.086V51.1673C240.086 53.0389 239.801 54.6955 239.231 56.137C238.662 57.5785 237.825 58.7876 236.72 59.7641C235.628 60.7522 234.267 61.4962 232.64 61.9961C231.012 62.5076 229.147 62.7633 227.042 62.7633C226.287 62.7633 225.502 62.7285 224.688 62.6587C223.875 62.6006 223.055 62.5076 222.23 62.3797C221.416 62.2635 220.608 62.1181 219.806 61.9438C219.015 61.781 218.254 61.5892 217.521 61.3683L219.44 57.0089ZM220.399 43.0588C220.399 43.8842 220.561 44.663 220.887 45.3954C221.224 46.1162 221.701 46.7497 222.317 47.2961C222.933 47.8309 223.677 48.2552 224.549 48.5691C225.421 48.8713 226.403 49.0225 227.496 49.0225C228.205 49.0225 228.908 48.9585 229.606 48.8306C230.315 48.6911 230.989 48.4993 231.629 48.2552C232.28 48.0111 232.884 47.7146 233.442 47.3659C234.012 47.0171 234.506 46.6277 234.924 46.1976V39.4143C234.401 38.9958 233.849 38.6412 233.268 38.3506C232.686 38.06 232.094 37.8217 231.489 37.6357C230.885 37.4497 230.274 37.316 229.658 37.2346C229.042 37.1416 228.443 37.0951 227.862 37.0951C226.676 37.0951 225.618 37.252 224.688 37.5659C223.77 37.8798 222.991 38.3099 222.352 38.8563C221.724 39.3911 221.242 40.0188 220.904 40.7396C220.567 41.4603 220.399 42.2334 220.399 43.0588Z" fill="white"/>
<path d="M187.581 32.9449H192.742V34.6887C194.114 33.9098 195.422 33.3634 196.666 33.0496C197.921 32.7357 199.148 32.5787 200.345 32.5787C201.914 32.5787 203.367 32.8112 204.704 33.2762C206.041 33.7296 207.198 34.4097 208.174 35.3164C209.151 36.2232 209.912 37.3567 210.459 38.7168C211.017 40.0653 211.296 41.6289 211.296 43.4075V53.5214H206.152V44.2445C206.152 43.1169 205.989 42.1113 205.663 41.2278C205.35 40.3327 204.89 39.5829 204.286 38.9784C203.693 38.3622 202.966 37.8972 202.106 37.5833C201.258 37.2578 200.304 37.0951 199.246 37.0951C198.688 37.0951 198.113 37.1532 197.52 37.2695C196.939 37.3857 196.363 37.5543 195.794 37.7752C195.236 37.9844 194.695 38.2518 194.172 38.5773C193.649 38.8912 193.172 39.2516 192.742 39.6584V53.5214H187.581V32.9449Z" fill="white"/>
<path d="M179.8 30.1374C179.289 30.1374 178.824 30.0677 178.405 29.9282C177.998 29.777 177.65 29.5794 177.359 29.3353C177.068 29.0795 176.842 28.7889 176.679 28.4634C176.528 28.1263 176.452 27.7717 176.452 27.3997C176.452 27.0161 176.528 26.6615 176.679 26.336C176.842 25.9989 177.068 25.7082 177.359 25.4641C177.65 25.22 177.998 25.0282 178.405 24.8887C178.824 24.7376 179.289 24.662 179.8 24.662C180.323 24.662 180.788 24.7376 181.195 24.8887C181.614 25.0282 181.968 25.22 182.259 25.4641C182.55 25.7082 182.77 25.9989 182.922 26.336C183.084 26.6615 183.166 27.0161 183.166 27.3997C183.166 27.7717 183.084 28.1263 182.922 28.4634C182.77 28.7889 182.55 29.0795 182.259 29.3353C181.968 29.5794 181.614 29.777 181.195 29.9282C180.788 30.0677 180.323 30.1374 179.8 30.1374ZM177.219 32.9449H182.381V53.5213H177.219V32.9449Z" fill="white"/>
<path d="M149.441 26.2662H154.969V40.3733L169.355 26.2662H176.434L163.007 39.2747L176.434 53.5213H169.076L159.032 43.1285L154.969 47.0519V53.5213H149.441V26.2662Z" fill="white"/>
<path d="M123.456 24.5922H128.618V41.6811L138.243 32.9448H146.142L135.383 42.5704L146.823 53.5213H139.08L131.425 46.1102L128.618 48.6213V53.5213H123.456V24.5922Z" fill="white"/>
<path d="M106.942 32.9449H112.104V35.9093C113.243 35.0606 114.446 34.3283 115.714 33.7121C116.981 33.096 118.242 32.6252 119.498 32.2997L121.015 37.0253C119.027 37.2229 117.277 37.6705 115.766 38.368C114.266 39.0539 113.046 40.0246 112.104 41.2801V53.5213H106.942V32.9449Z" fill="white"/>
<path d="M77.7148 47.0346C77.7148 46.0464 77.9299 45.1455 78.36 44.3317C78.7902 43.518 79.4354 42.8205 80.2956 42.2392C81.1559 41.6463 82.2254 41.1929 83.5041 40.8791C84.7945 40.5536 86.2942 40.3908 88.0031 40.3908C89.2702 40.3908 90.6013 40.4838 91.9963 40.6698C93.4029 40.8558 94.8503 41.1406 96.3383 41.5243C96.2801 40.8733 96.0825 40.2746 95.7454 39.7282C95.4083 39.1702 94.9374 38.6935 94.3329 38.2983C93.7401 37.8914 93.0193 37.5775 92.1707 37.3567C91.3337 37.1358 90.3804 37.0253 89.3109 37.0253C88.7296 37.0253 88.0903 37.0602 87.3928 37.13C86.6952 37.1997 85.9745 37.3043 85.2305 37.4438C84.4865 37.5833 83.7483 37.7577 83.0159 37.967C82.2951 38.1762 81.6209 38.4262 80.9931 38.7168L79.4237 34.4794C80.2026 34.2004 81.0338 33.9447 81.9173 33.7122C82.8125 33.4797 83.725 33.2821 84.655 33.1193C85.585 32.9449 86.5151 32.8112 87.4451 32.7182C88.3751 32.6252 89.276 32.5787 90.1479 32.5787C93.9958 32.5787 96.8556 33.5611 98.7272 35.5257C100.599 37.4903 101.535 40.5012 101.535 44.5584V53.5214H96.3731V51.5858C95.8384 51.8997 95.2513 52.1961 94.6119 52.4751C93.9842 52.7541 93.2983 52.9982 92.5543 53.2075C91.8103 53.4167 91.0082 53.5795 90.1479 53.6958C89.2993 53.8236 88.3983 53.8876 87.4451 53.8876C85.8408 53.8876 84.4283 53.7132 83.2077 53.3644C81.9987 53.0157 80.9873 52.5332 80.1736 51.9171C79.3598 51.301 78.7437 50.5802 78.3252 49.7548C77.9183 48.9178 77.7148 48.0111 77.7148 47.0346ZM83.1554 46.8602C83.1554 47.1973 83.2426 47.5228 83.417 47.8367C83.5913 48.1389 83.8703 48.4121 84.254 48.6563C84.6376 48.8888 85.1259 49.0806 85.7187 49.2317C86.3232 49.3712 87.0498 49.441 87.8984 49.441C88.8052 49.441 89.6829 49.3596 90.5315 49.1968C91.3802 49.0341 92.1707 48.819 92.9031 48.5516C93.6354 48.2843 94.2981 47.9762 94.8909 47.6274C95.4838 47.2787 95.9779 46.9183 96.3731 46.5463V45.6396C95.5826 45.4187 94.7979 45.2327 94.0191 45.0815C93.2518 44.9304 92.5136 44.8142 91.8045 44.7328C91.107 44.6398 90.4443 44.5759 89.8166 44.541C89.2005 44.5061 88.6599 44.4887 88.1949 44.4887C87.23 44.4887 86.4279 44.5526 85.7885 44.6805C85.1491 44.8084 84.6318 44.9827 84.2365 45.2036C83.8413 45.4129 83.5623 45.6628 83.3995 45.9534C83.2368 46.2441 83.1554 46.5463 83.1554 46.8602Z" fill="white"/>
<path d="M48.0879 26.2662H62.4565C64.5491 26.2662 66.3626 26.4929 67.8971 26.9463C69.4316 27.3997 70.7045 28.0565 71.7159 28.9168C72.7273 29.7654 73.4771 30.8058 73.9654 32.0381C74.4653 33.2704 74.7152 34.6596 74.7152 36.2057C74.7152 37.6588 74.4711 39.0015 73.9828 40.2338C73.4946 41.4661 72.7448 42.5356 71.7334 43.4423C70.7336 44.3375 69.4665 45.0408 67.932 45.5523C66.3974 46.0522 64.5839 46.3021 62.4914 46.3021L53.6156 46.2847V53.5213H48.0879V26.2662ZM62.596 41.5068C63.6423 41.5068 64.5549 41.3847 65.3337 41.1406C66.1243 40.8848 66.7811 40.5302 67.3042 40.0769C67.839 39.6119 68.2342 39.0539 68.49 38.4029C68.7573 37.7402 68.891 37.0078 68.891 36.2057C68.891 34.5898 68.3621 33.3343 67.3042 32.4392C66.2579 31.5324 64.6886 31.079 62.596 31.079H53.6156V41.5068H62.596Z" fill="white"/>
</svg>
