<svg width="32" height="56" viewBox="0 0 32 56" fill="none" xmlns="http://www.w3.org/2000/svg">
<path d="M16.0982 0C16.9521 0.13064 17.5765 0.556058 17.806 1.38345C18.0827 2.38502 17.671 3.15881 16.7665 3.73832C16.8205 3.97615 16.8306 4.21733 16.9251 4.42167C17.806 6.43151 18.6632 8.46146 19.6149 10.4378C20.0942 11.4293 20.7118 12.3673 21.353 13.2683C21.9335 14.0823 22.2407 14.1091 23.0203 13.4861C23.513 13.0908 23.9383 12.6118 24.3399 12.1227C25.6831 10.4847 26.726 8.6658 27.6676 6.78659C27.7216 6.68274 27.7689 6.56885 27.7959 6.45496C27.8161 6.38127 27.7992 6.29752 27.7992 6.16353C27.7081 6.04294 27.5799 5.8922 27.4651 5.73142C27.0837 5.19881 27.0702 4.60925 27.4347 4.06994C27.7959 3.53733 28.3156 3.3464 28.94 3.42009C29.4428 3.48039 29.9457 4.07664 30.0031 4.64275C30.0807 5.47349 29.7871 5.9525 28.886 6.38127C28.8252 6.55546 28.7274 6.76984 28.6767 6.99427C28.1536 9.22855 27.6642 11.4662 27.1107 13.6904C26.9665 14.2757 26.7146 15.1466 26.4692 15.9786C26.2693 16.6563 25.4444 16.9205 24.8508 16.5371C22.2372 14.8488 19.1582 13.9215 15.9835 13.9215C12.7923 13.9215 9.99546 14.7473 7.51349 16.2717C6.94532 16.6207 6.17836 16.3864 5.94492 15.7618C5.40124 14.3072 4.80241 12.7404 4.54232 11.7208C4.1947 10.3842 4.00233 9.00747 3.73908 7.65082C3.70871 7.49338 3.66483 7.34265 3.64796 7.18521C3.59058 6.69279 3.32734 6.36117 2.91221 6.09989C2.15285 5.62088 1.99422 4.94758 2.41947 4.15704C2.69621 3.63782 3.12146 3.3598 3.73233 3.41674C4.31282 3.47034 4.6942 3.79191 4.89332 4.30442C5.08907 4.81359 5.05532 5.31605 4.7212 5.77161C4.59295 5.9458 4.47145 6.12334 4.3162 6.34777C4.66719 6.99092 4.98782 7.58383 5.31519 8.16668C6.29056 9.92195 7.3233 11.637 8.74078 13.0808C8.96353 13.3018 9.20653 13.5196 9.46978 13.6904C10.0098 14.0354 10.3911 13.9852 10.7624 13.4593C11.3328 12.6553 11.9369 11.8481 12.3723 10.9704C13.2632 9.18166 14.0462 7.34265 14.8731 5.52038C15.1228 4.96432 15.3557 4.39822 15.6055 3.80531C15.484 3.71487 15.3861 3.61773 15.2714 3.55408C14.539 3.12196 14.2049 2.44866 14.3162 1.65477C14.4242 0.850836 14.971 0.321576 15.7675 0.0837437L16.105 0H16.0982Z" fill="#0977BA"/>
<path d="M7.52326 9.89227C7.94757 9.12946 8.33301 8.40345 8.75085 7.70087C9.00349 7.27597 9.01969 6.91464 8.69578 6.51651C8.3816 6.13176 8.36864 5.68009 8.59861 5.24516C8.81887 4.83364 9.16868 4.62287 9.6351 4.6396C10.3704 4.66302 10.8886 5.45928 10.6068 6.2154C10.4902 6.53323 10.2505 6.80423 10.0367 7.14214C10.4805 7.93172 10.9469 8.76144 11.4133 9.59451C11.5008 9.74841 11.6239 9.89561 11.653 10.0596C11.6919 10.2569 11.7307 10.5346 11.6303 10.6685C11.1672 11.2908 10.6586 11.8796 9.97844 12.2677C9.94605 12.2844 9.90394 12.2777 9.79381 12.2911C8.79943 11.806 8.15163 10.896 7.52002 9.88558L7.52326 9.89227Z" fill="#0977BA"/>
<path d="M24.6789 9.89227C24.2546 9.12946 23.8691 8.40345 23.4513 7.70087C23.1987 7.27597 23.1825 6.91464 23.5064 6.51651C23.8205 6.13176 23.8335 5.68009 23.6035 5.24516C23.3833 4.83364 23.0335 4.62287 22.5671 4.6396C21.8318 4.66302 21.3136 5.45928 21.5953 6.2154C21.712 6.53323 21.9516 6.80423 22.1654 7.14214C21.7217 7.93172 21.2552 8.76144 20.7888 9.59451C20.7014 9.74841 20.5783 9.89561 20.5491 10.0596C20.5103 10.2569 20.4714 10.5346 20.5718 10.6685C21.035 11.2908 21.5435 11.8796 22.2237 12.2677C22.2561 12.2844 22.2982 12.2777 22.4083 12.2911C23.4027 11.806 24.0505 10.896 24.6821 9.88558L24.6789 9.89227Z" fill="#0977BA"/>
<path fill-rule="evenodd" clip-rule="evenodd" d="M15.9982 15.5264C20.6212 15.5264 24.7637 17.5299 27.5964 20.7335H27.5998C29.9756 23.4295 31.4207 26.9693 31.4207 30.8318C31.4207 38.2138 19.6804 51.2468 16.6886 54.447C16.5569 54.59 16.4421 54.7112 16.3466 54.8122C16.2825 54.8798 16.2271 54.9384 16.181 54.9883C16.0839 55.0963 15.9175 55.0949 15.8188 54.9883C15.4567 54.6118 14.5903 53.6806 13.4261 52.383C9.03998 47.4448 0.579102 37.0978 0.579102 30.8318C0.579102 27.1979 1.85839 23.8564 4.00068 21.2243C6.82324 17.7518 11.1484 15.5264 15.9982 15.5264ZM25.6165 30.253C25.6165 35.5679 21.3079 39.8765 15.993 39.8765C10.6781 39.8765 6.36946 35.5679 6.36946 30.253C6.36946 24.9381 10.6781 20.6295 15.993 20.6295C21.3079 20.6295 25.6165 24.9381 25.6165 30.253Z" fill="#0977BA"/>
<path d="M17.1523 24.1174H11.6982V36.9294H15.2346V33.3908H17.1523C19.8747 33.3908 21.8992 31.4336 21.8992 28.746C21.8992 26.0584 19.8747 24.1174 17.1523 24.1174ZM16.7303 30.3089H15.2346V27.1993H16.7303C17.6579 27.1993 18.2701 27.8416 18.2701 28.7553C18.2701 29.6689 17.6579 30.3113 16.7303 30.3113V30.3089Z" fill="#0977BA"/>
</svg>
