<svg width="400" height="256" viewBox="0 0 400 256" fill="none" xmlns="http://www.w3.org/2000/svg">
<g clip-path="url(#clip0_719_53099)">
<path d="M79.2455 255.281L78.1831 255.261C78.594 243.448 79.8544 231.68 81.9545 220.048C86.5486 195.145 94.1878 178.789 104.66 171.437L105.27 172.306C80.807 189.482 79.258 254.625 79.2455 255.281Z" fill="#2F2E41"/>
<path d="M92.5258 255.028L91.4634 255.007C91.4862 253.83 92.1502 226.102 103.066 218.438L103.677 219.307C93.2007 226.662 92.531 254.745 92.5258 255.028Z" fill="#2F2E41"/>
<path d="M111.314 172.403C114.248 172.403 116.626 170.024 116.626 167.09C116.626 164.157 114.248 161.778 111.314 161.778C108.38 161.778 106.002 164.157 106.002 167.09C106.002 170.024 108.38 172.403 111.314 172.403Z" fill="#00A4B9"/>
<path d="M108.684 218.086C111.617 218.086 113.996 215.708 113.996 212.774C113.996 209.84 111.617 207.462 108.684 207.462C105.75 207.462 103.372 209.84 103.372 212.774C103.372 215.708 105.75 218.086 108.684 218.086Z" fill="#00A4B9"/>
<path d="M90.0497 175.587C91.048 181.964 88.4461 187.667 88.4461 187.667C88.4461 187.667 84.2255 183.032 83.2271 176.655C82.2288 170.279 84.8308 164.575 84.8308 164.575C84.8308 164.575 89.0514 169.21 90.0497 175.587Z" fill="#2F2E41"/>
<path d="M107.413 191.074C101.308 193.168 95.2388 191.6 95.2388 191.6C95.2388 191.6 99.0677 186.636 105.173 184.542C111.278 182.448 117.347 184.016 117.347 184.016C117.347 184.016 113.519 188.98 107.413 191.074Z" fill="#2F2E41"/>
<path d="M107.61 231.531C104.846 232.398 101.904 232.526 99.0762 231.899C100.872 229.613 103.29 227.895 106.039 226.952C108.789 226.009 111.752 225.881 114.573 226.584C112.725 228.814 110.324 230.52 107.61 231.531Z" fill="#2F2E41"/>
<path d="M322.269 248.315H315.289L311.968 221.391L322.271 221.391L322.269 248.315Z" fill="#9E616A"/>
<path d="M324.049 255.081L301.542 255.08V254.796C301.542 252.472 302.465 250.244 304.108 248.601C305.751 246.958 307.979 246.035 310.302 246.035L324.05 246.036L324.049 255.081Z" fill="#2F2E41"/>
<path d="M279.187 248.315H272.207L268.886 221.391L279.188 221.391L279.187 248.315Z" fill="#9E616A"/>
<path d="M280.967 255.081L258.46 255.08V254.796C258.46 252.472 259.383 250.244 261.026 248.601C262.669 246.958 264.897 246.035 267.22 246.035H267.221L280.968 246.036L280.967 255.081Z" fill="#2F2E41"/>
<path d="M261.773 97.5387L252.106 96.0449L248.983 101.072L215.372 109.64L215.463 110.103C214.512 109.111 213.264 108.455 211.908 108.235C210.551 108.015 209.16 108.243 207.945 108.884C206.73 109.526 205.756 110.545 205.172 111.789C204.588 113.033 204.425 114.433 204.708 115.778C204.99 117.123 205.703 118.339 206.739 119.242C207.774 120.146 209.076 120.687 210.447 120.785C211.817 120.882 213.182 120.531 214.336 119.783C215.489 119.036 216.367 117.933 216.837 116.642L257.541 108.153L261.773 97.5387Z" fill="#9E616A"/>
<path d="M358.329 91.5527C357.533 91.5534 356.744 91.7049 356.005 91.9994L356.198 91.663L313.465 69.5752L307.639 78.9935L352.067 98.7147C352.228 99.9183 352.733 101.05 353.521 101.974C354.309 102.898 355.346 103.576 356.509 103.926C357.672 104.277 358.911 104.284 360.078 103.949C361.245 103.613 362.291 102.949 363.09 102.035C363.89 101.12 364.409 99.9951 364.586 98.7936C364.762 97.5921 364.589 96.3651 364.087 95.2595C363.585 94.1538 362.775 93.2162 361.753 92.5588C360.732 91.9014 359.543 91.5521 358.329 91.5527Z" fill="#9E616A"/>
<path d="M290.916 33.9448C292.586 23.6533 285.597 13.9566 275.306 12.2865C265.014 10.6164 255.318 17.6055 253.647 27.8969C251.977 38.1884 258.966 47.8851 269.258 49.5552C279.549 51.2253 289.246 44.2362 290.916 33.9448Z" fill="#2F2E41"/>
<path d="M272.119 49.6366C278.77 49.6366 284.162 44.2448 284.162 37.5937C284.162 30.9426 278.77 25.5508 272.119 25.5508C265.468 25.5508 260.076 30.9426 260.076 37.5937C260.076 44.2448 265.468 49.6366 272.119 49.6366Z" fill="#A0616A"/>
<path d="M272.282 33.5246C279.472 33.5246 285.301 30.0272 285.301 25.713C285.301 21.3987 279.472 17.9014 272.282 17.9014C265.091 17.9014 259.262 21.3987 259.262 25.713C259.262 30.0272 265.091 33.5246 272.282 33.5246Z" fill="#2F2E41"/>
<path d="M273.584 19.8547C277.898 19.8547 281.395 16.3573 281.395 12.0431C281.395 7.72883 277.898 4.23145 273.584 4.23145C269.27 4.23145 265.772 7.72883 265.772 12.0431C265.772 16.3573 269.27 19.8547 273.584 19.8547Z" fill="#2F2E41"/>
<path d="M263.168 7.81159C263.169 5.88071 263.884 4.01829 265.176 2.58359C266.468 1.14888 268.246 0.243551 270.166 0.0422383C269.896 0.0141691 269.624 6.96375e-05 269.353 0C267.282 0.00241428 265.298 0.826484 263.835 2.29119C262.372 3.75589 261.55 5.74143 261.55 7.81163C261.55 9.88182 262.372 11.8674 263.835 13.3321C265.298 14.7968 267.282 15.6208 269.353 15.6233C269.624 15.6232 269.896 15.6091 270.166 15.581C268.246 15.3797 266.468 14.4744 265.176 13.0396C263.884 11.6049 263.168 9.74248 263.168 7.81159Z" fill="#2F2E41"/>
<path d="M265.858 67.4913L266.829 58.1545C266.829 58.1545 280.006 49.4706 284.485 54.603L311.251 100.4C311.251 100.4 327.89 106.315 327.302 128.904L326.506 238.088L307.639 240.157L296.182 155.03L285.831 243.225L263.865 242.537L265.841 184.436L276.315 128.113L276.215 109.424L271.602 101.881C271.602 101.881 263.152 98.4868 262.915 88.8935L262.73 75.4084L265.858 67.4913Z" fill="#2F2E41"/>
<path d="M279.675 57.1658L279.935 52.7891C279.935 52.7891 319.792 63.2921 316.63 70.8018C313.468 78.3114 307.54 80.6829 307.54 80.6829L284.615 71.5923L279.675 57.1658Z" fill="#2F2E41"/>
<path d="M269.259 68.0566L266.26 64.8584C266.26 64.8584 242.339 98.4249 249.573 102.175C256.807 105.926 262.881 103.957 262.881 103.957L274.689 82.3064L269.259 68.0566Z" fill="#2F2E41"/>
<path d="M221.378 177.356L371.477 147.394L358.933 84.5537L208.834 114.516L221.378 177.356Z" fill="white"/>
<path d="M372.705 148.213L220.559 178.584L207.606 113.696L359.753 83.3252L372.705 148.213ZM222.198 176.128L370.249 146.574L358.114 85.7819L210.063 115.335L222.198 176.128Z" fill="#E4E4E4"/>
<path d="M348.679 104.686L227.206 128.934L227.838 132.101L349.311 107.853L348.679 104.686Z" fill="#E4E4E4"/>
<path d="M351.14 117.018L229.667 141.266L230.3 144.433L351.772 120.185L351.14 117.018Z" fill="#E4E4E4"/>
<path d="M353.616 129.421L232.143 153.669L232.776 156.836L354.248 132.588L353.616 129.421Z" fill="#E4E4E4"/>
<path d="M290.64 124.366L286.391 125.215C286.081 125.276 285.759 125.212 285.495 125.036C285.232 124.861 285.049 124.588 284.987 124.278L282.978 114.215C282.917 113.905 282.981 113.583 283.156 113.32C283.332 113.056 283.605 112.874 283.915 112.811L288.164 111.963C288.474 111.902 288.796 111.966 289.059 112.141C289.323 112.317 289.505 112.59 289.568 112.9L291.576 122.962C291.638 123.273 291.574 123.595 291.398 123.858C291.223 124.121 290.95 124.304 290.64 124.366Z" fill="#00A4B9"/>
<path d="M339.032 127.53L334.783 128.378C334.473 128.439 334.151 128.375 333.887 128.2C333.624 128.024 333.441 127.751 333.379 127.441L331.371 117.378C331.309 117.068 331.373 116.746 331.549 116.483C331.724 116.22 331.997 116.037 332.307 115.974L336.556 115.126C336.866 115.065 337.188 115.129 337.451 115.304C337.715 115.48 337.897 115.753 337.96 116.063L339.968 126.126C340.03 126.436 339.966 126.758 339.79 127.021C339.615 127.284 339.342 127.467 339.032 127.53Z" fill="#00A4B9"/>
<path d="M312.825 145.658L308.577 146.507C308.266 146.568 307.944 146.504 307.681 146.328C307.418 146.153 307.235 145.88 307.173 145.57L305.164 135.507C305.102 135.197 305.166 134.875 305.342 134.612C305.518 134.348 305.79 134.166 306.101 134.103L310.349 133.255C310.66 133.194 310.982 133.258 311.245 133.433C311.508 133.609 311.691 133.882 311.753 134.192L313.762 144.254C313.823 144.565 313.759 144.887 313.584 145.15C313.408 145.413 313.135 145.596 312.825 145.658Z" fill="#00A4B9"/>
<path d="M399.469 255.485H0.531209C0.390323 255.485 0.255208 255.429 0.155587 255.33C0.055966 255.23 0 255.095 0 254.954C0 254.813 0.055966 254.678 0.155587 254.578C0.255208 254.479 0.390323 254.423 0.531209 254.423H399.469C399.61 254.423 399.745 254.479 399.844 254.578C399.944 254.678 400 254.813 400 254.954C400 255.095 399.944 255.23 399.844 255.33C399.745 255.429 399.61 255.485 399.469 255.485Z" fill="#CACACA"/>
</g>
<defs>
<clipPath id="clip0_719_53099">
<rect width="400" height="255.485" fill="white"/>
</clipPath>
</defs>
</svg>
