<svg width="400" height="457" viewBox="0 0 400 457" fill="none" xmlns="http://www.w3.org/2000/svg">
<g clip-path="url(#clip0_716_50014)">
<path d="M191.957 428.666L191.447 417.204C191.394 417.176 191.341 417.148 191.288 417.12C185.826 414.254 179.565 419.442 181.31 425.359C182.952 430.927 184.055 436.928 187.059 441.801C188.835 444.632 191.224 447.026 194.051 448.807C196.878 450.589 200.069 451.711 203.388 452.091L210.328 456.34C211.281 451.032 211.071 445.579 209.713 440.36C208.355 435.14 205.882 430.276 202.464 426.104C200.523 423.783 198.297 421.715 195.84 419.949C194.178 424.332 191.957 428.666 191.957 428.666Z" fill="#F2F2F2"/>
<path d="M129.822 312.343C116.461 298.564 97.0988 290.661 76.7002 290.661L75.9133 290.663C62.4773 290.668 49.2809 287.105 37.674 280.337L36.4662 279.633L37.439 278.63C42.7055 273.182 47.1031 266.956 50.4776 260.171C48.0809 262.405 45.2225 264.085 42.1044 265.093C38.9864 266.1 35.6851 266.409 32.4342 265.999C29.0019 265.59 25.707 264.409 22.7963 262.545C19.8857 260.681 17.435 258.181 15.6281 255.235C8.49853 243.667 0 227.253 0 214.749C0.0110982 204.18 2.2241 193.729 6.49795 184.062C10.7718 174.396 17.0127 165.725 24.823 158.604C29.7675 154.146 33.7169 148.696 36.4138 142.608C39.1106 136.521 40.4942 129.934 40.4745 123.276L40.4706 122.329C40.4692 113.564 41.5404 104.831 43.6601 96.3258L43.8754 95.4669L44.759 95.4978C50.4574 95.6917 56.1588 95.2141 61.7455 94.0747C56.5052 93.432 51.3788 92.0685 46.5115 90.0229L45.5609 89.6383L45.8835 88.6642C68.1227 74.8945 118.323 82.0252 147.461 15.3599C171.087 -38.6966 254.451 63.3459 254.451 122.329C254.451 128.347 248.494 136.301 252.953 140.279C301.154 183.281 267.896 210.894 257.41 238.679C254.923 245.272 260.317 252.509 260.317 259.641C260.317 260.851 260.286 262.1 260.225 263.354L260.132 265.281L258.525 264.212C255.346 262.129 252.399 259.711 249.734 257.001C252.498 263.362 253.801 270.262 253.546 277.193C253.292 284.124 251.486 290.91 248.263 297.051C243.212 306.585 238.325 313.41 233.738 317.336C219.046 329.909 200.105 336.395 180.789 335.467C161.474 334.539 143.242 326.267 129.822 312.343Z" fill="#E6E6E6"/>
<path d="M210.52 455.775C210.849 455.774 211.166 455.655 211.414 455.44C211.662 455.225 211.824 454.927 211.87 454.602C211.928 454.194 217.609 413.22 212.507 358.764C207.795 308.472 192.662 236.035 147.331 176.543C147.223 176.4 147.087 176.28 146.932 176.19C146.777 176.099 146.606 176.04 146.428 176.016C146.25 175.992 146.069 176.003 145.896 176.049C145.722 176.095 145.559 176.174 145.417 176.283C145.274 176.392 145.154 176.528 145.064 176.683C144.974 176.838 144.915 177.009 144.891 177.187C144.867 177.365 144.879 177.546 144.925 177.719C144.971 177.893 145.05 178.055 145.159 178.198C190.099 237.176 205.109 309.082 209.788 359.019C214.861 413.158 209.224 453.813 209.167 454.217C209.139 454.411 209.154 454.608 209.209 454.796C209.265 454.983 209.36 455.157 209.488 455.305C209.617 455.452 209.775 455.571 209.953 455.652C210.131 455.733 210.325 455.775 210.52 455.775Z" fill="#2F2E41"/>
<path d="M173.528 260.459C173.816 260.459 174.097 260.368 174.33 260.199C174.564 260.029 174.738 259.791 174.827 259.516C174.916 259.242 174.916 258.947 174.827 258.672C174.738 258.398 174.565 258.159 174.331 257.989C174.167 257.87 157.583 245.921 132.791 236.843C109.873 228.453 75.0224 220.846 39.1441 232.265C38.9731 232.319 38.8143 232.406 38.677 232.522C38.5397 232.638 38.4265 232.779 38.344 232.938C38.2614 233.098 38.2111 233.272 38.1958 233.451C38.1806 233.629 38.2008 233.809 38.2552 233.98C38.3096 234.151 38.3972 234.31 38.513 234.447C38.6288 234.584 38.7704 234.697 38.9299 234.78C39.0894 234.862 39.2635 234.912 39.4423 234.927C39.6212 234.942 39.8012 234.921 39.9721 234.867C75.1152 223.682 109.334 231.163 131.853 239.408C156.291 248.355 172.565 260.081 172.726 260.198C172.959 260.368 173.24 260.459 173.528 260.459Z" fill="#2F2E41"/>
<path d="M236.012 104.834C236.033 104.546 235.962 104.26 235.81 104.015C235.658 103.77 235.432 103.579 235.165 103.47C234.898 103.361 234.603 103.34 234.323 103.409C234.043 103.478 233.792 103.634 233.607 103.855C233.475 104.01 220.363 119.69 209.524 143.764C199.505 166.018 189.408 200.231 198.213 236.838C198.298 237.19 198.519 237.494 198.828 237.683C199.137 237.872 199.508 237.931 199.86 237.846C200.212 237.761 200.516 237.54 200.705 237.232C200.894 236.923 200.953 236.552 200.868 236.2C192.244 200.342 202.169 166.751 212.014 144.885C222.698 121.155 235.565 105.767 235.694 105.615C235.88 105.395 235.991 105.121 236.012 104.834Z" fill="#2F2E41"/>
<path d="M234.164 175.23C235.316 184.524 241.755 192.186 251.12 192.186C255.617 192.186 259.93 190.4 263.11 187.22C266.289 184.04 268.076 179.727 268.076 175.23C268.076 165.866 260.444 159.14 251.12 158.274C241.226 157.355 232.685 163.299 234.164 175.23Z" fill="#2F2E41"/>
<path d="M258.973 448.307L265.43 448.306L268.502 423.4L258.972 423.401L258.973 448.307Z" fill="#FFB6B6"/>
<path d="M258.746 455.042L278.602 455.042V454.791C278.602 452.741 277.788 450.775 276.339 449.326C274.889 447.877 272.924 447.062 270.874 447.062L267.247 444.311L260.479 447.063L258.746 447.063L258.746 455.042Z" fill="#2F2E41"/>
<path d="M233.539 448.307L239.996 448.306L243.068 423.4L233.538 423.401L233.539 448.307Z" fill="#FFB6B6"/>
<path d="M233.312 455.042L253.168 455.042V454.791C253.168 452.741 252.354 450.775 250.905 449.326C249.455 447.877 247.49 447.062 245.44 447.062L241.812 444.311L235.045 447.063L233.312 447.063L233.312 455.042Z" fill="#2F2E41"/>
<path d="M281.193 292.317L285.758 307.969L280.38 374.257C280.38 374.257 283.15 378.402 281.193 378.402C279.237 378.402 276.728 379.321 278.309 381.796C279.889 384.271 274.487 393.157 274.487 393.157L266.846 440.356L257.11 440.212C257.11 440.212 252.16 437.455 254.938 434.666C257.716 431.878 259.672 431.878 257.064 429.27C254.455 426.661 254.455 427.447 254.455 425.423C254.455 423.4 251.842 398.675 258.039 389.19L256.172 350.521L251.773 388.451L242.716 439.052L233.337 438.975C233.337 438.975 229.005 434.799 229.013 431.708C229.021 428.617 231.69 428.361 229.703 426.533C227.717 424.704 227.717 396.621 233.586 381.01C233.586 381.01 236.906 372.288 233.579 369.3C230.251 366.311 233.575 362.891 233.575 362.891C233.575 362.891 238.845 360.986 233.57 355.497C228.294 350.007 233.541 311.183 233.541 311.183C233.541 311.183 227.774 295.512 233.615 289.349C239.456 283.187 281.193 292.317 281.193 292.317Z" fill="#2F2E41"/>
<path d="M199.886 319.284L208.031 299.6L214.449 303.165L210.573 323.188C210.961 324.457 210.988 325.808 210.65 327.091C210.312 328.374 209.623 329.537 208.66 330.45C207.697 331.363 206.499 331.989 205.2 332.258C203.901 332.527 202.553 332.428 201.307 331.973C200.061 331.517 198.966 330.724 198.147 329.68C197.327 328.637 196.815 327.386 196.667 326.068C196.52 324.75 196.743 323.416 197.312 322.218C197.88 321.019 198.772 320.003 199.886 319.284Z" fill="#FFB6B6"/>
<path d="M336.561 163.634L324.168 180.96L318.726 176.033L327.037 157.409C326.946 156.086 327.227 154.763 327.847 153.59C328.466 152.417 329.401 151.441 330.546 150.77C331.69 150.099 332.999 149.761 334.325 149.793C335.651 149.825 336.942 150.227 338.053 150.953C339.163 151.679 340.049 152.7 340.611 153.901C341.173 155.103 341.389 156.438 341.234 157.755C341.079 159.073 340.559 160.321 339.734 161.359C338.908 162.398 337.81 163.185 336.561 163.634Z" fill="#FFB6B6"/>
<path d="M282.423 293.922C290.462 306.39 250.056 322.213 234.552 315.86C231.838 314.748 222.499 311.074 228.882 305.981C235.265 300.887 228.142 300.17 227.974 296.854C227.861 294.638 229.578 289.775 227.787 289.983C225.996 290.192 223.9 287.126 227.8 285.807C231.7 284.488 227.842 283.284 227.876 282.032C228.249 268.366 238.734 246.629 238.734 246.629L219.841 294.925C219.841 294.925 219.98 303.281 217.571 300.727C215.162 298.174 215.337 306.438 215.337 306.438C215.337 306.438 211.754 308.938 213.815 310.33C215.875 311.721 211.597 316 211.597 316L201.614 315.287C201.614 315.287 201.771 307.871 203.475 306.231C205.179 304.591 204.342 302.011 204.342 302.011C204.342 302.011 208.78 298.083 205.805 294.893C201.978 290.791 215.929 221.506 220.743 222.192C221.424 218.88 223.007 215.82 225.318 213.351C227.629 210.882 230.578 209.1 233.839 208.203L244.62 205.234L246.535 197.638H261.716L264.36 202.629L275.902 207.838C278.076 204.77 279.7 201.538 288.603 200.49C288.603 200.49 312.591 178.665 311.419 176.961C310.248 175.256 313.967 171.267 313.967 171.267C313.967 171.267 317.142 170.227 315.35 169.672C313.558 169.117 316.946 167.834 316.946 167.834C316.946 167.834 320.083 167.01 318.603 165.925C317.124 164.839 323.541 164.126 323.541 164.126L331.867 170.92L330.184 173.773C330.184 173.773 331.21 177.659 329.871 176.24C328.532 174.822 328.28 178.938 328.28 178.938C328.28 178.938 327.596 183.446 323.541 184.804C319.486 186.162 316.411 199.064 316.411 199.064C306.847 211.499 295.56 221.199 282.186 227.585C287.398 233.568 282.423 293.922 282.423 293.922Z" fill="#00A4B9"/>
<path d="M252.994 193.193C261.298 193.193 268.03 186.461 268.03 178.157C268.03 169.853 261.298 163.121 252.994 163.121C244.69 163.121 237.958 169.853 237.958 178.157C237.958 186.461 244.69 193.193 252.994 193.193Z" fill="#FFB6B6"/>
<path d="M237.425 179.795C237.901 183.062 240.686 187.621 240.033 187.621C239.381 187.621 234.744 174.152 239.381 173.274C242.745 172.637 243.496 173.195 246.64 171.832L246.196 172.25C248.277 173.763 251.172 172.83 253.546 171.845C255.926 170.867 258.815 169.935 260.902 171.441C262.213 172.387 262.767 174.03 263.583 175.426C264.398 176.828 265.904 178.152 267.456 177.721C268.702 177.376 269.419 175.98 269.413 174.689C269.406 173.398 267.725 172.169 268.291 171.011C269.969 167.577 268.46 165.237 264.802 163.622C263.472 163.42 262.141 163.213 260.811 163.002C261.508 162.037 262.353 161.187 263.315 160.485C262.909 159.443 262.206 158.543 261.294 157.896C260.231 157.263 258.913 157.309 257.681 157.374C254.929 157.518 252.179 157.661 249.431 157.805C247.396 157.909 245.29 158.033 243.47 158.965C241.201 160.133 239.714 162.409 238.631 164.724C236.205 169.928 236.59 174.115 237.425 179.795Z" fill="#2F2E41"/>
<path d="M174.877 456.736L322.752 456.937C322.958 456.937 323.156 456.855 323.301 456.709C323.447 456.564 323.529 456.366 323.529 456.16C323.529 455.954 323.447 455.757 323.301 455.611C323.156 455.466 322.958 455.384 322.752 455.384L174.877 455.183C174.671 455.183 174.473 455.265 174.327 455.411C174.182 455.556 174.1 455.754 174.1 455.96C174.1 456.166 174.182 456.363 174.327 456.509C174.473 456.655 174.671 456.736 174.877 456.736Z" fill="#CACACA"/>
<path d="M121.394 389.049C121.666 387.175 119.704 385.338 117.01 384.946C114.317 384.555 111.913 385.756 111.64 387.629C111.367 389.503 113.33 391.34 116.023 391.732C118.717 392.123 121.121 390.922 121.394 389.049Z" fill="#E6E6E6"/>
<path d="M153.461 385.919C153.734 384.046 151.771 382.209 149.078 381.817C146.384 381.425 143.98 382.627 143.707 384.5C143.435 386.374 145.397 388.21 148.091 388.602C150.784 388.994 153.188 387.793 153.461 385.919Z" fill="url(#paint0_linear_716_50014)"/>
<path d="M112.612 363.088C112.885 361.214 110.923 359.377 108.229 358.986C105.536 358.594 103.131 359.795 102.859 361.669C102.586 363.542 104.549 365.379 107.242 365.771C109.935 366.162 112.34 364.961 112.612 363.088Z" fill="#276B74"/>
<path d="M98.6785 352.453C98.6915 350.733 97.7321 349.332 96.5355 349.323C95.3389 349.314 94.3583 350.701 94.3453 352.421C94.3323 354.141 95.2918 355.542 96.4884 355.552C97.685 355.561 98.6655 354.174 98.6785 352.453Z" fill="#E6E6E6"/>
<path d="M93.9529 332.647C93.9659 330.926 93.0065 329.525 91.8099 329.516C90.6133 329.507 89.6327 330.894 89.6197 332.614C89.6067 334.334 90.5662 335.736 91.7628 335.745C92.9594 335.754 93.9399 334.367 93.9529 332.647Z" fill="url(#paint1_linear_716_50014)"/>
<path d="M130.699 367.505C130.712 365.785 129.752 364.384 128.556 364.375C127.359 364.366 126.378 365.753 126.365 367.473C126.352 369.193 127.312 370.594 128.508 370.604C129.705 370.613 130.686 369.226 130.699 367.505Z" fill="#E6E6E6"/>
<path d="M115.202 375.243C115.215 373.522 114.256 372.121 113.059 372.112C111.863 372.103 110.882 373.49 110.869 375.21C110.856 376.93 111.816 378.332 113.012 378.341C114.209 378.35 115.189 376.963 115.202 375.243Z" fill="#276B74"/>
<path d="M136.774 389.543C136.787 387.823 135.827 386.421 134.631 386.412C133.434 386.403 132.454 387.79 132.441 389.51C132.428 391.23 133.387 392.632 134.584 392.641C135.78 392.65 136.761 391.263 136.774 389.543Z" fill="url(#paint2_linear_716_50014)"/>
<path d="M367.907 288.617C368.18 286.743 366.217 284.907 363.524 284.515C360.831 284.123 358.426 285.324 358.154 287.198C357.881 289.071 359.844 290.908 362.537 291.3C365.23 291.692 367.635 290.491 367.907 288.617Z" fill="#E6E6E6"/>
<path d="M399.975 285.488C400.247 283.614 398.285 281.778 395.591 281.386C392.898 280.994 390.494 282.195 390.221 284.069C389.949 285.943 391.911 287.779 394.604 288.171C397.298 288.563 399.702 287.362 399.975 285.488Z" fill="url(#paint3_linear_716_50014)"/>
<path d="M359.126 262.656C359.399 260.782 357.436 258.946 354.743 258.554C352.05 258.162 349.645 259.363 349.373 261.237C349.1 263.11 351.062 264.947 353.756 265.339C356.449 265.731 358.853 264.53 359.126 262.656Z" fill="#276B74"/>
<path d="M345.192 252.022C345.205 250.302 344.246 248.9 343.049 248.891C341.853 248.882 340.872 250.269 340.859 251.989C340.846 253.709 341.805 255.111 343.002 255.12C344.199 255.129 345.179 253.742 345.192 252.022Z" fill="#E6E6E6"/>
<path d="M340.467 232.215C340.48 230.495 339.521 229.093 338.324 229.084C337.127 229.075 336.147 230.462 336.134 232.182C336.121 233.902 337.08 235.304 338.277 235.313C339.474 235.322 340.454 233.935 340.467 232.215Z" fill="url(#paint4_linear_716_50014)"/>
<path d="M377.213 267.074C377.226 265.354 376.266 263.952 375.07 263.943C373.873 263.934 372.893 265.321 372.88 267.041C372.867 268.761 373.826 270.163 375.023 270.172C376.219 270.181 377.2 268.794 377.213 267.074Z" fill="#E6E6E6"/>
<path d="M361.716 274.811C361.729 273.091 360.77 271.689 359.573 271.68C358.376 271.671 357.396 273.058 357.383 274.778C357.37 276.498 358.329 277.9 359.526 277.909C360.723 277.918 361.703 276.531 361.716 274.811Z" fill="#276B74"/>
<path d="M383.288 289.111C383.301 287.391 382.341 285.989 381.145 285.98C379.948 285.971 378.968 287.358 378.955 289.078C378.942 290.798 379.901 292.2 381.098 292.209C382.294 292.218 383.275 290.831 383.288 289.111Z" fill="url(#paint5_linear_716_50014)"/>
<path d="M248.564 102.753C248.836 100.88 246.874 99.0432 244.18 98.6513C241.487 98.2594 239.083 99.4606 238.81 101.334C238.537 103.208 240.5 105.044 243.193 105.436C245.887 105.828 248.291 104.627 248.564 102.753Z" fill="white"/>
<path d="M280.631 99.6243C280.904 97.7506 278.941 95.9141 276.248 95.5222C273.554 95.1303 271.15 96.3315 270.877 98.2052C270.605 100.079 272.567 101.915 275.261 102.307C277.954 102.699 280.358 101.498 280.631 99.6243Z" fill="url(#paint6_linear_716_50014)"/>
<path d="M239.782 76.7924C240.055 74.9188 238.092 73.0823 235.399 72.6904C232.706 72.2985 230.301 73.4997 230.029 75.3733C229.756 77.247 231.719 79.0835 234.412 79.4754C237.105 79.8673 239.51 78.6661 239.782 76.7924Z" fill="#276B74"/>
<path d="M225.848 66.1583C225.861 64.4382 224.902 63.0365 223.705 63.0274C222.509 63.0184 221.528 64.4054 221.515 66.1255C221.502 67.8456 222.462 69.2473 223.658 69.2564C224.855 69.2654 225.835 67.8784 225.848 66.1583Z" fill="#E6E6E6"/>
<path d="M221.123 46.3514C221.136 44.6313 220.176 43.2296 218.98 43.2205C217.783 43.2115 216.803 44.5986 216.79 46.3186C216.777 48.0387 217.736 49.4404 218.933 49.4495C220.129 49.4585 221.11 48.0715 221.123 46.3514Z" fill="url(#paint7_linear_716_50014)"/>
<path d="M257.868 81.2103C257.881 79.4902 256.922 78.0885 255.725 78.0794C254.529 78.0704 253.548 79.4574 253.535 81.1775C253.522 82.8976 254.482 84.2993 255.678 84.3084C256.875 84.3174 257.855 82.9304 257.868 81.2103Z" fill="#E6E6E6"/>
<path d="M242.372 88.9473C242.385 87.2273 241.426 85.8256 240.229 85.8165C239.033 85.8075 238.052 87.1945 238.039 88.9146C238.026 90.6347 238.986 92.0364 240.182 92.0454C241.379 92.0545 242.359 90.6674 242.372 88.9473Z" fill="#276B74"/>
<path d="M263.944 103.248C263.957 101.528 262.997 100.126 261.801 100.117C260.604 100.108 259.623 101.495 259.61 103.215C259.597 104.935 260.557 106.337 261.753 106.346C262.95 106.355 263.931 104.968 263.944 103.248Z" fill="url(#paint8_linear_716_50014)"/>
</g>
<defs>
<linearGradient id="paint0_linear_716_50014" x1="143.214" y1="387.893" x2="150.906" y2="379.674" gradientUnits="userSpaceOnUse">
<stop stop-color="#03BFD7"/>
<stop offset="1" stop-color="#60C3AD"/>
</linearGradient>
<linearGradient id="paint1_linear_716_50014" x1="89.5962" y1="335.728" x2="95.467" y2="331.71" gradientUnits="userSpaceOnUse">
<stop stop-color="#03BFD7"/>
<stop offset="1" stop-color="#60C3AD"/>
</linearGradient>
<linearGradient id="paint2_linear_716_50014" x1="132.417" y1="392.625" x2="138.288" y2="388.606" gradientUnits="userSpaceOnUse">
<stop stop-color="#03BFD7"/>
<stop offset="1" stop-color="#60C3AD"/>
</linearGradient>
<linearGradient id="paint3_linear_716_50014" x1="389.728" y1="287.461" x2="397.42" y2="279.242" gradientUnits="userSpaceOnUse">
<stop stop-color="#03BFD7"/>
<stop offset="1" stop-color="#60C3AD"/>
</linearGradient>
<linearGradient id="paint4_linear_716_50014" x1="336.11" y1="235.297" x2="341.981" y2="231.278" gradientUnits="userSpaceOnUse">
<stop stop-color="#03BFD7"/>
<stop offset="1" stop-color="#60C3AD"/>
</linearGradient>
<linearGradient id="paint5_linear_716_50014" x1="378.931" y1="292.193" x2="384.802" y2="288.174" gradientUnits="userSpaceOnUse">
<stop stop-color="#03BFD7"/>
<stop offset="1" stop-color="#60C3AD"/>
</linearGradient>
<linearGradient id="paint6_linear_716_50014" x1="270.384" y1="101.598" x2="278.076" y2="93.3786" gradientUnits="userSpaceOnUse">
<stop stop-color="#03BFD7"/>
<stop offset="1" stop-color="#60C3AD"/>
</linearGradient>
<linearGradient id="paint7_linear_716_50014" x1="216.766" y1="49.4331" x2="222.637" y2="45.4146" gradientUnits="userSpaceOnUse">
<stop stop-color="#03BFD7"/>
<stop offset="1" stop-color="#60C3AD"/>
</linearGradient>
<linearGradient id="paint8_linear_716_50014" x1="259.587" y1="106.329" x2="265.458" y2="102.311" gradientUnits="userSpaceOnUse">
<stop stop-color="#03BFD7"/>
<stop offset="1" stop-color="#60C3AD"/>
</linearGradient>
<clipPath id="clip0_716_50014">
<rect width="400" height="456.873" fill="white" transform="translate(0 0.0634766)"/>
</clipPath>
</defs>
</svg>
