<svg width="30" height="30" viewBox="0 0 30 30" fill="none" xmlns="http://www.w3.org/2000/svg">
<path fill-rule="evenodd" clip-rule="evenodd" d="M6.5111 0.468315C12.1074 -0.156105 17.8926 -0.156105 23.4889 0.468315C26.6119 0.816775 29.1314 3.27321 29.4981 6.40332C30.1673 12.115 30.1673 17.885 29.4981 23.5967C29.1314 26.7268 26.6119 29.1832 23.4889 29.5317C17.8926 30.1561 12.1074 30.1561 6.5111 29.5317C3.38809 29.1832 0.868567 26.7268 0.50186 23.5967C-0.167287 17.885 -0.167287 12.115 0.50186 6.40332C0.868567 3.27321 3.38809 0.816775 6.5111 0.468315ZM15 5.9115C15.7553 5.9115 16.3676 6.52276 16.3676 7.27678V13.6347H22.7362C23.4915 13.6347 24.1038 14.246 24.1038 15C24.1038 15.754 23.4915 16.3653 22.7362 16.3653H16.3676V22.7232C16.3676 23.4772 15.7553 24.0885 15 24.0885C14.2447 24.0885 13.6325 23.4772 13.6325 22.7232V16.3653H7.26396C6.50868 16.3653 5.8964 15.754 5.8964 15C5.8964 14.246 6.50868 13.6347 7.26396 13.6347H13.6325V7.27678C13.6325 6.52276 14.2447 5.9115 15 5.9115Z" fill="#00A4B9"/>
<path d="M16.3676 7.27678C16.3676 6.52276 15.7553 5.9115 15 5.9115C14.2447 5.9115 13.6325 6.52276 13.6325 7.27678V13.6347H7.26396C6.50868 13.6347 5.8964 14.246 5.8964 15C5.8964 15.754 6.50868 16.3653 7.26396 16.3653H13.6325V22.7232C13.6325 23.4772 14.2447 24.0885 15 24.0885C15.7553 24.0885 16.3676 23.4772 16.3676 22.7232V16.3653H22.7362C23.4915 16.3653 24.1038 15.754 24.1038 15C24.1038 14.246 23.4915 13.6347 22.7362 13.6347H16.3676V7.27678Z" fill="white"/>
</svg>
