<svg width="24" height="25" viewBox="0 0 24 25" fill="none" xmlns="http://www.w3.org/2000/svg">
<g clip-path="url(#clip0_1603_14078)">
<path d="M10.7302 10.7514L12.5702 11.8114L13.5702 10.0814L11.7302 9.02142C11.9002 8.52142 12.0102 8.00142 12.0102 7.45142C12.0102 6.90142 11.9002 6.38142 11.7302 5.88142L13.5702 4.82142L12.5702 3.09142L10.7302 4.15142C10.0202 3.35142 9.08018 2.77142 8.00018 2.55142V0.451416H6.00018V2.55142C4.92018 2.77142 3.98018 3.35142 3.27018 4.15142L1.43018 3.09142L0.430176 4.82142L2.27018 5.88142C2.10018 6.38142 1.99018 6.90142 1.99018 7.45142C1.99018 8.00142 2.10018 8.52142 2.27018 9.02142L0.430176 10.0814L1.43018 11.8114L3.27018 10.7514C3.98018 11.5514 4.92018 12.1314 6.00018 12.3514V14.4514H8.00018V12.3514C9.08018 12.1314 10.0202 11.5514 10.7302 10.7514ZM4.00018 7.45142C4.00018 5.80142 5.35018 4.45142 7.00018 4.45142C8.65018 4.45142 10.0002 5.80142 10.0002 7.45142C10.0002 9.10142 8.65018 10.4514 7.00018 10.4514C5.35018 10.4514 4.00018 9.10142 4.00018 7.45142ZM22.0002 17.4514C22.0002 16.9014 21.8902 16.3814 21.7202 15.8814L23.5602 14.8214L22.5602 13.0914L20.7202 14.1514C20.0102 13.3514 19.0702 12.7714 17.9902 12.5514V10.4514H15.9902V12.5514C14.9102 12.7714 13.9702 13.3514 13.2602 14.1514L11.4202 13.0914L10.4202 14.8214L12.2602 15.8814C12.0902 16.3814 11.9802 16.9014 11.9802 17.4514C11.9802 18.0014 12.0902 18.5214 12.2602 19.0214L10.4202 20.0814L11.4202 21.8114L13.2602 20.7514C13.9702 21.5514 14.9102 22.1314 15.9902 22.3514V24.4514H17.9902V22.3514C19.0702 22.1314 20.0102 21.5514 20.7202 20.7514L22.5602 21.8114L23.5602 20.0814L21.7202 19.0214C21.8902 18.5214 22.0002 18.0014 22.0002 17.4514ZM17.0002 20.4514C15.3502 20.4514 14.0002 19.1014 14.0002 17.4514C14.0002 15.8014 15.3502 14.4514 17.0002 14.4514C18.6502 14.4514 20.0002 15.8014 20.0002 17.4514C20.0002 19.1014 18.6502 20.4514 17.0002 20.4514Z" fill="#0977BA"/>
</g>
<defs>
<clipPath id="clip0_1603_14078">
<rect width="24" height="24" fill="white" transform="translate(0 0.451416)"/>
</clipPath>
</defs>
</svg>
