<svg width="36" height="37" viewBox="0 0 36 37" fill="none" xmlns="http://www.w3.org/2000/svg">
<rect y="0.5" width="36" height="36" rx="18" fill="#00A4B9"/>
<path d="M23.3335 18.6829C23.3335 18.936 23.1454 19.1452 22.9013 19.1783L22.8335 19.1829L12.8335 19.1829C12.5574 19.1829 12.3335 18.959 12.3335 18.6829C12.3335 18.4297 12.5216 18.2205 12.7656 18.1874L12.8335 18.1829L22.8335 18.1829C23.1096 18.1829 23.3335 18.4067 23.3335 18.6829Z" fill="white"/>
<path d="M17.2195 22.3449C17.4152 22.5397 17.4159 22.8563 17.221 23.052C17.0439 23.2299 16.7661 23.2466 16.5701 23.1018L16.5139 23.0535L12.4806 19.0375C12.3022 18.8598 12.2859 18.5811 12.4319 18.385L12.4805 18.3289L16.5139 14.3122C16.7095 14.1174 17.0261 14.118 17.221 14.3137C17.3981 14.4916 17.4137 14.7694 17.268 14.9648L17.2195 15.0208L13.5422 18.6834L17.2195 22.3449Z" fill="white"/>
</svg>
