<svg width="16" height="21" viewBox="0 0 16 21" fill="none" xmlns="http://www.w3.org/2000/svg">
<path fill-rule="evenodd" clip-rule="evenodd" d="M8.99994 1.5C8.99994 0.947715 8.55222 0.5 7.99994 0.5C7.44765 0.5 6.99994 0.947715 6.99994 1.5V2.25H6.44252C4.21745 2.25 2.37585 3.98001 2.23695 6.20074L2.01595 9.7342C1.93169 11.0814 1.4794 12.3797 0.708343 13.4876C0.0116609 14.4886 0.631881 15.8712 1.84281 16.0165L5.24994 16.4254V17.5C5.24994 19.0188 6.48116 20.25 7.99994 20.25C9.51872 20.25 10.7499 19.0188 10.7499 17.5V16.4254L14.1571 16.0165C15.368 15.8712 15.9882 14.4886 15.2915 13.4876C14.5205 12.3797 14.0682 11.0814 13.9839 9.7342L13.7629 6.20074C13.624 3.98001 11.7824 2.25 9.55735 2.25H8.99994V1.5ZM6.44252 3.75C5.00952 3.75 3.82348 4.86417 3.73403 6.29438L3.51303 9.82784C3.41163 11.449 2.86738 13.0112 1.93953 14.3444C1.88918 14.4168 1.934 14.5167 2.02153 14.5272L5.75919 14.9757C7.24768 15.1543 8.75219 15.1543 10.2407 14.9757L13.9783 14.5272C14.0659 14.5167 14.1107 14.4168 14.0603 14.3444C13.1325 13.0112 12.5882 11.449 12.4868 9.82784L12.2658 6.29438C12.1764 4.86417 10.9903 3.75 9.55735 3.75H6.44252ZM7.99994 18.75C7.30958 18.75 6.74994 18.1904 6.74994 17.5V16.75H9.24994V17.5C9.24994 18.1904 8.6903 18.75 7.99994 18.75Z" fill="#00A4B9"/>
</svg>
