<svg width="46" height="46" viewBox="0 0 46 46" fill="none" xmlns="http://www.w3.org/2000/svg">
<path d="M14.3433 10.0808C12.1498 10.326 10.394 12.0572 10.1402 14.2271C9.45847 20.0559 9.45847 25.9444 10.1402 31.7732C10.394 33.9431 12.1498 35.6743 14.3433 35.9195C20.0488 36.5572 25.9515 36.5572 31.6571 35.9195C33.8505 35.6743 35.6063 33.9431 35.8601 31.7732C36.3499 27.585 36.4878 23.3661 36.2737 19.1606C36.2682 19.052 36.3088 18.946 36.3857 18.8691L38.3766 16.8781C38.6071 16.6477 39.0009 16.7918 39.0253 17.1168C39.4011 22.1095 39.2978 27.1293 38.7156 32.1072C38.3038 35.6281 35.4769 38.3855 31.9764 38.7767C26.0586 39.4381 19.9417 39.4381 14.0239 38.7767C10.5234 38.3855 7.69647 35.6281 7.28468 32.1072C6.57698 26.0565 6.57698 19.9438 7.28468 13.8931C7.69647 10.3722 10.5234 7.61483 14.0239 7.22359C19.9417 6.56219 26.0586 6.56219 31.9764 7.22359C33.2093 7.36139 34.3586 7.79269 35.3483 8.44749C35.5431 8.57634 35.5624 8.85011 35.3973 9.01523L33.8584 10.5541C33.7325 10.68 33.5373 10.7011 33.3804 10.6171C32.8564 10.3363 32.274 10.1498 31.657 10.0808C25.9515 9.44312 20.0488 9.44312 14.3433 10.0808Z" fill="#00A4B9"/>
<path d="M40.3083 11.5583C40.8696 10.9969 40.8696 10.0867 40.3083 9.52535C39.7469 8.96397 38.8367 8.96397 38.2753 9.52535L22.0418 25.7589L17.3083 21.0254C16.7469 20.464 15.8367 20.464 15.2753 21.0254C14.7139 21.5867 14.7139 22.4969 15.2753 23.0583L21.0253 28.8083C21.5867 29.3697 22.4969 29.3697 23.0583 28.8083L40.3083 11.5583Z" fill="#00A4B9"/>
</svg>
