<svg width="24" height="25" viewBox="0 0 24 25" fill="none" xmlns="http://www.w3.org/2000/svg">
<path fill-rule="evenodd" clip-rule="evenodd" d="M8.12903 16.6026C8.12903 17.0274 8.47565 17.3718 8.90323 17.3718H15.0968C15.5243 17.3718 15.871 17.0274 15.871 16.6026C15.871 16.1777 15.5243 15.8333 15.0968 15.8333H8.90323C8.47565 15.8333 8.12903 16.1777 8.12903 16.6026Z" fill="#00A4B9"/>
<path fill-rule="evenodd" clip-rule="evenodd" d="M8.12903 12.5C8.12903 12.9248 8.47565 13.2692 8.90323 13.2692H12C12.4276 13.2692 12.7742 12.9248 12.7742 12.5C12.7742 12.0752 12.4276 11.7308 12 11.7308H8.90323C8.47565 11.7308 8.12903 12.0752 8.12903 12.5Z" fill="#00A4B9"/>
<path fill-rule="evenodd" clip-rule="evenodd" d="M8.96832 3.36688C9.28943 2.84443 9.85266 2.5 10.4879 2.5H13.5121C14.1473 2.5 14.7106 2.84443 15.0317 3.36688L15.598 4.28825C16.1575 4.33176 16.6881 4.37857 17.1512 4.42214C18.4998 4.54902 19.5504 5.61757 19.6563 6.95519C19.7985 8.75286 20 11.6773 20 13.8444C20 15.8896 19.8208 18.2117 19.6808 19.716C19.5583 21.0333 18.5145 22.0672 17.1922 22.1922C15.7554 22.3279 13.6198 22.5 12 22.5C10.3802 22.5 8.24457 22.3279 6.80778 22.1922C5.48548 22.0672 4.44171 21.0333 4.31916 19.716C4.1792 18.2117 4 15.8896 4 13.8444C4 11.6773 4.20149 8.75286 4.34373 6.95519C4.44956 5.61757 5.50024 4.54902 6.84879 4.42214C7.31193 4.37857 7.8425 4.33176 8.402 4.28825L8.96832 3.36688ZM8.02441 5.86223C7.65829 5.8928 7.31087 5.92401 6.99475 5.95375C6.39941 6.00977 5.93455 6.47928 5.88735 7.07577C5.74518 8.87253 5.54839 11.7436 5.54839 13.8444C5.54839 15.8175 5.72226 18.0834 5.86097 19.5744C5.91474 20.1523 6.3697 20.6054 6.95435 20.6606C8.38773 20.796 10.4598 20.9615 12 20.9615C13.5402 20.9615 15.6123 20.796 17.0456 20.6606C17.6303 20.6054 18.0853 20.1523 18.139 19.5744C18.2777 18.0834 18.4516 15.8175 18.4516 13.8444C18.4516 11.7436 18.2548 8.87253 18.1126 7.07577C18.0655 6.47928 17.6006 6.00977 17.0052 5.95376C16.6891 5.92401 16.3417 5.8928 15.9756 5.86223C15.9352 6.0803 15.8588 6.2884 15.7521 6.47609C15.4604 6.98894 14.9092 7.39732 14.2002 7.39732H9.79976C9.09084 7.39732 8.53958 6.98894 8.24791 6.47609C8.14117 6.2884 8.06476 6.0803 8.02441 5.86223ZM10.4879 4.03846C10.4329 4.03846 10.3515 4.06821 10.2898 4.16872L9.60159 5.28834C9.59146 5.30483 9.58285 5.32123 9.57557 5.33747C9.52007 5.46132 9.53158 5.60602 9.59596 5.71923C9.6574 5.82725 9.73397 5.85886 9.79976 5.85886H14.2002C14.266 5.85886 14.3426 5.82725 14.404 5.71923C14.4684 5.60602 14.4799 5.46132 14.4244 5.33747C14.4171 5.32123 14.4085 5.30483 14.3984 5.28834L13.7102 4.16872C13.6485 4.06821 13.5671 4.03846 13.5121 4.03846H10.4879Z" fill="#00A4B9"/>
</svg>
