<svg width="26" height="26" viewBox="0 0 26 26" fill="none" xmlns="http://www.w3.org/2000/svg">
<path d="M2.5 9.26885H10.5C11.4375 9.26885 12.2 8.5063 12.2 7.56885V2.56885C12.2 1.63139 11.4375 0.868848 10.5 0.868848H2.5C1.56254 0.868848 0.8 1.63139 0.8 2.56885V7.56885C0.8 8.5063 1.56254 9.26885 2.5 9.26885ZM2.2 2.56885C2.2 2.40356 2.3352 2.26885 2.5 2.26885H10.5C10.6648 2.26885 10.8 2.40356 10.8 2.56885V7.56885C10.8 7.73413 10.6648 7.86885 10.5 7.86885H2.5C2.3352 7.86885 2.2 7.73413 2.2 7.56885V2.56885Z" fill="#0977BA" stroke="#0977BA" stroke-width="0.4"/>
<path d="M2.5 25.2688H10.5C11.4375 25.2688 12.2 24.5063 12.2 23.5688V12.5688C12.2 11.6314 11.4375 10.8688 10.5 10.8688H2.5C1.56254 10.8688 0.8 11.6314 0.8 12.5688V23.5688C0.8 24.5063 1.56254 25.2688 2.5 25.2688ZM2.2 12.5688C2.2 12.4036 2.3352 12.2688 2.5 12.2688H10.5C10.6648 12.2688 10.8 12.4036 10.8 12.5688V23.5688C10.8 23.7341 10.6648 23.8688 10.5 23.8688H2.5C2.3352 23.8688 2.2 23.7341 2.2 23.5688V12.5688Z" fill="#0977BA" stroke="#0977BA" stroke-width="0.4"/>
<path d="M15.5 25.6512H23.5C24.4375 25.6512 25.2 24.8886 25.2 23.9512V18.9512C25.2 18.0137 24.4375 17.2512 23.5 17.2512H15.5C14.5625 17.2512 13.8 18.0137 13.8 18.9512V23.9512C13.8 24.8886 14.5625 25.6512 15.5 25.6512ZM15.2 18.9512C15.2 18.7859 15.3352 18.6512 15.5 18.6512H23.5C23.6648 18.6512 23.8 18.7859 23.8 18.9512V23.9512C23.8 24.1165 23.6648 24.2512 23.5 24.2512H15.5C15.3352 24.2512 15.2 24.1165 15.2 23.9512V18.9512Z" fill="#0977BA" stroke="#0977BA" stroke-width="0.4"/>
<path d="M15.5 15.2688H23.5C24.4375 15.2688 25.2 14.5063 25.2 13.5688V2.56885C25.2 1.63139 24.4375 0.868848 23.5 0.868848H15.5C14.5625 0.868848 13.8 1.63139 13.8 2.56885V13.5688C13.8 14.5063 14.5625 15.2688 15.5 15.2688ZM15.2 2.56885C15.2 2.40356 15.3352 2.26885 15.5 2.26885H23.5C23.6648 2.26885 23.8 2.40356 23.8 2.56885V13.5688C23.8 13.7341 23.6648 13.8688 23.5 13.8688H15.5C15.3352 13.8688 15.2 13.7341 15.2 13.5688V2.56885Z" fill="#0977BA" stroke="#0977BA" stroke-width="0.4"/>
</svg>
