<svg width="24" height="25" viewBox="0 0 24 25" fill="none" xmlns="http://www.w3.org/2000/svg">
<path fill-rule="evenodd" clip-rule="evenodd" d="M15.7158 17.5635H8.49585C8.08185 17.5635 7.74585 17.2275 7.74585 16.8135C7.74585 16.3995 8.08185 16.0635 8.49585 16.0635H15.7158C16.1298 16.0635 16.4658 16.3995 16.4658 16.8135C16.4658 17.2275 16.1298 17.5635 15.7158 17.5635Z" fill="#00A4B9"/>
<path fill-rule="evenodd" clip-rule="evenodd" d="M15.7158 13.377H8.49585C8.08185 13.377 7.74585 13.041 7.74585 12.627C7.74585 12.213 8.08185 11.877 8.49585 11.877H15.7158C16.1298 11.877 16.4658 12.213 16.4658 12.627C16.4658 13.041 16.1298 13.377 15.7158 13.377Z" fill="#00A4B9"/>
<path fill-rule="evenodd" clip-rule="evenodd" d="M11.2506 9.2002H8.49561C8.08161 9.2002 7.74561 8.8642 7.74561 8.4502C7.74561 8.0362 8.08161 7.7002 8.49561 7.7002H11.2506C11.6646 7.7002 12.0006 8.0362 12.0006 8.4502C12.0006 8.8642 11.6646 9.2002 11.2506 9.2002Z" fill="#00A4B9"/>
<mask id="mask0_2871_4097" style="mask-type:luminance" maskUnits="userSpaceOnUse" x="3" y="2" width="19" height="21">
<path fill-rule="evenodd" clip-rule="evenodd" d="M3 2.58984H21.1647V22.4996H3V2.58984Z" fill="white"/>
</mask>
<g mask="url(#mask0_2871_4097)">
<path fill-rule="evenodd" clip-rule="evenodd" d="M15.9088 4.08984L8.21976 4.09384C5.89176 4.10784 4.49976 5.54784 4.49976 7.94684V17.1428C4.49976 19.5578 5.90476 20.9998 8.25576 20.9998L15.9448 20.9968C18.2728 20.9828 19.6648 19.5408 19.6648 17.1428V7.94684C19.6648 5.53184 18.2608 4.08984 15.9088 4.08984ZM8.25676 22.4998C5.11276 22.4998 2.99976 20.3468 2.99976 17.1428V7.94684C2.99976 4.71384 5.04676 2.61284 8.21476 2.59384L15.9078 2.58984H15.9088C19.0528 2.58984 21.1648 4.74284 21.1648 7.94684V17.1428C21.1648 20.3748 19.1178 22.4768 15.9498 22.4968L8.25676 22.4998Z" fill="#00A4B9"/>
</g>
</svg>
