<svg width="24" height="25" viewBox="0 0 24 25" fill="none" xmlns="http://www.w3.org/2000/svg">
<path fill-rule="evenodd" clip-rule="evenodd" d="M15.1369 3.96967C14.9963 3.82902 14.8055 3.75 14.6066 3.75C14.4077 3.75 14.2169 3.82902 14.0763 3.96967L4.88388 13.1621C4.78965 13.2563 4.72223 13.3739 4.68856 13.5028L3.68856 17.3313C3.62127 17.5889 3.69561 17.8629 3.88388 18.0511C4.07215 18.2394 4.34614 18.3138 4.60375 18.2465L8.43218 17.2465C8.56111 17.2128 8.67874 17.1454 8.77297 17.0511L17.9654 7.85876C18.2582 7.56586 18.2582 7.09099 17.9654 6.7981L15.1369 3.96967ZM6.08843 14.0788L14.6066 5.56066L16.3744 7.32843L7.8562 15.8466L5.46344 16.4716L6.08843 14.0788Z" fill="#00A4B9"/>
<path d="M4 19.75C3.58579 19.75 3.25 20.0858 3.25 20.5C3.25 20.9142 3.58579 21.25 4 21.25H19C19.4142 21.25 19.75 20.9142 19.75 20.5C19.75 20.0858 19.4142 19.75 19 19.75H4Z" fill="#00A4B9"/>
</svg>
