<svg width="36" height="36" viewBox="0 0 36 36" fill="none" xmlns="http://www.w3.org/2000/svg">
<path fill-rule="evenodd" clip-rule="evenodd" d="M15.1202 27.8892H5.6687C5.0477 27.8892 4.5437 27.3852 4.5437 26.7642C4.5437 26.1432 5.0477 25.6392 5.6687 25.6392H15.1202C15.7412 25.6392 16.2452 26.1432 16.2452 26.7642C16.2452 27.3852 15.7412 27.8892 15.1202 27.8892Z" fill="#00A4B9"/>
<path fill-rule="evenodd" clip-rule="evenodd" d="M28.7864 13.3506H19.3364C18.7154 13.3506 18.2114 12.8466 18.2114 12.2256C18.2114 11.6046 18.7154 11.1006 19.3364 11.1006H28.7864C29.4074 11.1006 29.9114 11.6046 29.9114 12.2256C29.9114 12.8466 29.4074 13.3506 28.7864 13.3506Z" fill="#00A4B9"/>
<mask id="mask0_2787_1164" style="mask-type:luminance" maskUnits="userSpaceOnUse" x="4" y="7" width="10" height="10">
<path fill-rule="evenodd" clip-rule="evenodd" d="M4.5 7.50049H13.8387V16.7879H4.5V7.50049Z" fill="white"/>
</mask>
<g mask="url(#mask0_2787_1164)">
<path fill-rule="evenodd" clip-rule="evenodd" d="M9.16926 9.75C7.83576 9.75 6.74976 10.824 6.74976 12.1455C6.74976 13.4655 7.83576 14.538 9.16926 14.538C10.5043 14.538 11.5888 13.4655 11.5888 12.1455C11.5888 10.824 10.5043 9.75 9.16926 9.75ZM9.16926 16.788C6.59526 16.788 4.49976 14.706 4.49976 12.1455C4.49976 9.585 6.59526 7.5 9.16926 7.5C11.7448 7.5 13.8388 9.585 13.8388 12.1455C13.8388 14.706 11.7448 16.788 9.16926 16.788Z" fill="#00A4B9"/>
</g>
<path fill-rule="evenodd" clip-rule="evenodd" d="M26.0816 24.3118C24.7466 24.3118 23.6606 25.3858 23.6606 26.7058C23.6606 28.0273 24.7466 29.0998 26.0816 29.0998C27.4151 29.0998 28.4996 28.0273 28.4996 26.7058C28.4996 25.3858 27.4151 24.3118 26.0816 24.3118ZM26.0816 31.3498C23.5061 31.3498 21.4106 29.2663 21.4106 26.7058C21.4106 24.1453 23.5061 22.0618 26.0816 22.0618C28.6556 22.0618 30.7496 24.1453 30.7496 26.7058C30.7496 29.2663 28.6556 31.3498 26.0816 31.3498Z" fill="#00A4B9"/>
</svg>
