<svg width="24" height="25" viewBox="0 0 24 25" fill="none" xmlns="http://www.w3.org/2000/svg">
<path fill-rule="evenodd" clip-rule="evenodd" d="M7.11429 6.34615C7.11429 4.22198 8.84119 2.5 10.9714 2.5H13.0286C15.1588 2.5 16.8857 4.22198 16.8857 6.34615V8.89316C17.389 8.93306 17.858 8.9735 18.2684 9.01058C19.5954 9.13049 20.6487 10.1709 20.7692 11.4995C20.8768 12.685 21 14.3139 21 15.5769C21 16.8399 20.8768 18.4689 20.7692 19.6544C20.6487 20.983 19.5954 22.0234 18.2684 22.1433C16.6013 22.2939 13.9663 22.5 12 22.5C10.0337 22.5 7.39868 22.2939 5.73161 22.1433C4.40463 22.0234 3.35132 20.983 3.23078 19.6544C3.12322 18.4689 3 16.8399 3 15.5769C3 14.3139 3.12322 12.685 3.23078 11.4995C3.35132 10.1709 4.40463 9.13049 5.73161 9.01058C6.14199 8.9735 6.61102 8.93306 7.11429 8.89316V6.34615ZM7.93656 10.3735C7.94067 10.3732 7.94478 10.3729 7.94888 10.3726C9.30113 10.2742 10.7906 10.1923 12 10.1923C13.2094 10.1923 14.6989 10.2742 16.0511 10.3726C16.0552 10.3729 16.0593 10.3732 16.0634 10.3735C16.8198 10.4286 17.5327 10.4889 18.1291 10.5428C18.7194 10.5961 19.1797 11.055 19.2326 11.6381C19.3397 12.8179 19.4571 14.3882 19.4571 15.5769C19.4571 16.7657 19.3397 18.3359 19.2326 19.5157C19.1797 20.0989 18.7194 20.5577 18.1291 20.6111C16.4637 20.7616 13.8899 20.9615 12 20.9615C10.1101 20.9615 7.53629 20.7616 5.87085 20.6111C5.28062 20.5577 4.82027 20.0989 4.76736 19.5157C4.66032 18.3359 4.54286 16.7657 4.54286 15.5769C4.54286 14.3882 4.66032 12.8179 4.76736 11.6381C4.82027 11.0549 5.28062 10.5961 5.87085 10.5428C6.4673 10.4889 7.18024 10.4286 7.93656 10.3735ZM15.3429 8.78188C14.2001 8.7084 13.0116 8.65385 12 8.65385C10.9884 8.65385 9.79986 8.7084 8.65714 8.78188V6.34615C8.65714 5.07165 9.69328 4.03846 10.9714 4.03846H13.0286C14.3067 4.03846 15.3429 5.07165 15.3429 6.34615V8.78188ZM12 13.7821C12.426 13.7821 12.7714 14.1264 12.7714 14.5513V16.6026C12.7714 17.0274 12.426 17.3718 12 17.3718C11.574 17.3718 11.2286 17.0274 11.2286 16.6026V14.5513C11.2286 14.1264 11.574 13.7821 12 13.7821Z" fill="#00A4B9"/>
</svg>
