<svg width="56" height="57" viewBox="0 0 56 57" fill="none" xmlns="http://www.w3.org/2000/svg">
<rect y="0.0688477" width="56" height="56" rx="14" fill="url(#paint0_linear_1603_14633)"/>
<path d="M25.5 29.0688H21.25C20.1228 29.0688 19.0418 29.701 18.2448 30.8262C17.4478 31.9514 17 33.4775 17 35.0688V38.0688" stroke="white" stroke-width="2" stroke-linecap="round" stroke-linejoin="round"/>
<path d="M24.5 26.0688C26.9853 26.0688 29 24.0541 29 21.5688C29 19.0836 26.9853 17.0688 24.5 17.0688C22.0147 17.0688 20 19.0836 20 21.5688C20 24.0541 22.0147 26.0688 24.5 26.0688Z" stroke="white" stroke-width="2" stroke-linecap="round" stroke-linejoin="round"/>
<g clip-path="url(#clip0_1603_14633)">
<path d="M32.4585 34.6523C33.356 34.6523 34.0835 33.9248 34.0835 33.0273C34.0835 32.1299 33.356 31.4023 32.4585 31.4023C31.561 31.4023 30.8335 32.1299 30.8335 33.0273C30.8335 33.9248 31.561 34.6523 32.4585 34.6523Z" stroke="white" stroke-linecap="round" stroke-linejoin="round"/>
<path d="M36.4667 34.6522C36.3946 34.8156 36.3731 34.9968 36.4049 35.1725C36.4368 35.3482 36.5205 35.5104 36.6454 35.638L36.6779 35.6705C36.7786 35.7711 36.8585 35.8906 36.9131 36.0221C36.9676 36.1536 36.9956 36.2946 36.9956 36.437C36.9956 36.5793 36.9676 36.7203 36.9131 36.8518C36.8585 36.9833 36.7786 37.1028 36.6779 37.2034C36.5773 37.3042 36.4578 37.3841 36.3263 37.4386C36.1948 37.4931 36.0538 37.5212 35.9115 37.5212C35.7691 37.5212 35.6281 37.4931 35.4966 37.4386C35.3651 37.3841 35.2456 37.3042 35.145 37.2034L35.1125 37.1709C34.9848 37.0461 34.8227 36.9623 34.647 36.9304C34.4713 36.8986 34.29 36.9201 34.1267 36.9922C33.9665 37.0608 33.8298 37.1749 33.7336 37.3202C33.6373 37.4655 33.5857 37.6358 33.585 37.8101V37.9022C33.585 38.1895 33.4709 38.465 33.2677 38.6682C33.0645 38.8714 32.789 38.9855 32.5017 38.9855C32.2143 38.9855 31.9388 38.8714 31.7356 38.6682C31.5325 38.465 31.4183 38.1895 31.4183 37.9022V37.8534C31.4141 37.6741 31.3561 37.5003 31.2518 37.3544C31.1474 37.2085 31.0016 37.0974 30.8333 37.0355C30.67 36.9634 30.4887 36.9419 30.313 36.9738C30.1373 37.0056 29.9752 37.0894 29.8475 37.2143L29.815 37.2468C29.7144 37.3475 29.5949 37.4274 29.4634 37.4819C29.3319 37.5364 29.1909 37.5645 29.0485 37.5645C28.9062 37.5645 28.7652 37.5364 28.6337 37.4819C28.5022 37.4274 28.3827 37.3475 28.2821 37.2468C28.1814 37.1462 28.1015 37.0267 28.0469 36.8952C27.9924 36.7636 27.9644 36.6227 27.9644 36.4803C27.9644 36.3379 27.9924 36.197 28.0469 36.0655C28.1015 35.9339 28.1814 35.8145 28.2821 35.7138L28.3146 35.6813C28.4395 35.5537 28.5232 35.3915 28.5551 35.2158C28.5869 35.0401 28.5654 34.8589 28.4933 34.6955C28.4247 34.5353 28.3107 34.3987 28.1653 34.3024C28.02 34.2062 27.8497 34.1545 27.6754 34.1538H27.5833C27.296 34.1538 27.0205 34.0397 26.8173 33.8365C26.6141 33.6334 26.5 33.3578 26.5 33.0705C26.5 32.7832 26.6141 32.5076 26.8173 32.3045C27.0205 32.1013 27.296 31.9872 27.5833 31.9872H27.6321C27.8114 31.983 27.9853 31.925 28.1311 31.8206C28.277 31.7163 28.3881 31.5705 28.45 31.4022C28.5221 31.2388 28.5436 31.0576 28.5118 30.8819C28.4799 30.7061 28.3961 30.544 28.2713 30.4163L28.2388 30.3838C28.138 30.2832 28.0581 30.1638 28.0036 30.0322C27.9491 29.9007 27.921 29.7598 27.921 29.6174C27.921 29.475 27.9491 29.3341 28.0036 29.2025C28.0581 29.071 28.138 28.9515 28.2388 28.8509C28.3394 28.7502 28.4588 28.6703 28.5904 28.6158C28.7219 28.5613 28.8628 28.5332 29.0052 28.5332C29.1476 28.5332 29.2885 28.5613 29.4201 28.6158C29.5516 28.6703 29.6711 28.7502 29.7717 28.8509L29.8042 28.8834C29.9318 29.0083 30.094 29.0921 30.2697 29.1239C30.4454 29.1558 30.6266 29.1343 30.79 29.0622H30.8333C30.9935 28.9935 31.1302 28.8795 31.2264 28.7342C31.3227 28.5889 31.3743 28.4186 31.375 28.2443V28.1522C31.375 27.8649 31.4891 27.5893 31.6923 27.3861C31.8955 27.183 32.171 27.0688 32.4583 27.0688C32.7457 27.0688 33.0212 27.183 33.2244 27.3861C33.4275 27.5893 33.5417 27.8649 33.5417 28.1522V28.2009C33.5424 28.3752 33.594 28.5455 33.6903 28.6908C33.7865 28.8362 33.9231 28.9502 34.0833 29.0188C34.2467 29.091 34.4279 29.1125 34.6037 29.0806C34.7794 29.0487 34.9415 28.965 35.0692 28.8401L35.1017 28.8076C35.2023 28.7069 35.3218 28.627 35.4533 28.5724C35.5848 28.5179 35.7258 28.4899 35.8681 28.4899C36.0105 28.4899 36.1515 28.5179 36.283 28.5724C36.4145 28.627 36.534 28.7069 36.6346 28.8076C36.7353 28.9082 36.8152 29.0277 36.8697 29.1592C36.9242 29.2907 36.9523 29.4317 36.9523 29.5741C36.9523 29.7164 36.9242 29.8574 36.8697 29.9889C36.8152 30.1204 36.7353 30.2399 36.6346 30.3405L36.6021 30.373C36.4772 30.5007 36.3934 30.6628 36.3616 30.8385C36.3297 31.0142 36.3512 31.1955 36.4233 31.3588V31.4022C36.492 31.5624 36.606 31.699 36.7513 31.7953C36.8967 31.8915 37.0669 31.9432 37.2413 31.9438H37.3333C37.6207 31.9438 37.8962 32.058 38.0994 32.2611C38.3025 32.4643 38.4167 32.7399 38.4167 33.0272C38.4167 33.3145 38.3025 33.59 38.0994 33.7932C37.8962 33.9964 37.6207 34.1105 37.3333 34.1105H37.2846C37.1103 34.1112 36.94 34.1629 36.7947 34.2591C36.6493 34.3553 36.5353 34.492 36.4667 34.6522V34.6522Z" stroke="white" stroke-linecap="round" stroke-linejoin="round"/>
</g>
<defs>
<linearGradient id="paint0_linear_1603_14633" x1="28" y1="0.0688477" x2="28" y2="56.0688" gradientUnits="userSpaceOnUse">
<stop stop-color="#0977BA"/>
<stop offset="1" stop-color="#014771"/>
</linearGradient>
<clipPath id="clip0_1603_14633">
<rect width="13" height="13" fill="white" transform="translate(26 26.5688)"/>
</clipPath>
</defs>
</svg>
