<svg width="24" height="25" viewBox="0 0 24 25" fill="none" xmlns="http://www.w3.org/2000/svg">
<path d="M17 21.4514V19.4514C17 18.3906 16.5786 17.3731 15.8284 16.623C15.0783 15.8728 14.0609 15.4514 13 15.4514H5C3.93913 15.4514 2.92172 15.8728 2.17157 16.623C1.42143 17.3731 1 18.3906 1 19.4514V21.4514" stroke="#0977BA" stroke-width="2" stroke-linecap="round" stroke-linejoin="round"/>
<path d="M9 11.4514C11.2091 11.4514 13 9.66055 13 7.45142C13 5.24228 11.2091 3.45142 9 3.45142C6.79086 3.45142 5 5.24228 5 7.45142C5 9.66055 6.79086 11.4514 9 11.4514Z" stroke="#0977BA" stroke-width="2" stroke-linecap="round" stroke-linejoin="round"/>
<path d="M23 21.4513V19.4513C22.9993 18.565 22.7044 17.7041 22.1614 17.0036C21.6184 16.3032 20.8581 15.8029 20 15.5813" stroke="#0977BA" stroke-width="2" stroke-linecap="round" stroke-linejoin="round"/>
<path d="M16 3.5813C16.8604 3.8016 17.623 4.302 18.1676 5.00361C18.7122 5.70522 19.0078 6.56813 19.0078 7.4563C19.0078 8.34447 18.7122 9.20738 18.1676 9.90899C17.623 10.6106 16.8604 11.111 16 11.3313" stroke="#0977BA" stroke-width="2" stroke-linecap="round" stroke-linejoin="round"/>
</svg>
