<svg width="24" height="25" viewBox="0 0 24 25" fill="none" xmlns="http://www.w3.org/2000/svg">
<path d="M11 4.45142H4C3.46957 4.45142 2.96086 4.66213 2.58579 5.0372C2.21071 5.41228 2 5.92098 2 6.45142V20.4514C2 20.9818 2.21071 21.4906 2.58579 21.8656C2.96086 22.2407 3.46957 22.4514 4 22.4514H18C18.5304 22.4514 19.0391 22.2407 19.4142 21.8656C19.7893 21.4906 20 20.9818 20 20.4514V13.4514" stroke="#0977BA" stroke-width="2" stroke-linecap="round" stroke-linejoin="round"/>
<path d="M18.5 2.9514C18.8978 2.55357 19.4374 2.33008 20 2.33008C20.5626 2.33008 21.1022 2.55357 21.5 2.9514C21.8978 3.34922 22.1213 3.88879 22.1213 4.4514C22.1213 5.01401 21.8978 5.55357 21.5 5.9514L12 15.4514L8 16.4514L9 12.4514L18.5 2.9514Z" stroke="#0977BA" stroke-width="2" stroke-linecap="round" stroke-linejoin="round"/>
</svg>
