<svg width="24" height="25" viewBox="0 0 24 25" fill="none" xmlns="http://www.w3.org/2000/svg">
<path d="M9.5 13.0688H5.25C4.12283 13.0688 3.04183 13.701 2.2448 14.8262C1.44777 15.9514 1 17.4775 1 19.0688V22.0688" stroke="#0977BA" stroke-width="2" stroke-linecap="round" stroke-linejoin="round"/>
<path d="M8.5 10.0688C10.9853 10.0688 13 8.05413 13 5.56885C13 3.08357 10.9853 1.06885 8.5 1.06885C6.01472 1.06885 4 3.08357 4 5.56885C4 8.05413 6.01472 10.0688 8.5 10.0688Z" stroke="#0977BA" stroke-width="2" stroke-linecap="round" stroke-linejoin="round"/>
<g clip-path="url(#clip0_1604_21215)">
<path d="M16.4585 18.6523C17.356 18.6523 18.0835 17.9248 18.0835 17.0273C18.0835 16.1299 17.356 15.4023 16.4585 15.4023C15.561 15.4023 14.8335 16.1299 14.8335 17.0273C14.8335 17.9248 15.561 18.6523 16.4585 18.6523Z" stroke="#0977BA" stroke-linecap="round" stroke-linejoin="round"/>
<path d="M20.4667 18.6522C20.3946 18.8156 20.3731 18.9968 20.4049 19.1725C20.4368 19.3482 20.5205 19.5104 20.6454 19.638L20.6779 19.6705C20.7786 19.7711 20.8585 19.8906 20.9131 20.0221C20.9676 20.1536 20.9956 20.2946 20.9956 20.437C20.9956 20.5793 20.9676 20.7203 20.9131 20.8518C20.8585 20.9833 20.7786 21.1028 20.6779 21.2034C20.5773 21.3042 20.4578 21.3841 20.3263 21.4386C20.1948 21.4931 20.0538 21.5212 19.9115 21.5212C19.7691 21.5212 19.6281 21.4931 19.4966 21.4386C19.3651 21.3841 19.2456 21.3042 19.145 21.2034L19.1125 21.1709C18.9848 21.0461 18.8227 20.9623 18.647 20.9304C18.4713 20.8986 18.29 20.9201 18.1267 20.9922C17.9665 21.0608 17.8298 21.1749 17.7336 21.3202C17.6373 21.4655 17.5857 21.6358 17.585 21.8101V21.9022C17.585 22.1895 17.4709 22.465 17.2677 22.6682C17.0645 22.8714 16.789 22.9855 16.5017 22.9855C16.2143 22.9855 15.9388 22.8714 15.7356 22.6682C15.5325 22.465 15.4183 22.1895 15.4183 21.9022V21.8534C15.4141 21.6741 15.3561 21.5003 15.2518 21.3544C15.1474 21.2085 15.0016 21.0974 14.8333 21.0355C14.67 20.9634 14.4887 20.9419 14.313 20.9738C14.1373 21.0056 13.9752 21.0894 13.8475 21.2143L13.815 21.2468C13.7144 21.3475 13.5949 21.4274 13.4634 21.4819C13.3319 21.5364 13.1909 21.5645 13.0485 21.5645C12.9062 21.5645 12.7652 21.5364 12.6337 21.4819C12.5022 21.4274 12.3827 21.3475 12.2821 21.2468C12.1814 21.1462 12.1015 21.0267 12.0469 20.8952C11.9924 20.7636 11.9644 20.6227 11.9644 20.4803C11.9644 20.3379 11.9924 20.197 12.0469 20.0655C12.1015 19.9339 12.1814 19.8145 12.2821 19.7138L12.3146 19.6813C12.4395 19.5537 12.5232 19.3915 12.5551 19.2158C12.5869 19.0401 12.5654 18.8589 12.4933 18.6955C12.4247 18.5353 12.3107 18.3987 12.1653 18.3024C12.02 18.2062 11.8497 18.1545 11.6754 18.1538H11.5833C11.296 18.1538 11.0205 18.0397 10.8173 17.8365C10.6141 17.6334 10.5 17.3578 10.5 17.0705C10.5 16.7832 10.6141 16.5076 10.8173 16.3045C11.0205 16.1013 11.296 15.9872 11.5833 15.9872H11.6321C11.8114 15.983 11.9853 15.925 12.1311 15.8206C12.277 15.7163 12.3881 15.5705 12.45 15.4022C12.5221 15.2388 12.5436 15.0576 12.5118 14.8819C12.4799 14.7061 12.3961 14.544 12.2713 14.4163L12.2388 14.3838C12.138 14.2832 12.0581 14.1638 12.0036 14.0322C11.9491 13.9007 11.921 13.7598 11.921 13.6174C11.921 13.475 11.9491 13.3341 12.0036 13.2025C12.0581 13.071 12.138 12.9515 12.2388 12.8509C12.3394 12.7502 12.4588 12.6703 12.5904 12.6158C12.7219 12.5613 12.8628 12.5332 13.0052 12.5332C13.1476 12.5332 13.2885 12.5613 13.4201 12.6158C13.5516 12.6703 13.6711 12.7502 13.7717 12.8509L13.8042 12.8834C13.9318 13.0083 14.094 13.0921 14.2697 13.1239C14.4454 13.1558 14.6266 13.1343 14.79 13.0622H14.8333C14.9935 12.9935 15.1302 12.8795 15.2264 12.7342C15.3227 12.5889 15.3743 12.4186 15.375 12.2443V12.1522C15.375 11.8649 15.4891 11.5893 15.6923 11.3861C15.8955 11.183 16.171 11.0688 16.4583 11.0688C16.7457 11.0688 17.0212 11.183 17.2244 11.3861C17.4275 11.5893 17.5417 11.8649 17.5417 12.1522V12.2009C17.5424 12.3752 17.594 12.5455 17.6903 12.6908C17.7865 12.8362 17.9231 12.9502 18.0833 13.0188C18.2467 13.091 18.4279 13.1125 18.6037 13.0806C18.7794 13.0487 18.9415 12.965 19.0692 12.8401L19.1017 12.8076C19.2023 12.7069 19.3218 12.627 19.4533 12.5724C19.5848 12.5179 19.7258 12.4899 19.8681 12.4899C20.0105 12.4899 20.1515 12.5179 20.283 12.5724C20.4145 12.627 20.534 12.7069 20.6346 12.8076C20.7353 12.9082 20.8152 13.0277 20.8697 13.1592C20.9242 13.2907 20.9523 13.4317 20.9523 13.5741C20.9523 13.7164 20.9242 13.8574 20.8697 13.9889C20.8152 14.1204 20.7353 14.2399 20.6346 14.3405L20.6021 14.373C20.4772 14.5007 20.3934 14.6628 20.3616 14.8385C20.3297 15.0142 20.3512 15.1955 20.4233 15.3588V15.4022C20.492 15.5624 20.606 15.699 20.7513 15.7953C20.8967 15.8915 21.0669 15.9432 21.2413 15.9438H21.3333C21.6207 15.9438 21.8962 16.058 22.0994 16.2611C22.3025 16.4643 22.4167 16.7399 22.4167 17.0272C22.4167 17.3145 22.3025 17.59 22.0994 17.7932C21.8962 17.9964 21.6207 18.1105 21.3333 18.1105H21.2846C21.1103 18.1112 20.94 18.1629 20.7947 18.2591C20.6493 18.3553 20.5353 18.492 20.4667 18.6522V18.6522Z" stroke="#0977BA" stroke-linecap="round" stroke-linejoin="round"/>
</g>
<defs>
<clipPath id="clip0_1604_21215">
<rect width="13" height="13" fill="white" transform="translate(10 10.5688)"/>
</clipPath>
</defs>
</svg>
