<svg width="24" height="25" viewBox="0 0 24 25" fill="none" xmlns="http://www.w3.org/2000/svg">
<path fill-rule="evenodd" clip-rule="evenodd" d="M3.52439 9.35685C3.87872 5.05824 7.47087 1.75 11.7841 1.75H12.216C16.5292 1.75 20.1213 5.05824 20.4757 9.35685C20.666 11.666 19.9527 13.9589 18.4861 15.7526L13.693 21.6144C12.818 22.6845 11.1821 22.6845 10.307 21.6144L5.51399 15.7526C4.04733 13.9589 3.33405 11.666 3.52439 9.35685ZM11.7841 3.25C8.25152 3.25 5.30952 5.95948 5.01932 9.48008C4.8609 11.4019 5.45455 13.3102 6.67521 14.8031L11.4683 20.6649C11.7431 21.001 12.2569 21.001 12.5318 20.6649L17.3248 14.8031C18.5455 13.3102 19.1391 11.4019 18.9807 9.48008C18.6905 5.95948 15.7485 3.25 12.216 3.25H11.7841Z" fill="#00A4B9"/>
<path d="M13 16.5C13 17.0523 12.5523 17.5 12 17.5C11.4477 17.5 11 17.0523 11 16.5C11 15.9477 11.4477 15.5 12 15.5C12.5523 15.5 13 15.9477 13 16.5Z" fill="#00A4B9"/>
<path fill-rule="evenodd" clip-rule="evenodd" d="M12 8.25C11.0533 8.25 10.25 9.04542 10.25 10.0714C10.25 10.4856 9.91424 10.8214 9.50003 10.8214C9.08581 10.8214 8.75003 10.4856 8.75003 10.0714C8.75003 8.25711 10.1853 6.75 12 6.75C13.8147 6.75 15.25 8.25711 15.25 10.0714C15.25 11.5024 14.3618 12.7348 13.0981 13.1983C12.9736 13.244 12.8724 13.3138 12.8112 13.3818C12.7541 13.4455 12.75 13.4844 12.75 13.5C12.75 13.9142 12.4142 14.25 12 14.25C11.5858 14.25 11.25 13.9142 11.25 13.5C11.25 12.5764 11.9935 12.0057 12.5816 11.79C13.2531 11.5438 13.75 10.8747 13.75 10.0714C13.75 9.04542 12.9467 8.25 12 8.25Z" fill="#00A4B9"/>
</svg>
