<svg width="17" height="21" viewBox="0 0 17 21" fill="none" xmlns="http://www.w3.org/2000/svg">
<mask id="mask0_2871_4086" style="mask-type:luminance" maskUnits="userSpaceOnUse" x="0" y="0" width="17" height="21">
<path fill-rule="evenodd" clip-rule="evenodd" d="M0.000244141 0.5H16.9671V20.8556H0.000244141V0.5Z" fill="white"/>
</mask>
<g mask="url(#mask0_2871_4086)">
<path fill-rule="evenodd" clip-rule="evenodd" d="M8.48366 2C7.63566 2 2.28566 3.884 1.66866 4.399C1.48666 4.582 1.47966 4.9 1.51866 7.029C1.53666 8.055 1.56166 9.449 1.56166 11.379C1.56166 16.58 7.28366 18.889 8.48266 19.314C9.68066 18.887 15.4057 16.565 15.4057 11.379C15.4057 9.447 15.4307 8.052 15.4497 7.026C15.4877 4.899 15.4807 4.581 15.2877 4.389C14.6827 3.884 9.33166 2 8.48366 2ZM8.48366 20.856C8.41066 20.856 8.33766 20.846 8.26666 20.824C7.93166 20.723 0.0616587 18.261 0.0616587 11.379C0.0616587 9.462 0.0366587 8.075 0.0186587 7.057C-0.0273413 4.514 -0.0373414 3.984 0.619659 3.328C1.40466 2.541 7.34966 0.5 8.48366 0.5C9.61666 0.5 15.5617 2.541 16.3487 3.328C17.0047 3.984 16.9947 4.514 16.9487 7.054C16.9307 8.072 16.9057 9.459 16.9057 11.379C16.9057 18.261 9.03566 20.723 8.70066 20.824C8.62966 20.846 8.55666 20.856 8.48366 20.856Z" fill="#00A4B9"/>
</g>
<path fill-rule="evenodd" clip-rule="evenodd" d="M7.77713 13.0189C7.57813 13.0189 7.38713 12.9399 7.24613 12.7989L5.35413 10.9049C5.06213 10.6119 5.06213 10.1359 5.35513 9.84389C5.64713 9.55089 6.12313 9.55089 6.41613 9.84389L7.77713 11.2069L11.1451 7.83889C11.4381 7.54589 11.9121 7.54589 12.2051 7.83889C12.4981 8.13189 12.4981 8.60689 12.2051 8.89989L8.30713 12.7989C8.16713 12.9399 7.97613 13.0189 7.77713 13.0189Z" fill="#00A4B9"/>
</svg>
